<ttFont>
<head>
    <!-- Most of this table will be recalculated by the compiler -->
    <tableVersion value="1.0"/>
    <fontRevision value="2.001"/>
    <checkSumAdjustment value="0x45121439"/>
    <magicNumber value="0x5f0f3cf5"/>
    <flags value="00000000 00011001"/>
    <unitsPerEm value="1000"/>
    <created value="Fri May 28 07:24:04 2004"/>
    <modified value="Wed Mar  8 14:53:11 2006"/>
    <xMin value="-164"/>
    <yMin value="-253"/>
    <xMax value="1066"/>
    <yMax value="954"/>
    <macStyle value="00000000 00000001"/>
    <lowestRecPPEM value="9"/>
    <fontDirectionHint value="2"/>
    <indexToLocFormat value="0"/>
    <glyphDataFormat value="0"/>
  </head>
    <TTGlyph name=".notdef" xMin="0" yMin="0" xMax="512" yMax="718">
      <contour>
        <pt x="222" y="117" on="1"/>
        <pt x="222" y="184" on="1"/>
        <pt x="278" y="184" on="1"/>
        <pt x="278" y="117" on="1"/>
      </contour>
      <contour>
        <pt x="225" y="234" on="1"/>
        <pt x="223" y="251" on="1"/>
        <pt x="223" y="306" on="0"/>
        <pt x="249" y="358" on="0"/>
        <pt x="282" y="391" on="1"/>
        <pt x="314" y="422" on="0"/>
        <pt x="332" y="455" on="0"/>
        <pt x="332" y="474" on="1"/>
        <pt x="332" y="510" on="0"/>
        <pt x="287" y="559" on="0"/>
        <pt x="256" y="559" on="1"/>
        <pt x="225" y="559" on="0"/>
        <pt x="180" y="515" on="0"/>
        <pt x="174" y="464" on="1"/>
        <pt x="124" y="472" on="1"/>
        <pt x="131" y="543" on="0"/>
        <pt x="205" y="609" on="0"/>
        <pt x="259" y="609" on="1"/>
        <pt x="312" y="609" on="0"/>
        <pt x="383" y="537" on="0"/>
        <pt x="383" y="478" on="1"/>
        <pt x="383" y="446" on="0"/>
        <pt x="358" y="393" on="0"/>
        <pt x="320" y="358" on="1"/>
        <pt x="283" y="325" on="0"/>
        <pt x="271" y="287" on="0"/>
        <pt x="271" y="234" on="1"/>
      </contour>
      <contour>
        <pt x="462" y="50" on="1"/>
        <pt x="462" y="667" on="1"/>
        <pt x="50" y="667" on="1"/>
        <pt x="50" y="50" on="1"/>
      </contour>
      <contour>
        <pt x="512" y="718" on="1"/>
        <pt x="512" y="0" on="1"/>
        <pt x="0" y="0" on="1"/>
        <pt x="0" y="718" on="1"/>
      </contour>
    </TTGlyph>
    <TTGlyph name="A" xMin="0" yMin="0" xMax="556" yMax="714">
      <contour>
        <pt x="208" y="269" on="1"/>
        <pt x="348" y="269" on="1"/>
        <pt x="279" y="590" on="1"/>
        <pt x="277" y="590" on="1"/>
      </contour>
      <contour>
        <pt x="189" y="714" on="1"/>
        <pt x="367" y="714" on="1"/>
        <pt x="556" y="0" on="1"/>
        <pt x="406" y="0" on="1"/>
        <pt x="373" y="151" on="1"/>
        <pt x="183" y="151" on="1"/>
        <pt x="150" y="0" on="1"/>
        <pt x="0" y="0" on="1"/>
      </contour>
    </TTGlyph>
    <TTGlyph name="AE" xMin="-5" yMin="0" xMax="737" yMax="714">
      <contour>
        <pt x="354" y="269" on="1"/>
        <pt x="354" y="602" on="1"/>
        <pt x="345" y="602" on="1"/>
        <pt x="234" y="269" on="1"/>
      </contour>
      <contour>
        <pt x="264" y="714" on="1"/>
        <pt x="727" y="714" on="1"/>
        <pt x="727" y="596" on="1"/>
        <pt x="492" y="596" on="1"/>
        <pt x="492" y="428" on="1"/>
        <pt x="712" y="428" on="1"/>
        <pt x="712" y="310" on="1"/>
        <pt x="492" y="310" on="1"/>
        <pt x="492" y="118" on="1"/>
        <pt x="737" y="118" on="1"/>
        <pt x="737" y="0" on="1"/>
        <pt x="354" y="0" on="1"/>
        <pt x="354" y="151" on="1"/>
        <pt x="195" y="151" on="1"/>
        <pt x="145" y="0" on="1"/>
        <pt x="-5" y="0" on="1"/>
      </contour>
    </TTGlyph>
    <TTGlyph name="Aacute" xMin="0" yMin="0" xMax="556" yMax="900">
      <component glyphName="A" x="0" y="0" flags="0x204"/>
      <component glyphName="acute" x="166" y="154" flags="0x4"/>
    </TTGlyph>
    <TTGlyph name="Abreve" xMin="0" yMin="0" xMax="556" yMax="899">
      <component glyphName="A" x="0" y="0" flags="0x204"/>
      <component glyphName="breve" x="167" y="154" flags="0x4"/>
    </TTGlyph>
    <TTGlyph name="Acircumflex" xMin="0" yMin="0" xMax="556" yMax="900">
      <component glyphName="A" x="0" y="0" flags="0x204"/>
      <component glyphName="circumflex" x="166" y="154" flags="0x4"/>
    </TTGlyph>
    <TTGlyph name="Adieresis" xMin="0" yMin="0" xMax="556" yMax="889">
      <component glyphName="A" x="0" y="0" flags="0x204"/>
      <component glyphName="dieresis" x="167" y="156" flags="0x4"/>
    </TTGlyph>
    <TTGlyph name="Agrave" xMin="0" yMin="0" xMax="556" yMax="900">
      <component glyphName="A" x="0" y="0" flags="0x204"/>
      <component glyphName="grave" x="164" y="154" flags="0x4"/>
    </TTGlyph>
    <TTGlyph name="Amacron" xMin="0" yMin="0" xMax="556" yMax="866">
      <component glyphName="A" x="0" y="0" flags="0x204"/>
      <component glyphName="macron" x="167" y="154" flags="0x4"/>
    </TTGlyph>
    <TTGlyph name="Aogonek" xMin="0" yMin="-217" xMax="556" yMax="714">
      <contour>
        <pt x="493" y="-182" on="1"/>
        <pt x="465" y="-202" on="0"/>
        <pt x="414" y="-217" on="0"/>
        <pt x="379" y="-217" on="1"/>
        <pt x="350" y="-217" on="0"/>
        <pt x="312" y="-202" on="0"/>
        <pt x="291" y="-180" on="0"/>
        <pt x="283" y="-152" on="0"/>
        <pt x="283" y="-138" on="1"/>
        <pt x="283" y="-101" on="0"/>
        <pt x="349" y="-26" on="0"/>
        <pt x="406" y="0" on="1"/>
        <pt x="373" y="151" on="1"/>
        <pt x="183" y="151" on="1"/>
        <pt x="150" y="0" on="1"/>
        <pt x="0" y="0" on="1"/>
        <pt x="189" y="714" on="1"/>
        <pt x="367" y="714" on="1"/>
        <pt x="556" y="0" on="1"/>
        <pt x="473" y="0" on="1"/>
        <pt x="442" y="-23" on="0"/>
        <pt x="403" y="-58" on="0"/>
        <pt x="380" y="-86" on="0"/>
        <pt x="372" y="-110" on="0"/>
        <pt x="372" y="-122" on="1"/>
        <pt x="372" y="-153" on="0"/>
        <pt x="400" y="-153" on="1"/>
        <pt x="414" y="-153" on="0"/>
        <pt x="441" y="-146" on="0"/>
        <pt x="463" y="-133" on="1"/>
      </contour>
      <contour>
        <pt x="208" y="269" on="1"/>
        <pt x="348" y="269" on="1"/>
        <pt x="279" y="590" on="1"/>
        <pt x="277" y="590" on="1"/>
      </contour>
    </TTGlyph>
    <TTGlyph name="Aring" xMin="0" yMin="0" xMax="556" yMax="954">
      <component glyphName="A" x="0" y="0" flags="0x204"/>
      <component glyphName="ring" x="168" y="154" flags="0x4"/>
    </TTGlyph>
    <TTGlyph name="Atilde" xMin="0" yMin="0" xMax="556" yMax="891">
      <component glyphName="A" x="0" y="0" flags="0x204"/>
      <component glyphName="tilde" x="167" y="154" flags="0x4"/>
    </TTGlyph>
    <TTGlyph name="B" xMin="50" yMin="0" xMax="516" yMax="714">
      <contour>
        <pt x="194" y="106" on="1"/>
        <pt x="250" y="106" on="1"/>
        <pt x="302" y="106" on="0"/>
        <pt x="366" y="152" on="0"/>
        <pt x="366" y="214" on="1"/>
        <pt x="366" y="245" on="0"/>
        <pt x="349" y="286" on="0"/>
        <pt x="320" y="311" on="0"/>
        <pt x="280" y="321" on="0"/>
        <pt x="256" y="321" on="1"/>
        <pt x="194" y="321" on="1"/>
      </contour>
      <contour>
        <pt x="194" y="421" on="1"/>
        <pt x="235" y="421" on="1"/>
        <pt x="295" y="421" on="0"/>
        <pt x="350" y="464" on="0"/>
        <pt x="350" y="515" on="1"/>
        <pt x="350" y="566" on="0"/>
        <pt x="300" y="608" on="0"/>
        <pt x="246" y="608" on="1"/>
        <pt x="194" y="608" on="1"/>
      </contour>
      <contour>
        <pt x="50" y="714" on="1"/>
        <pt x="291" y="714" on="1"/>
        <pt x="335" y="714" on="0"/>
        <pt x="410" y="696" on="0"/>
        <pt x="464" y="654" on="0"/>
        <pt x="494" y="584" on="0"/>
        <pt x="494" y="533" on="1"/>
        <pt x="494" y="475" on="0"/>
        <pt x="440" y="392" on="0"/>
        <pt x="386" y="377" on="1"/>
        <pt x="386" y="375" on="1"/>
        <pt x="446" y="367" on="0"/>
        <pt x="516" y="281" on="0"/>
        <pt x="516" y="209" on="1"/>
        <pt x="516" y="167" on="0"/>
        <pt x="494" y="91" on="0"/>
        <pt x="441" y="34" on="0"/>
        <pt x="356" y="0" on="0"/>
        <pt x="293" y="0" on="1"/>
        <pt x="50" y="0" on="1"/>
      </contour>
    </TTGlyph>
    <TTGlyph name="C" xMin="35" yMin="-14" xMax="505" yMax="728">
      <contour>
        <pt x="355" y="473" on="1"/>
        <pt x="355" y="551" on="0"/>
        <pt x="318" y="622" on="0"/>
        <pt x="269" y="622" on="1"/>
        <pt x="242" y="622" on="0"/>
        <pt x="207" y="593" on="0"/>
        <pt x="187" y="528" on="0"/>
        <pt x="179" y="423" on="0"/>
        <pt x="179" y="347" on="1"/>
        <pt x="179" y="266" on="0"/>
        <pt x="190" y="166" on="0"/>
        <pt x="213" y="111" on="0"/>
        <pt x="248" y="92" on="0"/>
        <pt x="271" y="92" on="1"/>
        <pt x="290" y="92" on="0"/>
        <pt x="323" y="105" on="0"/>
        <pt x="347" y="144" on="0"/>
        <pt x="361" y="215" on="0"/>
        <pt x="361" y="273" on="1"/>
        <pt x="505" y="273" on="1"/>
        <pt x="505" y="215" on="0"/>
        <pt x="487" y="111" on="0"/>
        <pt x="438" y="32" on="0"/>
        <pt x="349" y="-14" on="0"/>
        <pt x="278" y="-14" on="1"/>
        <pt x="197" y="-14" on="0"/>
        <pt x="101" y="41" on="0"/>
        <pt x="50" y="139" on="0"/>
        <pt x="35" y="276" on="0"/>
        <pt x="35" y="357" on="1"/>
        <pt x="35" y="438" on="0"/>
        <pt x="50" y="575" on="0"/>
        <pt x="101" y="673" on="0"/>
        <pt x="197" y="728" on="0"/>
        <pt x="278" y="728" on="1"/>
        <pt x="355" y="728" on="0"/>
        <pt x="444" y="678" on="0"/>
        <pt x="488" y="601" on="0"/>
        <pt x="499" y="512" on="0"/>
        <pt x="499" y="473" on="1"/>
      </contour>
    </TTGlyph>
    <TTGlyph name="Cacute" xMin="35" yMin="-14" xMax="505" yMax="900">
      <component glyphName="C" x="0" y="0" flags="0x204"/>
      <component glyphName="acute" x="176" y="154" flags="0x4"/>
    </TTGlyph>
    <TTGlyph name="Ccaron" xMin="35" yMin="-14" xMax="505" yMax="900">
      <component glyphName="C" x="0" y="0" flags="0x204"/>
      <component glyphName="caron" x="164" y="154" flags="0x4"/>
    </TTGlyph>
    <TTGlyph name="Ccedilla" xMin="35" yMin="-217" xMax="505" yMax="728">
      <contour>
        <pt x="355" y="473" on="1"/>
        <pt x="355" y="551" on="0"/>
        <pt x="318" y="622" on="0"/>
        <pt x="269" y="622" on="1"/>
        <pt x="242" y="622" on="0"/>
        <pt x="207" y="593" on="0"/>
        <pt x="187" y="528" on="0"/>
        <pt x="179" y="423" on="0"/>
        <pt x="179" y="347" on="1"/>
        <pt x="179" y="266" on="0"/>
        <pt x="190" y="166" on="0"/>
        <pt x="213" y="111" on="0"/>
        <pt x="248" y="92" on="0"/>
        <pt x="271" y="92" on="1"/>
        <pt x="290" y="92" on="0"/>
        <pt x="323" y="105" on="0"/>
        <pt x="347" y="144" on="0"/>
        <pt x="361" y="215" on="0"/>
        <pt x="361" y="273" on="1"/>
        <pt x="505" y="273" on="1"/>
        <pt x="505" y="229" on="0"/>
        <pt x="496" y="149" on="0"/>
        <pt x="471" y="80" on="0"/>
        <pt x="427" y="26" on="0"/>
        <pt x="393" y="9" on="1"/>
        <pt x="353" y="-11" on="0"/>
        <pt x="295" y="-14" on="1"/>
        <pt x="266" y="-58" on="1"/>
        <pt x="275" y="-55" on="0"/>
        <pt x="290" y="-53" on="0"/>
        <pt x="299" y="-53" on="1"/>
        <pt x="315" y="-53" on="0"/>
        <pt x="346" y="-62" on="0"/>
        <pt x="370" y="-80" on="0"/>
        <pt x="384" y="-107" on="0"/>
        <pt x="383" y="-125" on="1"/>
        <pt x="383" y="-170" on="0"/>
        <pt x="318" y="-217" on="0"/>
        <pt x="257" y="-217" on="1"/>
        <pt x="224" y="-217" on="0"/>
        <pt x="169" y="-205" on="0"/>
        <pt x="157" y="-198" on="1"/>
        <pt x="176" y="-152" on="1"/>
        <pt x="187" y="-158" on="0"/>
        <pt x="226" y="-167" on="0"/>
        <pt x="245" y="-167" on="1"/>
        <pt x="266" y="-167" on="0"/>
        <pt x="295" y="-149" on="0"/>
        <pt x="295" y="-134" on="1"/>
        <pt x="295" y="-119" on="0"/>
        <pt x="271" y="-103" on="0"/>
        <pt x="251" y="-102" on="1"/>
        <pt x="240" y="-102" on="0"/>
        <pt x="225" y="-105" on="0"/>
        <pt x="217" y="-108" on="1"/>
        <pt x="195" y="-88" on="1"/>
        <pt x="244" y="-12" on="1"/>
        <pt x="186" y="-8" on="0"/>
        <pt x="149" y="13" on="1"/>
        <pt x="112" y="34" on="0"/>
        <pt x="67" y="101" on="0"/>
        <pt x="43" y="188" on="0"/>
        <pt x="35" y="295" on="0"/>
        <pt x="35" y="357" on="1"/>
        <pt x="35" y="438" on="0"/>
        <pt x="50" y="575" on="0"/>
        <pt x="101" y="673" on="0"/>
        <pt x="197" y="728" on="0"/>
        <pt x="278" y="728" on="1"/>
        <pt x="355" y="728" on="0"/>
        <pt x="444" y="678" on="0"/>
        <pt x="488" y="601" on="0"/>
        <pt x="499" y="512" on="0"/>
        <pt x="499" y="473" on="1"/>
      </contour>
    </TTGlyph>
    <TTGlyph name="Ccircumflex" xMin="35" yMin="-14" xMax="505" yMax="900">
      <component glyphName="C" x="0" y="0" flags="0x204"/>
      <component glyphName="circumflex" x="165" y="154" flags="0x4"/>
    </TTGlyph>
    <TTGlyph name="Cdotaccent" xMin="35" yMin="-14" xMax="505" yMax="887">
      <component glyphName="C" x="0" y="0" flags="0x204"/>
      <component glyphName="dotaccent" x="164" y="154" flags="0x4"/>
    </TTGlyph>
    <TTGlyph name="D" xMin="57" yMin="0" xMax="529" yMax="714">
      <contour>
        <pt x="201" y="106" on="1"/>
        <pt x="265" y="106" on="1"/>
        <pt x="302" y="106" on="0"/>
        <pt x="349" y="132" on="0"/>
        <pt x="376" y="192" on="0"/>
        <pt x="385" y="290" on="0"/>
        <pt x="385" y="363" on="1"/>
        <pt x="385" y="424" on="0"/>
        <pt x="377" y="515" on="0"/>
        <pt x="352" y="577" on="0"/>
        <pt x="303" y="608" on="0"/>
        <pt x="262" y="608" on="1"/>
        <pt x="201" y="608" on="1"/>
      </contour>
      <contour>
        <pt x="57" y="714" on="1"/>
        <pt x="293" y="714" on="1"/>
        <pt x="368" y="714" on="0"/>
        <pt x="460" y="665" on="0"/>
        <pt x="511" y="574" on="0"/>
        <pt x="529" y="446" on="0"/>
        <pt x="529" y="367" on="1"/>
        <pt x="529" y="272" on="0"/>
        <pt x="506" y="134" on="0"/>
        <pt x="450" y="44" on="0"/>
        <pt x="356" y="0" on="0"/>
        <pt x="284" y="0" on="1"/>
        <pt x="57" y="0" on="1"/>
      </contour>
    </TTGlyph>
    <TTGlyph name="Dcaron" xMin="57" yMin="0" xMax="529" yMax="900">
      <component glyphName="D" x="0" y="0" flags="0x204"/>
      <component glyphName="caron" x="145" y="154" flags="0x4"/>
    </TTGlyph>
    <TTGlyph name="Dcroat" xMin="0" yMin="0" xMax="529" yMax="714">
      <contour>
        <pt x="201" y="421" on="1"/>
        <pt x="294" y="421" on="1"/>
        <pt x="294" y="315" on="1"/>
        <pt x="201" y="315" on="1"/>
        <pt x="201" y="106" on="1"/>
        <pt x="265" y="106" on="1"/>
        <pt x="302" y="106" on="0"/>
        <pt x="349" y="132" on="0"/>
        <pt x="376" y="192" on="0"/>
        <pt x="385" y="290" on="0"/>
        <pt x="385" y="363" on="1"/>
        <pt x="385" y="424" on="0"/>
        <pt x="377" y="515" on="0"/>
        <pt x="352" y="577" on="0"/>
        <pt x="303" y="608" on="0"/>
        <pt x="262" y="608" on="1"/>
        <pt x="201" y="608" on="1"/>
      </contour>
      <contour>
        <pt x="57" y="315" on="1"/>
        <pt x="0" y="315" on="1"/>
        <pt x="0" y="421" on="1"/>
        <pt x="57" y="421" on="1"/>
        <pt x="57" y="714" on="1"/>
        <pt x="293" y="714" on="1"/>
        <pt x="368" y="714" on="0"/>
        <pt x="460" y="665" on="0"/>
        <pt x="511" y="574" on="0"/>
        <pt x="529" y="446" on="0"/>
        <pt x="529" y="367" on="1"/>
        <pt x="529" y="272" on="0"/>
        <pt x="506" y="134" on="0"/>
        <pt x="450" y="44" on="0"/>
        <pt x="356" y="0" on="0"/>
        <pt x="284" y="0" on="1"/>
        <pt x="57" y="0" on="1"/>
      </contour>
    </TTGlyph>
    <TTGlyph name="Delta" xMin="9" yMin="0" xMax="681" yMax="712">
      <contour>
        <pt x="9" y="0" on="1"/>
        <pt x="276" y="712" on="1"/>
        <pt x="398" y="712" on="1"/>
        <pt x="681" y="0" on="1"/>
      </contour>
      <contour>
        <pt x="336" y="576" on="1"/>
        <pt x="168" y="109" on="1"/>
        <pt x="516" y="109" on="1"/>
      </contour>
    </TTGlyph>
    <TTGlyph name="E" xMin="50" yMin="0" xMax="459" yMax="714">
      <contour>
        <pt x="449" y="714" on="1"/>
        <pt x="449" y="596" on="1"/>
        <pt x="194" y="596" on="1"/>
        <pt x="194" y="428" on="1"/>
        <pt x="434" y="428" on="1"/>
        <pt x="434" y="310" on="1"/>
        <pt x="194" y="310" on="1"/>
        <pt x="194" y="118" on="1"/>
        <pt x="459" y="118" on="1"/>
        <pt x="459" y="0" on="1"/>
        <pt x="50" y="0" on="1"/>
        <pt x="50" y="714" on="1"/>
      </contour>
    </TTGlyph>
    <TTGlyph name="Eacute" xMin="50" yMin="0" xMax="459" yMax="900">
      <component glyphName="E" x="0" y="0" flags="0x204"/>
      <component glyphName="acute" x="153" y="154" flags="0x4"/>
    </TTGlyph>
    <TTGlyph name="Ebreve" xMin="50" yMin="0" xMax="459" yMax="899">
      <component glyphName="E" x="0" y="0" flags="0x204"/>
      <component glyphName="breve" x="136" y="154" flags="0x4"/>
    </TTGlyph>
    <TTGlyph name="Ecaron" xMin="50" yMin="0" xMax="459" yMax="900">
      <component glyphName="E" x="0" y="0" flags="0x204"/>
      <component glyphName="caron" x="142" y="154" flags="0x4"/>
    </TTGlyph>
    <TTGlyph name="Ecircumflex" xMin="50" yMin="0" xMax="459" yMax="900">
      <component glyphName="E" x="0" y="0" flags="0x204"/>
      <component glyphName="circumflex" x="140" y="154" flags="0x4"/>
    </TTGlyph>
    <TTGlyph name="Edieresis" xMin="50" yMin="0" xMax="459" yMax="887">
      <component glyphName="E" x="0" y="0" flags="0x204"/>
      <component glyphName="dieresis" x="137" y="154" flags="0x4"/>
    </TTGlyph>
    <TTGlyph name="Edotaccent" xMin="50" yMin="0" xMax="459" yMax="887">
      <component glyphName="E" x="0" y="0" flags="0x204"/>
      <component glyphName="dotaccent" x="141" y="154" flags="0x4"/>
    </TTGlyph>
    <TTGlyph name="Egrave" xMin="50" yMin="0" xMax="459" yMax="900">
      <component glyphName="E" x="0" y="0" flags="0x204"/>
      <component glyphName="grave" x="143" y="154" flags="0x4"/>
    </TTGlyph>
    <TTGlyph name="Emacron" xMin="50" yMin="0" xMax="459" yMax="866">
      <component glyphName="E" x="0" y="0" flags="0x204"/>
      <component glyphName="macron" x="140" y="154" flags="0x4"/>
    </TTGlyph>
    <TTGlyph name="Eogonek" xMin="50" yMin="-217" xMax="459" yMax="714">
      <contour>
        <pt x="459" y="-182" on="1"/>
        <pt x="431" y="-202" on="0"/>
        <pt x="380" y="-217" on="0"/>
        <pt x="345" y="-217" on="1"/>
        <pt x="316" y="-217" on="0"/>
        <pt x="278" y="-202" on="0"/>
        <pt x="257" y="-180" on="0"/>
        <pt x="249" y="-152" on="0"/>
        <pt x="249" y="-138" on="1"/>
        <pt x="249" y="-101" on="0"/>
        <pt x="315" y="-26" on="0"/>
        <pt x="372" y="0" on="1"/>
        <pt x="50" y="0" on="1"/>
        <pt x="50" y="714" on="1"/>
        <pt x="449" y="714" on="1"/>
        <pt x="449" y="596" on="1"/>
        <pt x="194" y="596" on="1"/>
        <pt x="194" y="428" on="1"/>
        <pt x="434" y="428" on="1"/>
        <pt x="434" y="310" on="1"/>
        <pt x="194" y="310" on="1"/>
        <pt x="194" y="118" on="1"/>
        <pt x="459" y="118" on="1"/>
        <pt x="459" y="0" on="1"/>
        <pt x="439" y="0" on="1"/>
        <pt x="408" y="-23" on="0"/>
        <pt x="369" y="-58" on="0"/>
        <pt x="346" y="-86" on="0"/>
        <pt x="338" y="-110" on="0"/>
        <pt x="338" y="-122" on="1"/>
        <pt x="338" y="-153" on="0"/>
        <pt x="366" y="-153" on="1"/>
        <pt x="380" y="-153" on="0"/>
        <pt x="407" y="-146" on="0"/>
        <pt x="429" y="-133" on="1"/>
      </contour>
    </TTGlyph>
    <TTGlyph name="Eth" xMin="0" yMin="0" xMax="529" yMax="714">
      <contour>
        <pt x="201" y="421" on="1"/>
        <pt x="294" y="421" on="1"/>
        <pt x="294" y="315" on="1"/>
        <pt x="201" y="315" on="1"/>
        <pt x="201" y="106" on="1"/>
        <pt x="265" y="106" on="1"/>
        <pt x="302" y="106" on="0"/>
        <pt x="349" y="132" on="0"/>
        <pt x="376" y="192" on="0"/>
        <pt x="385" y="290" on="0"/>
        <pt x="385" y="363" on="1"/>
        <pt x="385" y="424" on="0"/>
        <pt x="377" y="515" on="0"/>
        <pt x="352" y="577" on="0"/>
        <pt x="303" y="608" on="0"/>
        <pt x="262" y="608" on="1"/>
        <pt x="201" y="608" on="1"/>
      </contour>
      <contour>
        <pt x="57" y="315" on="1"/>
        <pt x="0" y="315" on="1"/>
        <pt x="0" y="421" on="1"/>
        <pt x="57" y="421" on="1"/>
        <pt x="57" y="714" on="1"/>
        <pt x="293" y="714" on="1"/>
        <pt x="368" y="714" on="0"/>
        <pt x="460" y="665" on="0"/>
        <pt x="511" y="574" on="0"/>
        <pt x="529" y="446" on="0"/>
        <pt x="529" y="367" on="1"/>
        <pt x="529" y="272" on="0"/>
        <pt x="506" y="134" on="0"/>
        <pt x="450" y="44" on="0"/>
        <pt x="356" y="0" on="0"/>
        <pt x="284" y="0" on="1"/>
        <pt x="57" y="0" on="1"/>
      </contour>
    </TTGlyph>
    <TTGlyph name="Euro" xMin="26" yMin="-14" xMax="479" yMax="711">
      <contour>
        <pt x="433" y="561" on="1"/>
        <pt x="385" y="612" on="0"/>
        <pt x="334" y="612" on="1"/>
        <pt x="277" y="612" on="0"/>
        <pt x="256" y="563" on="1"/>
        <pt x="249" y="548" on="0"/>
        <pt x="241" y="499" on="0"/>
        <pt x="239" y="465" on="1"/>
        <pt x="407" y="465" on="1"/>
        <pt x="378" y="387" on="1"/>
        <pt x="236" y="387" on="1"/>
        <pt x="236" y="336" on="1"/>
        <pt x="368" y="336" on="1"/>
        <pt x="339" y="258" on="1"/>
        <pt x="238" y="258" on="1"/>
        <pt x="241" y="178" on="0"/>
        <pt x="251" y="150" on="1"/>
        <pt x="270" y="89" on="0"/>
        <pt x="327" y="89" on="1"/>
        <pt x="380" y="89" on="0"/>
        <pt x="456" y="156" on="1"/>
        <pt x="456" y="31" on="1"/>
        <pt x="379" y="-14" on="0"/>
        <pt x="305" y="-14" on="1"/>
        <pt x="103" y="-14" on="0"/>
        <pt x="95" y="258" on="1"/>
        <pt x="26" y="258" on="1"/>
        <pt x="55" y="336" on="1"/>
        <pt x="93" y="336" on="1"/>
        <pt x="94" y="387" on="1"/>
        <pt x="26" y="387" on="1"/>
        <pt x="56" y="465" on="1"/>
        <pt x="97" y="465" on="1"/>
        <pt x="118" y="711" on="0"/>
        <pt x="325" y="711" on="1"/>
        <pt x="414" y="711" on="0"/>
        <pt x="479" y="661" on="1"/>
      </contour>
    </TTGlyph>
    <TTGlyph name="F" xMin="50" yMin="0" xMax="449" yMax="714">
      <contour>
        <pt x="50" y="714" on="1"/>
        <pt x="449" y="714" on="1"/>
        <pt x="449" y="596" on="1"/>
        <pt x="194" y="596" on="1"/>
        <pt x="194" y="428" on="1"/>
        <pt x="434" y="428" on="1"/>
        <pt x="434" y="310" on="1"/>
        <pt x="194" y="310" on="1"/>
        <pt x="194" y="0" on="1"/>
        <pt x="50" y="0" on="1"/>
      </contour>
    </TTGlyph>
    <TTGlyph name="G" xMin="43" yMin="-14" xMax="513" yMax="728">
      <contour>
        <pt x="367" y="502" on="1"/>
        <pt x="367" y="521" on="0"/>
        <pt x="358" y="564" on="0"/>
        <pt x="338" y="599" on="0"/>
        <pt x="307" y="622" on="0"/>
        <pt x="285" y="622" on="1"/>
        <pt x="233" y="622" on="0"/>
        <pt x="187" y="506" on="0"/>
        <pt x="187" y="372" on="1"/>
        <pt x="187" y="307" on="0"/>
        <pt x="195" y="204" on="0"/>
        <pt x="216" y="131" on="0"/>
        <pt x="255" y="92" on="0"/>
        <pt x="286" y="92" on="1"/>
        <pt x="299" y="92" on="0"/>
        <pt x="330" y="106" on="0"/>
        <pt x="357" y="134" on="0"/>
        <pt x="375" y="177" on="0"/>
        <pt x="375" y="206" on="1"/>
        <pt x="375" y="279" on="1"/>
        <pt x="280" y="279" on="1"/>
        <pt x="280" y="385" on="1"/>
        <pt x="513" y="385" on="1"/>
        <pt x="513" y="0" on="1"/>
        <pt x="407" y="0" on="1"/>
        <pt x="407" y="66" on="1"/>
        <pt x="405" y="66" on="1"/>
        <pt x="379" y="24" on="0"/>
        <pt x="306" y="-14" on="0"/>
        <pt x="255" y="-14" on="1"/>
        <pt x="189" y="-14" on="0"/>
        <pt x="106" y="35" on="0"/>
        <pt x="59" y="131" on="0"/>
        <pt x="43" y="272" on="0"/>
        <pt x="43" y="365" on="1"/>
        <pt x="43" y="455" on="0"/>
        <pt x="66" y="591" on="0"/>
        <pt x="122" y="682" on="0"/>
        <pt x="214" y="728" on="0"/>
        <pt x="283" y="728" on="1"/>
        <pt x="401" y="728" on="0"/>
        <pt x="505" y="611" on="0"/>
        <pt x="505" y="502" on="1"/>
      </contour>
    </TTGlyph>
    <TTGlyph name="Gbreve" xMin="43" yMin="-14" xMax="513" yMax="899">
      <component glyphName="G" x="0" y="0" flags="0x204"/>
      <component glyphName="breve" x="173" y="154" flags="0x4"/>
    </TTGlyph>
    <TTGlyph name="Gcircumflex" xMin="43" yMin="-14" xMax="513" yMax="900">
      <component glyphName="G" x="0" y="0" flags="0x204"/>
      <component glyphName="circumflex" x="176" y="154" flags="0x4"/>
    </TTGlyph>
    <TTGlyph name="Gcommaaccent" xMin="43" yMin="-253" xMax="513" yMax="728">
      <component glyphName="G" x="0" y="0" flags="0x204"/>
      <component glyphName="commaaccent" x="159" y="0" flags="0x4"/>
    </TTGlyph>
    <TTGlyph name="Gdotaccent" xMin="43" yMin="-14" xMax="513" yMax="887">
      <component glyphName="G" x="0" y="0" flags="0x204"/>
      <component glyphName="dotaccent" x="175" y="154" flags="0x4"/>
    </TTGlyph>
    <TTGlyph name="H" xMin="50" yMin="0" xMax="506" yMax="714">
      <contour>
        <pt x="50" y="714" on="1"/>
        <pt x="194" y="714" on="1"/>
        <pt x="194" y="441" on="1"/>
        <pt x="362" y="441" on="1"/>
        <pt x="362" y="714" on="1"/>
        <pt x="506" y="714" on="1"/>
        <pt x="506" y="0" on="1"/>
        <pt x="362" y="0" on="1"/>
        <pt x="362" y="317" on="1"/>
        <pt x="194" y="317" on="1"/>
        <pt x="194" y="0" on="1"/>
        <pt x="50" y="0" on="1"/>
      </contour>
    </TTGlyph>
    <TTGlyph name="Hbar" xMin="50" yMin="0" xMax="506" yMax="714">
      <contour>
        <pt x="50" y="714" on="1"/>
        <pt x="194" y="714" on="1"/>
        <pt x="194" y="568" on="1"/>
        <pt x="362" y="568" on="1"/>
        <pt x="362" y="714" on="1"/>
        <pt x="506" y="714" on="1"/>
        <pt x="506" y="0" on="1"/>
        <pt x="362" y="0" on="1"/>
        <pt x="362" y="300" on="1"/>
        <pt x="194" y="300" on="1"/>
        <pt x="194" y="0" on="1"/>
        <pt x="50" y="0" on="1"/>
      </contour>
      <contour>
        <pt x="362" y="420" on="1"/>
        <pt x="362" y="507" on="1"/>
        <pt x="194" y="507" on="1"/>
        <pt x="194" y="420" on="1"/>
      </contour>
    </TTGlyph>
    <TTGlyph name="Hcircumflex" xMin="50" yMin="0" xMax="506" yMax="900">
      <component glyphName="H" x="0" y="0" flags="0x204"/>
      <component glyphName="circumflex" x="168" y="154" flags="0x4"/>
    </TTGlyph>
    <TTGlyph name="I" xMin="57" yMin="0" xMax="201" yMax="714">
      <contour>
        <pt x="57" y="0" on="1"/>
        <pt x="57" y="714" on="1"/>
        <pt x="201" y="714" on="1"/>
        <pt x="201" y="0" on="1"/>
      </contour>
    </TTGlyph>
    <TTGlyph name="IJ" xMin="57" yMin="-14" xMax="675" yMax="714">
      <component glyphName="I" x="0" y="0" flags="0x4"/>
      <component glyphName="J" x="256" y="0" flags="0x4"/>
    </TTGlyph>
    <TTGlyph name="Iacute" xMin="57" yMin="0" xMax="250" yMax="900">
      <component glyphName="I" x="0" y="0" flags="0x204"/>
      <component glyphName="acute" x="12" y="154" flags="0x4"/>
    </TTGlyph>
    <TTGlyph name="Icircumflex" xMin="-19" yMin="0" xMax="281" yMax="900">
      <component glyphName="I" x="0" y="0" flags="0x204"/>
      <component glyphName="circumflex" x="20" y="154" flags="0x4"/>
    </TTGlyph>
    <TTGlyph name="Idieresis" xMin="-12" yMin="0" xMax="272" yMax="887">
      <component glyphName="I" x="0" y="0" flags="0x204"/>
      <component glyphName="dieresis" x="19" y="154" flags="0x4"/>
    </TTGlyph>
    <TTGlyph name="Idotaccent" xMin="57" yMin="0" xMax="201" yMax="887">
      <component glyphName="I" x="0" y="0" flags="0x204"/>
      <component glyphName="dotaccent" x="18" y="154" flags="0x4"/>
    </TTGlyph>
    <TTGlyph name="Igrave" xMin="10" yMin="0" xMax="202" yMax="900">
      <component glyphName="I" x="0" y="0" flags="0x204"/>
      <component glyphName="grave" x="26" y="154" flags="0x4"/>
    </TTGlyph>
    <TTGlyph name="Imacron" xMin="-17" yMin="0" xMax="277" yMax="866">
      <component glyphName="I" x="0" y="0" flags="0x204"/>
      <component glyphName="macron" x="19" y="154" flags="0x4"/>
    </TTGlyph>
    <TTGlyph name="Iogonek" xMin="11" yMin="-217" xMax="221" yMax="714">
      <contour>
        <pt x="221" y="-182" on="1"/>
        <pt x="193" y="-202" on="0"/>
        <pt x="142" y="-217" on="0"/>
        <pt x="107" y="-217" on="1"/>
        <pt x="78" y="-217" on="0"/>
        <pt x="40" y="-202" on="0"/>
        <pt x="19" y="-180" on="0"/>
        <pt x="11" y="-152" on="0"/>
        <pt x="11" y="-138" on="1"/>
        <pt x="11" y="-101" on="0"/>
        <pt x="77" y="-26" on="0"/>
        <pt x="134" y="0" on="1"/>
        <pt x="57" y="0" on="1"/>
        <pt x="57" y="714" on="1"/>
        <pt x="201" y="714" on="1"/>
        <pt x="201" y="0" on="1"/>
        <pt x="170" y="-23" on="0"/>
        <pt x="131" y="-58" on="0"/>
        <pt x="108" y="-86" on="0"/>
        <pt x="100" y="-110" on="0"/>
        <pt x="100" y="-122" on="1"/>
        <pt x="100" y="-153" on="0"/>
        <pt x="128" y="-153" on="1"/>
        <pt x="142" y="-153" on="0"/>
        <pt x="169" y="-146" on="0"/>
        <pt x="191" y="-133" on="1"/>
      </contour>
    </TTGlyph>
    <TTGlyph name="Itilde" xMin="-27" yMin="0" xMax="287" yMax="891">
      <component glyphName="I" x="0" y="0" flags="0x204"/>
      <component glyphName="tilde" x="19" y="154" flags="0x4"/>
    </TTGlyph>
    <TTGlyph name="J" xMin="15" yMin="-14" xMax="419" yMax="714">
      <contour>
        <pt x="419" y="714" on="1"/>
        <pt x="419" y="200" on="1"/>
        <pt x="419" y="86" on="0"/>
        <pt x="313" y="-14" on="0"/>
        <pt x="204" y="-14" on="1"/>
        <pt x="147" y="-14" on="0"/>
        <pt x="74" y="20" on="0"/>
        <pt x="31" y="77" on="0"/>
        <pt x="15" y="153" on="0"/>
        <pt x="15" y="195" on="1"/>
        <pt x="15" y="226" on="1"/>
        <pt x="147" y="226" on="1"/>
        <pt x="147" y="204" on="1"/>
        <pt x="147" y="147" on="0"/>
        <pt x="172" y="92" on="0"/>
        <pt x="211" y="92" on="1"/>
        <pt x="250" y="92" on="0"/>
        <pt x="275" y="147" on="0"/>
        <pt x="275" y="204" on="1"/>
        <pt x="275" y="714" on="1"/>
      </contour>
    </TTGlyph>
    <TTGlyph name="Jcircumflex" xMin="15" yMin="-14" xMax="496" yMax="900">
      <component glyphName="J" x="0" y="0" flags="0x204"/>
      <component glyphName="circumflex" x="235" y="154" flags="0x4"/>
    </TTGlyph>
    <TTGlyph name="K" xMin="50" yMin="0" xMax="556" yMax="714">
      <contour>
        <pt x="194" y="714" on="1"/>
        <pt x="194" y="428" on="1"/>
        <pt x="196" y="428" on="1"/>
        <pt x="378" y="714" on="1"/>
        <pt x="534" y="714" on="1"/>
        <pt x="340" y="408" on="1"/>
        <pt x="556" y="0" on="1"/>
        <pt x="394" y="0" on="1"/>
        <pt x="247" y="293" on="1"/>
        <pt x="194" y="212" on="1"/>
        <pt x="194" y="0" on="1"/>
        <pt x="50" y="0" on="1"/>
        <pt x="50" y="714" on="1"/>
      </contour>
    </TTGlyph>
    <TTGlyph name="Kcommaaccent" xMin="50" yMin="-253" xMax="556" yMax="714">
      <component glyphName="K" x="0" y="0" flags="0x204"/>
      <component glyphName="commaaccent" x="167" y="0" flags="0x4"/>
    </TTGlyph>
    <TTGlyph name="L" xMin="50" yMin="0" xMax="449" yMax="714">
      <contour>
        <pt x="50" y="0" on="1"/>
        <pt x="50" y="714" on="1"/>
        <pt x="194" y="714" on="1"/>
        <pt x="194" y="118" on="1"/>
        <pt x="449" y="118" on="1"/>
        <pt x="449" y="0" on="1"/>
      </contour>
    </TTGlyph>
    <TTGlyph name="Lacute" xMin="50" yMin="0" xMax="449" yMax="900">
      <component glyphName="L" x="0" y="0" flags="0x204"/>
      <component glyphName="acute" x="24" y="154" flags="0x4"/>
    </TTGlyph>
    <TTGlyph name="Lcaron" xMin="50" yMin="0" xMax="449" yMax="714">
      <component glyphName="L" x="0" y="0" flags="0x204"/>
      <component glyphName="caron.alt" x="199" y="0" flags="0x4"/>
    </TTGlyph>
    <TTGlyph name="Lcommaaccent" xMin="50" yMin="-253" xMax="449" yMax="714">
      <component glyphName="L" x="0" y="0" flags="0x204"/>
      <component glyphName="commaaccent" x="131" y="0" flags="0x4"/>
    </TTGlyph>
    <TTGlyph name="Ldot" xMin="50" yMin="0" xMax="449" yMax="714">
      <component glyphName="L" x="0" y="0" flags="0x204"/>
      <component glyphName="dotaccent" x="212" y="-194" flags="0x4"/>
    </TTGlyph>
    <TTGlyph name="Lslash" xMin="0" yMin="0" xMax="449" yMax="714">
      <contour>
        <pt x="50" y="256" on="1"/>
        <pt x="0" y="225" on="1"/>
        <pt x="0" y="331" on="1"/>
        <pt x="50" y="362" on="1"/>
        <pt x="50" y="714" on="1"/>
        <pt x="194" y="714" on="1"/>
        <pt x="194" y="452" on="1"/>
        <pt x="320" y="531" on="1"/>
        <pt x="320" y="425" on="1"/>
        <pt x="194" y="346" on="1"/>
        <pt x="194" y="118" on="1"/>
        <pt x="449" y="118" on="1"/>
        <pt x="449" y="0" on="1"/>
        <pt x="50" y="0" on="1"/>
      </contour>
    </TTGlyph>
    <TTGlyph name="M" xMin="53" yMin="0" xMax="687" yMax="714">
      <contour>
        <pt x="53" y="714" on="1"/>
        <pt x="267" y="714" on="1"/>
        <pt x="369" y="210" on="1"/>
        <pt x="371" y="210" on="1"/>
        <pt x="474" y="714" on="1"/>
        <pt x="687" y="714" on="1"/>
        <pt x="687" y="0" on="1"/>
        <pt x="555" y="0" on="1"/>
        <pt x="555" y="570" on="1"/>
        <pt x="553" y="570" on="1"/>
        <pt x="426" y="0" on="1"/>
        <pt x="314" y="0" on="1"/>
        <pt x="187" y="570" on="1"/>
        <pt x="185" y="570" on="1"/>
        <pt x="185" y="0" on="1"/>
        <pt x="53" y="0" on="1"/>
      </contour>
    </TTGlyph>
    <TTGlyph name="N" xMin="50" yMin="0" xMax="524" yMax="714">
      <contour>
        <pt x="216" y="714" on="1"/>
        <pt x="390" y="225" on="1"/>
        <pt x="392" y="225" on="1"/>
        <pt x="392" y="714" on="1"/>
        <pt x="524" y="714" on="1"/>
        <pt x="524" y="0" on="1"/>
        <pt x="360" y="0" on="1"/>
        <pt x="184" y="500" on="1"/>
        <pt x="182" y="500" on="1"/>
        <pt x="182" y="0" on="1"/>
        <pt x="50" y="0" on="1"/>
        <pt x="50" y="714" on="1"/>
      </contour>
    </TTGlyph>
    <TTGlyph name="Nacute" xMin="50" yMin="0" xMax="524" yMax="900">
      <component glyphName="N" x="0" y="0" flags="0x204"/>
      <component glyphName="acute" x="192" y="154" flags="0x4"/>
    </TTGlyph>
    <TTGlyph name="Ncaron" xMin="50" yMin="0" xMax="524" yMax="900">
      <component glyphName="N" x="0" y="0" flags="0x204"/>
      <component glyphName="caron" x="176" y="154" flags="0x4"/>
    </TTGlyph>
    <TTGlyph name="Ncommaaccent" xMin="50" yMin="-253" xMax="524" yMax="714">
      <component glyphName="N" x="0" y="0" flags="0x204"/>
      <component glyphName="commaaccent" x="166" y="0" flags="0x4"/>
    </TTGlyph>
    <TTGlyph name="Ntilde" xMin="50" yMin="0" xMax="524" yMax="891">
      <component glyphName="N" x="0" y="0" flags="0x204"/>
      <component glyphName="tilde" x="178" y="154" flags="0x4"/>
    </TTGlyph>
    <TTGlyph name="O" xMin="35" yMin="-14" xMax="521" yMax="728">
      <contour>
        <pt x="35" y="357" on="1"/>
        <pt x="35" y="438" on="0"/>
        <pt x="50" y="575" on="0"/>
        <pt x="101" y="673" on="0"/>
        <pt x="197" y="728" on="0"/>
        <pt x="278" y="728" on="1"/>
        <pt x="359" y="728" on="0"/>
        <pt x="455" y="673" on="0"/>
        <pt x="506" y="575" on="0"/>
        <pt x="521" y="438" on="0"/>
        <pt x="521" y="357" on="1"/>
        <pt x="521" y="276" on="0"/>
        <pt x="506" y="139" on="0"/>
        <pt x="455" y="41" on="0"/>
        <pt x="359" y="-14" on="0"/>
        <pt x="278" y="-14" on="1"/>
        <pt x="197" y="-14" on="0"/>
        <pt x="101" y="41" on="0"/>
        <pt x="50" y="139" on="0"/>
        <pt x="35" y="276" on="0"/>
      </contour>
      <contour>
        <pt x="179" y="357" on="1"/>
        <pt x="179" y="285" on="0"/>
        <pt x="186" y="184" on="0"/>
        <pt x="207" y="121" on="0"/>
        <pt x="246" y="92" on="0"/>
        <pt x="278" y="92" on="1"/>
        <pt x="310" y="92" on="0"/>
        <pt x="349" y="121" on="0"/>
        <pt x="370" y="184" on="0"/>
        <pt x="377" y="285" on="0"/>
        <pt x="377" y="357" on="1"/>
        <pt x="377" y="429" on="0"/>
        <pt x="370" y="529" on="0"/>
        <pt x="349" y="593" on="0"/>
        <pt x="310" y="622" on="0"/>
        <pt x="278" y="622" on="1"/>
        <pt x="246" y="622" on="0"/>
        <pt x="207" y="593" on="0"/>
        <pt x="186" y="529" on="0"/>
        <pt x="179" y="429" on="0"/>
      </contour>
    </TTGlyph>
    <TTGlyph name="OE" xMin="35" yMin="-14" xMax="756" yMax="728">
      <contour>
        <pt x="179" y="357" on="1"/>
        <pt x="179" y="286" on="0"/>
        <pt x="185" y="185" on="0"/>
        <pt x="206" y="121" on="0"/>
        <pt x="245" y="92" on="0"/>
        <pt x="278" y="92" on="1"/>
        <pt x="310" y="92" on="0"/>
        <pt x="346" y="118" on="0"/>
        <pt x="364" y="180" on="0"/>
        <pt x="368" y="282" on="0"/>
        <pt x="368" y="357" on="1"/>
        <pt x="368" y="432" on="0"/>
        <pt x="364" y="534" on="0"/>
        <pt x="346" y="596" on="0"/>
        <pt x="310" y="622" on="0"/>
        <pt x="278" y="622" on="1"/>
        <pt x="245" y="622" on="0"/>
        <pt x="206" y="593" on="0"/>
        <pt x="185" y="529" on="0"/>
        <pt x="179" y="428" on="0"/>
      </contour>
      <contour>
        <pt x="748" y="596" on="1"/>
        <pt x="506" y="596" on="1"/>
        <pt x="506" y="428" on="1"/>
        <pt x="733" y="428" on="1"/>
        <pt x="733" y="310" on="1"/>
        <pt x="506" y="310" on="1"/>
        <pt x="506" y="118" on="1"/>
        <pt x="756" y="118" on="1"/>
        <pt x="756" y="0" on="1"/>
        <pt x="383" y="0" on="1"/>
        <pt x="383" y="41" on="1"/>
        <pt x="381" y="41" on="1"/>
        <pt x="375" y="28" on="0"/>
        <pt x="349" y="7" on="0"/>
        <pt x="314" y="-7" on="0"/>
        <pt x="276" y="-14" on="0"/>
        <pt x="258" y="-14" on="1"/>
        <pt x="180" y="-14" on="0"/>
        <pt x="90" y="51" on="0"/>
        <pt x="46" y="157" on="0"/>
        <pt x="35" y="294" on="0"/>
        <pt x="35" y="365" on="1"/>
        <pt x="35" y="434" on="0"/>
        <pt x="50" y="565" on="0"/>
        <pt x="96" y="667" on="0"/>
        <pt x="181" y="728" on="0"/>
        <pt x="251" y="728" on="1"/>
        <pt x="289" y="728" on="0"/>
        <pt x="363" y="706" on="0"/>
        <pt x="381" y="676" on="1"/>
        <pt x="383" y="676" on="1"/>
        <pt x="383" y="714" on="1"/>
        <pt x="748" y="714" on="1"/>
      </contour>
    </TTGlyph>
    <TTGlyph name="Oacute" xMin="35" yMin="-14" xMax="521" yMax="900">
      <component glyphName="O" x="0" y="0" flags="0x204"/>
      <component glyphName="acute" x="181" y="154" flags="0x4"/>
    </TTGlyph>
    <TTGlyph name="Obreve" xMin="35" yMin="-14" xMax="521" yMax="899">
      <component glyphName="O" x="0" y="0" flags="0x204"/>
      <component glyphName="breve" x="166" y="154" flags="0x4"/>
    </TTGlyph>
    <TTGlyph name="Ocircumflex" xMin="35" yMin="-14" xMax="521" yMax="900">
      <component glyphName="O" x="0" y="0" flags="0x204"/>
      <component glyphName="circumflex" x="169" y="154" flags="0x4"/>
    </TTGlyph>
    <TTGlyph name="Odieresis" xMin="35" yMin="-14" xMax="521" yMax="887">
      <component glyphName="O" x="0" y="0" flags="0x204"/>
      <component glyphName="dieresis" x="168" y="154" flags="0x4"/>
    </TTGlyph>
    <TTGlyph name="Ograve" xMin="35" yMin="-14" xMax="521" yMax="900">
      <component glyphName="O" x="0" y="0" flags="0x204"/>
      <component glyphName="grave" x="164" y="154" flags="0x4"/>
    </TTGlyph>
    <TTGlyph name="Ohungarumlaut" xMin="35" yMin="-14" xMax="521" yMax="900">
      <component glyphName="O" x="0" y="0" flags="0x204"/>
      <component glyphName="hungarumlaut" x="181" y="154" flags="0x4"/>
    </TTGlyph>
    <TTGlyph name="Omacron" xMin="35" yMin="-14" xMax="521" yMax="866">
      <component glyphName="O" x="0" y="0" flags="0x204"/>
      <component glyphName="macron" x="166" y="154" flags="0x4"/>
    </TTGlyph>
    <TTGlyph name="Omega" xMin="46" yMin="0" xMax="703" yMax="721">
      <contour>
        <pt x="425" y="0" on="1"/>
        <pt x="425" y="192" on="1"/>
        <pt x="502" y="210" on="0"/>
        <pt x="578" y="320" on="0"/>
        <pt x="578" y="397" on="1"/>
        <pt x="578" y="441" on="0"/>
        <pt x="549" y="519" on="0"/>
        <pt x="496" y="577" on="0"/>
        <pt x="421" y="611" on="0"/>
        <pt x="376" y="611" on="1"/>
        <pt x="330" y="611" on="0"/>
        <pt x="255" y="577" on="0"/>
        <pt x="201" y="518" on="0"/>
        <pt x="172" y="440" on="0"/>
        <pt x="172" y="396" on="1"/>
        <pt x="172" y="318" on="0"/>
        <pt x="248" y="212" on="0"/>
        <pt x="324" y="192" on="1"/>
        <pt x="324" y="0" on="1"/>
        <pt x="47" y="0" on="1"/>
        <pt x="47" y="102" on="1"/>
        <pt x="227" y="102" on="1"/>
        <pt x="227" y="141" on="1"/>
        <pt x="182" y="154" on="0"/>
        <pt x="114" y="206" on="0"/>
        <pt x="69" y="276" on="0"/>
        <pt x="46" y="360" on="0"/>
        <pt x="46" y="405" on="1"/>
        <pt x="46" y="475" on="0"/>
        <pt x="98" y="591" on="0"/>
        <pt x="187" y="675" on="0"/>
        <pt x="307" y="721" on="0"/>
        <pt x="375" y="721" on="1"/>
        <pt x="444" y="721" on="0"/>
        <pt x="563" y="676" on="0"/>
        <pt x="652" y="594" on="0"/>
        <pt x="703" y="478" on="0"/>
        <pt x="703" y="408" on="1"/>
        <pt x="703" y="363" on="0"/>
        <pt x="681" y="277" on="0"/>
        <pt x="636" y="206" on="0"/>
        <pt x="567" y="153" on="0"/>
        <pt x="521" y="141" on="1"/>
        <pt x="521" y="102" on="1"/>
        <pt x="703" y="102" on="1"/>
        <pt x="703" y="0" on="1"/>
      </contour>
    </TTGlyph>
    <TTGlyph name="Oslash" xMin="35" yMin="-51" xMax="521" yMax="765">
      <contour>
        <pt x="113" y="40" on="1"/>
        <pt x="88" y="63" on="0"/>
        <pt x="57" y="128" on="0"/>
        <pt x="41" y="209" on="0"/>
        <pt x="35" y="304" on="0"/>
        <pt x="35" y="357" on="1"/>
        <pt x="35" y="438" on="0"/>
        <pt x="50" y="575" on="0"/>
        <pt x="101" y="673" on="0"/>
        <pt x="197" y="728" on="0"/>
        <pt x="278" y="728" on="1"/>
        <pt x="351" y="728" on="0"/>
        <pt x="399" y="704" on="1"/>
        <pt x="425" y="765" on="1"/>
        <pt x="473" y="744" on="1"/>
        <pt x="443" y="674" on="1"/>
        <pt x="468" y="651" on="0"/>
        <pt x="499" y="586" on="0"/>
        <pt x="515" y="505" on="0"/>
        <pt x="521" y="410" on="0"/>
        <pt x="521" y="357" on="1"/>
        <pt x="521" y="276" on="0"/>
        <pt x="506" y="139" on="0"/>
        <pt x="455" y="41" on="0"/>
        <pt x="359" y="-14" on="0"/>
        <pt x="278" y="-14" on="1"/>
        <pt x="203" y="-14" on="0"/>
        <pt x="157" y="10" on="1"/>
        <pt x="131" y="-51" on="1"/>
        <pt x="83" y="-30" on="1"/>
      </contour>
      <contour>
        <pt x="208" y="129" on="1"/>
        <pt x="227" y="92" on="0"/>
        <pt x="278" y="92" on="1"/>
        <pt x="310" y="92" on="0"/>
        <pt x="349" y="121" on="0"/>
        <pt x="370" y="184" on="0"/>
        <pt x="377" y="285" on="0"/>
        <pt x="377" y="357" on="1"/>
        <pt x="377" y="403" on="0"/>
        <pt x="375" y="476" on="0"/>
        <pt x="371" y="505" on="1"/>
        <pt x="369" y="505" on="1"/>
      </contour>
      <contour>
        <pt x="348" y="586" on="1"/>
        <pt x="325" y="622" on="0"/>
        <pt x="278" y="622" on="1"/>
        <pt x="246" y="622" on="0"/>
        <pt x="207" y="593" on="0"/>
        <pt x="186" y="529" on="0"/>
        <pt x="179" y="429" on="0"/>
        <pt x="179" y="357" on="1"/>
        <pt x="179" y="309" on="0"/>
        <pt x="181" y="237" on="0"/>
        <pt x="185" y="209" on="1"/>
        <pt x="187" y="209" on="1"/>
      </contour>
    </TTGlyph>
    <TTGlyph name="Otilde" xMin="35" yMin="-14" xMax="521" yMax="891">
      <component glyphName="O" x="0" y="0" flags="0x204"/>
      <component glyphName="tilde" x="166" y="154" flags="0x4"/>
    </TTGlyph>
    <TTGlyph name="P" xMin="50" yMin="0" xMax="498" yMax="714">
      <contour>
        <pt x="194" y="391" on="1"/>
        <pt x="258" y="391" on="1"/>
        <pt x="301" y="391" on="0"/>
        <pt x="354" y="443" on="0"/>
        <pt x="354" y="498" on="1"/>
        <pt x="354" y="552" on="0"/>
        <pt x="308" y="608" on="0"/>
        <pt x="254" y="608" on="1"/>
        <pt x="194" y="608" on="1"/>
      </contour>
      <contour>
        <pt x="50" y="714" on="1"/>
        <pt x="302" y="714" on="1"/>
        <pt x="357" y="714" on="0"/>
        <pt x="432" y="677" on="0"/>
        <pt x="478" y="617" on="0"/>
        <pt x="498" y="540" on="0"/>
        <pt x="498" y="500" on="1"/>
        <pt x="498" y="444" on="0"/>
        <pt x="465" y="363" on="0"/>
        <pt x="406" y="311" on="0"/>
        <pt x="322" y="285" on="0"/>
        <pt x="271" y="285" on="1"/>
        <pt x="194" y="285" on="1"/>
        <pt x="194" y="0" on="1"/>
        <pt x="50" y="0" on="1"/>
      </contour>
    </TTGlyph>
    <TTGlyph name="Q" xMin="35" yMin="-88" xMax="543" yMax="728">
      <contour>
        <pt x="179" y="357" on="1"/>
        <pt x="179" y="285" on="0"/>
        <pt x="186" y="184" on="0"/>
        <pt x="207" y="121" on="0"/>
        <pt x="246" y="92" on="0"/>
        <pt x="278" y="92" on="1"/>
        <pt x="310" y="92" on="0"/>
        <pt x="349" y="121" on="0"/>
        <pt x="370" y="184" on="0"/>
        <pt x="377" y="285" on="0"/>
        <pt x="377" y="357" on="1"/>
        <pt x="377" y="429" on="0"/>
        <pt x="370" y="529" on="0"/>
        <pt x="349" y="593" on="0"/>
        <pt x="310" y="622" on="0"/>
        <pt x="278" y="622" on="1"/>
        <pt x="246" y="622" on="0"/>
        <pt x="207" y="593" on="0"/>
        <pt x="186" y="529" on="0"/>
        <pt x="179" y="429" on="0"/>
      </contour>
      <contour>
        <pt x="458" y="-88" on="1"/>
        <pt x="373" y="0" on="1"/>
        <pt x="350" y="-8" on="0"/>
        <pt x="329" y="-11" on="1"/>
        <pt x="306" y="-14" on="0"/>
        <pt x="278" y="-14" on="1"/>
        <pt x="197" y="-14" on="0"/>
        <pt x="101" y="41" on="0"/>
        <pt x="50" y="139" on="0"/>
        <pt x="35" y="276" on="0"/>
        <pt x="35" y="357" on="1"/>
        <pt x="35" y="438" on="0"/>
        <pt x="50" y="575" on="0"/>
        <pt x="101" y="673" on="0"/>
        <pt x="197" y="728" on="0"/>
        <pt x="278" y="728" on="1"/>
        <pt x="359" y="728" on="0"/>
        <pt x="455" y="673" on="0"/>
        <pt x="506" y="575" on="0"/>
        <pt x="521" y="438" on="0"/>
        <pt x="521" y="357" on="1"/>
        <pt x="521" y="266" on="0"/>
        <pt x="501" y="118" on="0"/>
        <pt x="466" y="67" on="1"/>
        <pt x="543" y="-11" on="1"/>
      </contour>
    </TTGlyph>
    <TTGlyph name="R" xMin="50" yMin="0" xMax="534" yMax="714">
      <contour>
        <pt x="50" y="714" on="1"/>
        <pt x="316" y="714" on="1"/>
        <pt x="406" y="714" on="0"/>
        <pt x="506" y="623" on="0"/>
        <pt x="506" y="530" on="1"/>
        <pt x="506" y="458" on="0"/>
        <pt x="448" y="367" on="0"/>
        <pt x="387" y="354" on="1"/>
        <pt x="387" y="352" on="1"/>
        <pt x="424" y="347" on="0"/>
        <pt x="468" y="320" on="0"/>
        <pt x="492" y="269" on="0"/>
        <pt x="501" y="191" on="0"/>
        <pt x="502" y="134" on="1"/>
        <pt x="503" y="77" on="0"/>
        <pt x="514" y="17" on="0"/>
        <pt x="534" y="6" on="1"/>
        <pt x="534" y="0" on="1"/>
        <pt x="378" y="0" on="1"/>
        <pt x="367" y="15" on="0"/>
        <pt x="361" y="54" on="0"/>
        <pt x="360" y="75" on="1"/>
        <pt x="356" y="212" on="1"/>
        <pt x="354" y="254" on="0"/>
        <pt x="316" y="302" on="0"/>
        <pt x="271" y="302" on="1"/>
        <pt x="194" y="302" on="1"/>
        <pt x="194" y="0" on="1"/>
        <pt x="50" y="0" on="1"/>
      </contour>
      <contour>
        <pt x="194" y="402" on="1"/>
        <pt x="254" y="402" on="1"/>
        <pt x="306" y="402" on="0"/>
        <pt x="362" y="451" on="0"/>
        <pt x="362" y="509" on="1"/>
        <pt x="362" y="608" on="0"/>
        <pt x="262" y="608" on="1"/>
        <pt x="194" y="608" on="1"/>
      </contour>
    </TTGlyph>
    <TTGlyph name="Racute" xMin="50" yMin="0" xMax="534" yMax="900">
      <component glyphName="R" x="0" y="0" flags="0x204"/>
      <component glyphName="acute" x="149" y="154" flags="0x4"/>
    </TTGlyph>
    <TTGlyph name="Rcaron" xMin="50" yMin="0" xMax="534" yMax="900">
      <component glyphName="R" x="0" y="0" flags="0x204"/>
      <component glyphName="caron" x="147" y="154" flags="0x4"/>
    </TTGlyph>
    <TTGlyph name="Rcommaaccent" xMin="50" yMin="-253" xMax="534" yMax="714">
      <component glyphName="R" x="0" y="0" flags="0x204"/>
      <component glyphName="commaaccent" x="164" y="0" flags="0x4"/>
    </TTGlyph>
    <TTGlyph name="S" xMin="22" yMin="-14" xMax="497" yMax="728">
      <contour>
        <pt x="166" y="223" on="1"/>
        <pt x="166" y="202" on="1"/>
        <pt x="166" y="177" on="0"/>
        <pt x="174" y="136" on="0"/>
        <pt x="196" y="108" on="0"/>
        <pt x="232" y="92" on="0"/>
        <pt x="261" y="92" on="1"/>
        <pt x="294" y="92" on="0"/>
        <pt x="347" y="135" on="0"/>
        <pt x="347" y="180" on="1"/>
        <pt x="347" y="204" on="0"/>
        <pt x="334" y="239" on="0"/>
        <pt x="304" y="267" on="0"/>
        <pt x="255" y="290" on="0"/>
        <pt x="219" y="302" on="1"/>
        <pt x="171" y="318" on="0"/>
        <pt x="101" y="356" on="0"/>
        <pt x="54" y="407" on="0"/>
        <pt x="32" y="474" on="0"/>
        <pt x="32" y="518" on="1"/>
        <pt x="32" y="624" on="0"/>
        <pt x="150" y="728" on="0"/>
        <pt x="253" y="728" on="1"/>
        <pt x="301" y="728" on="0"/>
        <pt x="382" y="707" on="0"/>
        <pt x="441" y="660" on="0"/>
        <pt x="474" y="587" on="0"/>
        <pt x="474" y="536" on="1"/>
        <pt x="474" y="516" on="1"/>
        <pt x="336" y="516" on="1"/>
        <pt x="336" y="567" on="0"/>
        <pt x="300" y="622" on="0"/>
        <pt x="258" y="622" on="1"/>
        <pt x="234" y="622" on="0"/>
        <pt x="202" y="608" on="0"/>
        <pt x="183" y="585" on="0"/>
        <pt x="176" y="555" on="0"/>
        <pt x="176" y="539" on="1"/>
        <pt x="176" y="506" on="0"/>
        <pt x="204" y="461" on="0"/>
        <pt x="250" y="442" on="1"/>
        <pt x="361" y="394" on="1"/>
        <pt x="401" y="376" on="0"/>
        <pt x="454" y="337" on="0"/>
        <pt x="485" y="292" on="0"/>
        <pt x="497" y="238" on="0"/>
        <pt x="497" y="205" on="1"/>
        <pt x="497" y="92" on="0"/>
        <pt x="366" y="-14" on="0"/>
        <pt x="249" y="-14" on="1"/>
        <pt x="127" y="-14" on="0"/>
        <pt x="22" y="95" on="0"/>
        <pt x="22" y="194" on="1"/>
        <pt x="22" y="223" on="1"/>
      </contour>
    </TTGlyph>
    <TTGlyph name="Sacute" xMin="22" yMin="-14" xMax="497" yMax="900">
      <component glyphName="S" x="0" y="0" flags="0x204"/>
      <component glyphName="acute" x="161" y="154" flags="0x4"/>
    </TTGlyph>
    <TTGlyph name="Scaron" xMin="22" yMin="-14" xMax="497" yMax="902">
      <component glyphName="S" x="0" y="0" flags="0x204"/>
      <component glyphName="caron" x="146" y="156" flags="0x4"/>
    </TTGlyph>
    <TTGlyph name="Scedilla" xMin="22" yMin="-217" xMax="497" yMax="728">
      <contour>
        <pt x="166" y="223" on="1"/>
        <pt x="166" y="202" on="1"/>
        <pt x="166" y="177" on="0"/>
        <pt x="174" y="136" on="0"/>
        <pt x="196" y="108" on="0"/>
        <pt x="232" y="92" on="0"/>
        <pt x="261" y="92" on="1"/>
        <pt x="294" y="92" on="0"/>
        <pt x="347" y="135" on="0"/>
        <pt x="347" y="180" on="1"/>
        <pt x="347" y="204" on="0"/>
        <pt x="334" y="239" on="0"/>
        <pt x="304" y="267" on="0"/>
        <pt x="255" y="290" on="0"/>
        <pt x="219" y="302" on="1"/>
        <pt x="171" y="318" on="0"/>
        <pt x="101" y="356" on="0"/>
        <pt x="54" y="407" on="0"/>
        <pt x="32" y="474" on="0"/>
        <pt x="32" y="518" on="1"/>
        <pt x="32" y="624" on="0"/>
        <pt x="150" y="728" on="0"/>
        <pt x="253" y="728" on="1"/>
        <pt x="301" y="728" on="0"/>
        <pt x="382" y="707" on="0"/>
        <pt x="441" y="660" on="0"/>
        <pt x="474" y="587" on="0"/>
        <pt x="474" y="536" on="1"/>
        <pt x="474" y="516" on="1"/>
        <pt x="336" y="516" on="1"/>
        <pt x="336" y="567" on="0"/>
        <pt x="300" y="622" on="0"/>
        <pt x="258" y="622" on="1"/>
        <pt x="234" y="622" on="0"/>
        <pt x="202" y="608" on="0"/>
        <pt x="183" y="585" on="0"/>
        <pt x="176" y="555" on="0"/>
        <pt x="176" y="539" on="1"/>
        <pt x="176" y="506" on="0"/>
        <pt x="204" y="461" on="0"/>
        <pt x="250" y="442" on="1"/>
        <pt x="361" y="394" on="1"/>
        <pt x="401" y="376" on="0"/>
        <pt x="454" y="337" on="0"/>
        <pt x="485" y="292" on="0"/>
        <pt x="497" y="238" on="0"/>
        <pt x="497" y="205" on="1"/>
        <pt x="497" y="92" on="0"/>
        <pt x="431" y="39" on="1"/>
        <pt x="371" y="-9" on="0"/>
        <pt x="265" y="-14" on="1"/>
        <pt x="236" y="-58" on="1"/>
        <pt x="245" y="-55" on="0"/>
        <pt x="260" y="-53" on="0"/>
        <pt x="269" y="-53" on="1"/>
        <pt x="285" y="-53" on="0"/>
        <pt x="316" y="-62" on="0"/>
        <pt x="340" y="-80" on="0"/>
        <pt x="354" y="-107" on="0"/>
        <pt x="353" y="-125" on="1"/>
        <pt x="353" y="-170" on="0"/>
        <pt x="288" y="-217" on="0"/>
        <pt x="227" y="-217" on="1"/>
        <pt x="194" y="-217" on="0"/>
        <pt x="139" y="-205" on="0"/>
        <pt x="127" y="-198" on="1"/>
        <pt x="146" y="-152" on="1"/>
        <pt x="157" y="-158" on="0"/>
        <pt x="196" y="-167" on="0"/>
        <pt x="215" y="-167" on="1"/>
        <pt x="236" y="-167" on="0"/>
        <pt x="265" y="-149" on="0"/>
        <pt x="265" y="-134" on="1"/>
        <pt x="265" y="-119" on="0"/>
        <pt x="241" y="-103" on="0"/>
        <pt x="221" y="-102" on="1"/>
        <pt x="210" y="-102" on="0"/>
        <pt x="195" y="-105" on="0"/>
        <pt x="187" y="-108" on="1"/>
        <pt x="165" y="-88" on="1"/>
        <pt x="213" y="-13" on="1"/>
        <pt x="120" y="-6" on="0"/>
        <pt x="74" y="40" on="1"/>
        <pt x="22" y="95" on="0"/>
        <pt x="22" y="194" on="1"/>
        <pt x="22" y="223" on="1"/>
      </contour>
    </TTGlyph>
    <TTGlyph name="Scircumflex" xMin="22" yMin="-14" xMax="497" yMax="900">
      <component glyphName="S" x="0" y="0" flags="0x204"/>
      <component glyphName="circumflex" x="148" y="154" flags="0x4"/>
    </TTGlyph>
    <TTGlyph name="Scommaaccent" xMin="22" yMin="-253" xMax="497" yMax="728">
      <component glyphName="S" x="0" y="0" flags="0x204"/>
      <component glyphName="commaaccent" x="132" y="0" flags="0x4"/>
    </TTGlyph>
    <TTGlyph name="T" xMin="12" yMin="0" xMax="468" yMax="714">
      <contour>
        <pt x="468" y="714" on="1"/>
        <pt x="468" y="596" on="1"/>
        <pt x="312" y="596" on="1"/>
        <pt x="312" y="0" on="1"/>
        <pt x="168" y="0" on="1"/>
        <pt x="168" y="596" on="1"/>
        <pt x="12" y="596" on="1"/>
        <pt x="12" y="714" on="1"/>
      </contour>
    </TTGlyph>
    <TTGlyph name="Tbar" xMin="12" yMin="0" xMax="468" yMax="714">
      <contour>
        <pt x="468" y="714" on="1"/>
        <pt x="468" y="596" on="1"/>
        <pt x="312" y="596" on="1"/>
        <pt x="312" y="466" on="1"/>
        <pt x="420" y="466" on="1"/>
        <pt x="420" y="405" on="1"/>
        <pt x="312" y="405" on="1"/>
        <pt x="312" y="0" on="1"/>
        <pt x="168" y="0" on="1"/>
        <pt x="168" y="405" on="1"/>
        <pt x="60" y="405" on="1"/>
        <pt x="60" y="466" on="1"/>
        <pt x="168" y="466" on="1"/>
        <pt x="168" y="596" on="1"/>
        <pt x="12" y="596" on="1"/>
        <pt x="12" y="714" on="1"/>
      </contour>
    </TTGlyph>
    <TTGlyph name="Tcaron" xMin="12" yMin="0" xMax="468" yMax="900">
      <component glyphName="T" x="0" y="0" flags="0x204"/>
      <component glyphName="caron" x="130" y="154" flags="0x4"/>
    </TTGlyph>
    <TTGlyph name="Tcommaaccent" xMin="12" yMin="-253" xMax="468" yMax="714">
      <component glyphName="T" x="0" y="0" flags="0x204"/>
      <component glyphName="commaaccent" x="119" y="0" flags="0x4"/>
    </TTGlyph>
    <TTGlyph name="Thorn" xMin="50" yMin="0" xMax="498" yMax="714">
      <contour>
        <pt x="194" y="263" on="1"/>
        <pt x="258" y="263" on="1"/>
        <pt x="301" y="263" on="0"/>
        <pt x="354" y="315" on="0"/>
        <pt x="354" y="370" on="1"/>
        <pt x="354" y="424" on="0"/>
        <pt x="308" y="480" on="0"/>
        <pt x="254" y="480" on="1"/>
        <pt x="194" y="480" on="1"/>
      </contour>
      <contour>
        <pt x="50" y="714" on="1"/>
        <pt x="194" y="714" on="1"/>
        <pt x="194" y="586" on="1"/>
        <pt x="302" y="586" on="1"/>
        <pt x="357" y="586" on="0"/>
        <pt x="432" y="549" on="0"/>
        <pt x="478" y="489" on="0"/>
        <pt x="498" y="412" on="0"/>
        <pt x="498" y="372" on="1"/>
        <pt x="498" y="316" on="0"/>
        <pt x="465" y="235" on="0"/>
        <pt x="406" y="183" on="0"/>
        <pt x="322" y="157" on="0"/>
        <pt x="271" y="157" on="1"/>
        <pt x="194" y="157" on="1"/>
        <pt x="194" y="0" on="1"/>
        <pt x="50" y="0" on="1"/>
      </contour>
    </TTGlyph>
    <TTGlyph name="U" xMin="41" yMin="-14" xMax="497" yMax="714">
      <contour>
        <pt x="185" y="714" on="1"/>
        <pt x="185" y="216" on="1"/>
        <pt x="185" y="189" on="0"/>
        <pt x="192" y="144" on="0"/>
        <pt x="211" y="111" on="0"/>
        <pt x="243" y="92" on="0"/>
        <pt x="269" y="92" on="1"/>
        <pt x="294" y="92" on="0"/>
        <pt x="327" y="111" on="0"/>
        <pt x="346" y="144" on="0"/>
        <pt x="353" y="189" on="0"/>
        <pt x="353" y="216" on="1"/>
        <pt x="353" y="714" on="1"/>
        <pt x="497" y="714" on="1"/>
        <pt x="497" y="216" on="1"/>
        <pt x="497" y="148" on="0"/>
        <pt x="459" y="59" on="0"/>
        <pt x="395" y="7" on="0"/>
        <pt x="313" y="-14" on="0"/>
        <pt x="269" y="-14" on="1"/>
        <pt x="225" y="-14" on="0"/>
        <pt x="143" y="4" on="0"/>
        <pt x="79" y="55" on="0"/>
        <pt x="41" y="144" on="0"/>
        <pt x="41" y="216" on="1"/>
        <pt x="41" y="714" on="1"/>
      </contour>
    </TTGlyph>
    <TTGlyph name="Uacute" xMin="41" yMin="-14" xMax="497" yMax="900">
      <component glyphName="U" x="0" y="0" flags="0x204"/>
      <component glyphName="acute" x="174" y="154" flags="0x4"/>
    </TTGlyph>
    <TTGlyph name="Ubreve" xMin="41" yMin="-14" xMax="497" yMax="899">
      <component glyphName="U" x="0" y="0" flags="0x204"/>
      <component glyphName="breve" x="159" y="154" flags="0x4"/>
    </TTGlyph>
    <TTGlyph name="Ucircumflex" xMin="41" yMin="-14" xMax="497" yMax="900">
      <component glyphName="U" x="0" y="0" flags="0x204"/>
      <component glyphName="circumflex" x="159" y="154" flags="0x4"/>
    </TTGlyph>
    <TTGlyph name="Udieresis" xMin="41" yMin="-14" xMax="497" yMax="887">
      <component glyphName="U" x="0" y="0" flags="0x204"/>
      <component glyphName="dieresis" x="158" y="154" flags="0x4"/>
    </TTGlyph>
    <TTGlyph name="Ugrave" xMin="41" yMin="-14" xMax="497" yMax="900">
      <component glyphName="U" x="0" y="0" flags="0x204"/>
      <component glyphName="grave" x="157" y="154" flags="0x4"/>
    </TTGlyph>
    <TTGlyph name="Uhungarumlaut" xMin="41" yMin="-14" xMax="497" yMax="900">
      <component glyphName="U" x="0" y="0" flags="0x204"/>
      <component glyphName="hungarumlaut" x="175" y="154" flags="0x4"/>
    </TTGlyph>
    <TTGlyph name="Umacron" xMin="41" yMin="-14" xMax="497" yMax="866">
      <component glyphName="U" x="0" y="0" flags="0x204"/>
      <component glyphName="macron" x="159" y="154" flags="0x4"/>
    </TTGlyph>
    <TTGlyph name="Uogonek" xMin="41" yMin="-217" xMax="497" yMax="714">
      <contour>
        <pt x="368" y="-182" on="1"/>
        <pt x="340" y="-202" on="0"/>
        <pt x="289" y="-217" on="0"/>
        <pt x="254" y="-217" on="1"/>
        <pt x="225" y="-217" on="0"/>
        <pt x="187" y="-202" on="0"/>
        <pt x="166" y="-180" on="0"/>
        <pt x="158" y="-152" on="0"/>
        <pt x="158" y="-138" on="1"/>
        <pt x="158" y="-101" on="0"/>
        <pt x="191" y="-63" on="1"/>
        <pt x="214" y="-36" on="0"/>
        <pt x="253" y="-14" on="1"/>
        <pt x="217" y="-13" on="0"/>
        <pt x="184" y="-5" on="1"/>
        <pt x="154" y="2" on="0"/>
        <pt x="101" y="33" on="0"/>
        <pt x="63" y="86" on="0"/>
        <pt x="41" y="163" on="0"/>
        <pt x="41" y="216" on="1"/>
        <pt x="41" y="714" on="1"/>
        <pt x="185" y="714" on="1"/>
        <pt x="185" y="216" on="1"/>
        <pt x="185" y="189" on="0"/>
        <pt x="192" y="144" on="0"/>
        <pt x="211" y="111" on="0"/>
        <pt x="243" y="92" on="0"/>
        <pt x="269" y="92" on="1"/>
        <pt x="294" y="92" on="0"/>
        <pt x="327" y="111" on="0"/>
        <pt x="346" y="144" on="0"/>
        <pt x="353" y="189" on="0"/>
        <pt x="353" y="216" on="1"/>
        <pt x="353" y="714" on="1"/>
        <pt x="497" y="714" on="1"/>
        <pt x="497" y="216" on="1"/>
        <pt x="497" y="165" on="0"/>
        <pt x="475" y="90" on="0"/>
        <pt x="437" y="37" on="0"/>
        <pt x="384" y="4" on="0"/>
        <pt x="354" y="-3" on="1"/>
        <pt x="337" y="-7" on="1"/>
        <pt x="324" y="-17" on="0"/>
        <pt x="305" y="-33" on="0"/>
        <pt x="297" y="-40" on="1"/>
        <pt x="268" y="-67" on="0"/>
        <pt x="247" y="-104" on="0"/>
        <pt x="247" y="-122" on="1"/>
        <pt x="247" y="-153" on="0"/>
        <pt x="275" y="-153" on="1"/>
        <pt x="289" y="-153" on="0"/>
        <pt x="316" y="-146" on="0"/>
        <pt x="338" y="-133" on="1"/>
      </contour>
    </TTGlyph>
    <TTGlyph name="Uring" xMin="41" yMin="-14" xMax="497" yMax="954">
      <component glyphName="U" x="0" y="0" flags="0x204"/>
      <component glyphName="ring" x="159" y="154" flags="0x4"/>
    </TTGlyph>
    <TTGlyph name="Utilde" xMin="41" yMin="-14" xMax="497" yMax="891">
      <component glyphName="U" x="0" y="0" flags="0x204"/>
      <component glyphName="tilde" x="161" y="154" flags="0x4"/>
    </TTGlyph>
    <TTGlyph name="V" xMin="3" yMin="0" xMax="516" yMax="714">
      <contour>
        <pt x="157" y="714" on="1"/>
        <pt x="258" y="186" on="1"/>
        <pt x="261" y="186" on="1"/>
        <pt x="367" y="714" on="1"/>
        <pt x="516" y="714" on="1"/>
        <pt x="352" y="0" on="1"/>
        <pt x="167" y="0" on="1"/>
        <pt x="3" y="714" on="1"/>
      </contour>
    </TTGlyph>
    <TTGlyph name="W" xMin="8" yMin="0" xMax="752" yMax="714">
      <contour>
        <pt x="8" y="714" on="1"/>
        <pt x="146" y="714" on="1"/>
        <pt x="225" y="186" on="1"/>
        <pt x="227" y="186" on="1"/>
        <pt x="311" y="714" on="1"/>
        <pt x="449" y="714" on="1"/>
        <pt x="533" y="186" on="1"/>
        <pt x="535" y="186" on="1"/>
        <pt x="614" y="714" on="1"/>
        <pt x="752" y="714" on="1"/>
        <pt x="622" y="0" on="1"/>
        <pt x="461" y="0" on="1"/>
        <pt x="381" y="518" on="1"/>
        <pt x="379" y="518" on="1"/>
        <pt x="299" y="0" on="1"/>
        <pt x="138" y="0" on="1"/>
      </contour>
    </TTGlyph>
    <TTGlyph name="Wcircumflex" xMin="8" yMin="0" xMax="752" yMax="900">
      <component glyphName="W" x="0" y="0" flags="0x204"/>
      <component glyphName="circumflex" x="269" y="154" flags="0x4"/>
    </TTGlyph>
    <TTGlyph name="X" xMin="6" yMin="0" xMax="531" yMax="714">
      <contour>
        <pt x="20" y="714" on="1"/>
        <pt x="179" y="714" on="1"/>
        <pt x="271" y="483" on="1"/>
        <pt x="362" y="714" on="1"/>
        <pt x="519" y="714" on="1"/>
        <pt x="353" y="361" on="1"/>
        <pt x="531" y="0" on="1"/>
        <pt x="369" y="0" on="1"/>
        <pt x="266" y="242" on="1"/>
        <pt x="164" y="0" on="1"/>
        <pt x="6" y="0" on="1"/>
        <pt x="184" y="361" on="1"/>
      </contour>
    </TTGlyph>
    <TTGlyph name="Y" xMin="3" yMin="0" xMax="517" yMax="714">
      <contour>
        <pt x="165" y="714" on="1"/>
        <pt x="259" y="438" on="1"/>
        <pt x="261" y="438" on="1"/>
        <pt x="361" y="714" on="1"/>
        <pt x="517" y="714" on="1"/>
        <pt x="332" y="281" on="1"/>
        <pt x="332" y="0" on="1"/>
        <pt x="188" y="0" on="1"/>
        <pt x="188" y="281" on="1"/>
        <pt x="3" y="714" on="1"/>
      </contour>
    </TTGlyph>
    <TTGlyph name="Yacute" xMin="3" yMin="0" xMax="517" yMax="902">
      <component glyphName="Y" x="0" y="0" flags="0x204"/>
      <component glyphName="acute" x="170" y="156" flags="0x4"/>
    </TTGlyph>
    <TTGlyph name="Ycircumflex" xMin="3" yMin="0" xMax="517" yMax="900">
      <component glyphName="Y" x="0" y="0" flags="0x204"/>
      <component glyphName="circumflex" x="152" y="154" flags="0x4"/>
    </TTGlyph>
    <TTGlyph name="Ydieresis" xMin="3" yMin="0" xMax="517" yMax="887">
      <component glyphName="Y" x="0" y="0" flags="0x204"/>
      <component glyphName="dieresis" x="149" y="154" flags="0x4"/>
    </TTGlyph>
    <TTGlyph name="Z" xMin="24" yMin="0" xMax="457" yMax="714">
      <contour>
        <pt x="24" y="105" on="1"/>
        <pt x="287" y="596" on="1"/>
        <pt x="42" y="596" on="1"/>
        <pt x="42" y="714" on="1"/>
        <pt x="453" y="714" on="1"/>
        <pt x="453" y="605" on="1"/>
        <pt x="186" y="118" on="1"/>
        <pt x="457" y="118" on="1"/>
        <pt x="457" y="0" on="1"/>
        <pt x="24" y="0" on="1"/>
      </contour>
    </TTGlyph>
    <TTGlyph name="Zacute" xMin="24" yMin="0" xMax="457" yMax="900">
      <component glyphName="Z" x="0" y="0" flags="0x204"/>
      <component glyphName="acute" x="146" y="154" flags="0x4"/>
    </TTGlyph>
    <TTGlyph name="Zcaron" xMin="24" yMin="0" xMax="457" yMax="902">
      <component glyphName="Z" x="0" y="0" flags="0x204"/>
      <component glyphName="caron" x="141" y="156" flags="0x4"/>
    </TTGlyph>
    <TTGlyph name="Zdotaccent" xMin="24" yMin="0" xMax="457" yMax="887">
      <component glyphName="Z" x="0" y="0" flags="0x204"/>
      <component glyphName="dotaccent" x="136" y="154" flags="0x4"/>
    </TTGlyph>
    <TTGlyph name="a" xMin="28" yMin="-14" xMax="446" yMax="552">
      <contour>
        <pt x="45" y="373" on="1"/>
        <pt x="45" y="386" on="1"/>
        <pt x="45" y="432" on="0"/>
        <pt x="75" y="496" on="0"/>
        <pt x="126" y="535" on="0"/>
        <pt x="195" y="552" on="0"/>
        <pt x="234" y="552" on="1"/>
        <pt x="295" y="552" on="0"/>
        <pt x="372" y="528" on="0"/>
        <pt x="414" y="484" on="0"/>
        <pt x="429" y="423" on="0"/>
        <pt x="429" y="387" on="1"/>
        <pt x="429" y="104" on="1"/>
        <pt x="429" y="66" on="0"/>
        <pt x="436" y="24" on="0"/>
        <pt x="446" y="0" on="1"/>
        <pt x="314" y="0" on="1"/>
        <pt x="307" y="13" on="0"/>
        <pt x="300" y="42" on="0"/>
        <pt x="297" y="56" on="1"/>
        <pt x="295" y="56" on="1"/>
        <pt x="271" y="14" on="0"/>
        <pt x="208" y="-14" on="0"/>
        <pt x="158" y="-14" on="1"/>
        <pt x="122" y="-14" on="0"/>
        <pt x="72" y="14" on="0"/>
        <pt x="42" y="58" on="0"/>
        <pt x="28" y="113" on="0"/>
        <pt x="28" y="140" on="1"/>
        <pt x="28" y="178" on="0"/>
        <pt x="44" y="233" on="0"/>
        <pt x="77" y="272" on="0"/>
        <pt x="128" y="298" on="0"/>
        <pt x="164" y="308" on="1"/>
        <pt x="242" y="329" on="1"/>
        <pt x="273" y="337" on="0"/>
        <pt x="297" y="365" on="0"/>
        <pt x="297" y="392" on="1"/>
        <pt x="297" y="423" on="0"/>
        <pt x="268" y="458" on="0"/>
        <pt x="233" y="458" on="1"/>
        <pt x="201" y="458" on="0"/>
        <pt x="169" y="420" on="0"/>
        <pt x="169" y="388" on="1"/>
        <pt x="169" y="373" on="1"/>
      </contour>
      <contour>
        <pt x="297" y="269" on="1"/>
        <pt x="283" y="258" on="0"/>
        <pt x="251" y="245" on="0"/>
        <pt x="238" y="242" on="1"/>
        <pt x="196" y="233" on="0"/>
        <pt x="160" y="191" on="0"/>
        <pt x="160" y="155" on="1"/>
        <pt x="160" y="124" on="0"/>
        <pt x="184" y="80" on="0"/>
        <pt x="212" y="80" on="1"/>
        <pt x="226" y="80" on="0"/>
        <pt x="256" y="89" on="0"/>
        <pt x="281" y="109" on="0"/>
        <pt x="297" y="140" on="0"/>
        <pt x="297" y="163" on="1"/>
      </contour>
    </TTGlyph>
    <TTGlyph name="aacute" xMin="28" yMin="-14" xMax="446" yMax="746">
      <component glyphName="a" x="0" y="0" flags="0x204"/>
      <component glyphName="acute" x="144" y="0" flags="0x4"/>
    </TTGlyph>
    <TTGlyph name="abreve" xMin="28" yMin="-14" xMax="446" yMax="745">
      <component glyphName="a" x="0" y="0" flags="0x204"/>
      <component glyphName="breve" x="133" y="0" flags="0x4"/>
    </TTGlyph>
    <TTGlyph name="acircumflex" xMin="28" yMin="-14" xMax="446" yMax="746">
      <component glyphName="a" x="0" y="0" flags="0x204"/>
      <component glyphName="circumflex" x="129" y="0" flags="0x4"/>
    </TTGlyph>
    <TTGlyph name="acute" xMin="46" yMin="602" xMax="238" yMax="746">
      <contour>
        <pt x="100" y="746" on="1"/>
        <pt x="238" y="746" on="1"/>
        <pt x="140" y="602" on="1"/>
        <pt x="46" y="602" on="1"/>
      </contour>
    </TTGlyph>
    <TTGlyph name="acute.cap" xMin="46" yMin="756" xMax="238" yMax="900">
      <contour>
        <pt x="100" y="900" on="1"/>
        <pt x="238" y="900" on="1"/>
        <pt x="140" y="756" on="1"/>
        <pt x="46" y="756" on="1"/>
      </contour>
    </TTGlyph>
    <TTGlyph name="adieresis" xMin="28" yMin="-14" xMax="446" yMax="733">
      <component glyphName="a" x="0" y="0" flags="0x204"/>
      <component glyphName="dieresis" x="130" y="0" flags="0x4"/>
    </TTGlyph>
    <TTGlyph name="ae" xMin="27" yMin="-14" xMax="695" yMax="552">
      <contour>
        <pt x="44" y="373" on="1"/>
        <pt x="44" y="386" on="1"/>
        <pt x="44" y="432" on="0"/>
        <pt x="74" y="496" on="0"/>
        <pt x="125" y="535" on="0"/>
        <pt x="194" y="552" on="0"/>
        <pt x="233" y="552" on="1"/>
        <pt x="287" y="552" on="0"/>
        <pt x="350" y="525" on="0"/>
        <pt x="372" y="488" on="1"/>
        <pt x="387" y="519" on="0"/>
        <pt x="454" y="552" on="0"/>
        <pt x="499" y="552" on="1"/>
        <pt x="559" y="552" on="0"/>
        <pt x="635" y="513" on="0"/>
        <pt x="679" y="442" on="0"/>
        <pt x="695" y="341" on="0"/>
        <pt x="695" y="279" on="1"/>
        <pt x="695" y="248" on="1"/>
        <pt x="424" y="248" on="1"/>
        <pt x="424" y="205" on="1"/>
        <pt x="424" y="181" on="0"/>
        <pt x="431" y="136" on="0"/>
        <pt x="447" y="101" on="0"/>
        <pt x="472" y="80" on="0"/>
        <pt x="491" y="80" on="1"/>
        <pt x="525" y="80" on="0"/>
        <pt x="557" y="130" on="0"/>
        <pt x="563" y="181" on="1"/>
        <pt x="687" y="181" on="1"/>
        <pt x="683" y="87" on="0"/>
        <pt x="590" y="-14" on="0"/>
        <pt x="493" y="-14" on="1"/>
        <pt x="456" y="-14" on="0"/>
        <pt x="401" y="2" on="0"/>
        <pt x="362" y="28" on="0"/>
        <pt x="338" y="61" on="0"/>
        <pt x="331" y="79" on="1"/>
        <pt x="315" y="49" on="0"/>
        <pt x="280" y="12" on="0"/>
        <pt x="239" y="-7" on="0"/>
        <pt x="189" y="-14" on="0"/>
        <pt x="157" y="-14" on="1"/>
        <pt x="121" y="-14" on="0"/>
        <pt x="71" y="14" on="0"/>
        <pt x="41" y="58" on="0"/>
        <pt x="27" y="113" on="0"/>
        <pt x="27" y="140" on="1"/>
        <pt x="27" y="178" on="0"/>
        <pt x="43" y="233" on="0"/>
        <pt x="76" y="272" on="0"/>
        <pt x="127" y="298" on="0"/>
        <pt x="163" y="308" on="1"/>
        <pt x="241" y="329" on="1"/>
        <pt x="272" y="337" on="0"/>
        <pt x="296" y="365" on="0"/>
        <pt x="296" y="392" on="1"/>
        <pt x="296" y="423" on="0"/>
        <pt x="267" y="458" on="0"/>
        <pt x="232" y="458" on="1"/>
        <pt x="200" y="458" on="0"/>
        <pt x="168" y="420" on="0"/>
        <pt x="168" y="388" on="1"/>
        <pt x="168" y="373" on="1"/>
      </contour>
      <contour>
        <pt x="563" y="330" on="1"/>
        <pt x="561" y="393" on="0"/>
        <pt x="536" y="458" on="0"/>
        <pt x="494" y="458" on="1"/>
        <pt x="474" y="458" on="0"/>
        <pt x="447" y="439" on="0"/>
        <pt x="431" y="408" on="0"/>
        <pt x="424" y="370" on="0"/>
        <pt x="424" y="351" on="1"/>
        <pt x="424" y="330" on="1"/>
      </contour>
      <contour>
        <pt x="296" y="269" on="1"/>
        <pt x="282" y="258" on="0"/>
        <pt x="250" y="245" on="0"/>
        <pt x="237" y="242" on="1"/>
        <pt x="195" y="233" on="0"/>
        <pt x="159" y="191" on="0"/>
        <pt x="159" y="155" on="1"/>
        <pt x="159" y="124" on="0"/>
        <pt x="183" y="80" on="0"/>
        <pt x="211" y="80" on="1"/>
        <pt x="225" y="80" on="0"/>
        <pt x="255" y="89" on="0"/>
        <pt x="280" y="109" on="0"/>
        <pt x="296" y="140" on="0"/>
        <pt x="296" y="163" on="1"/>
      </contour>
    </TTGlyph>
    <TTGlyph name="afii61289" xMin="23" yMin="-14" xMax="449" yMax="721">
      <contour>
        <pt x="449" y="51" on="1"/>
        <pt x="374" y="-14" on="0"/>
        <pt x="284" y="-14" on="1"/>
        <pt x="209" y="-14" on="0"/>
        <pt x="126" y="66" on="0"/>
        <pt x="126" y="130" on="1"/>
        <pt x="126" y="183" on="1"/>
        <pt x="70" y="132" on="1"/>
        <pt x="68" y="132" on="1"/>
        <pt x="23" y="202" on="1"/>
        <pt x="125" y="287" on="1"/>
        <pt x="125" y="528" on="1"/>
        <pt x="125" y="570" on="0"/>
        <pt x="151" y="641" on="0"/>
        <pt x="196" y="692" on="0"/>
        <pt x="259" y="721" on="0"/>
        <pt x="297" y="721" on="1"/>
        <pt x="330" y="721" on="0"/>
        <pt x="383" y="700" on="0"/>
        <pt x="421" y="661" on="0"/>
        <pt x="442" y="607" on="0"/>
        <pt x="442" y="574" on="1"/>
        <pt x="442" y="497" on="0"/>
        <pt x="348" y="350" on="0"/>
        <pt x="253" y="267" on="1"/>
        <pt x="253" y="150" on="1"/>
        <pt x="253" y="130" on="0"/>
        <pt x="264" y="103" on="0"/>
        <pt x="282" y="87" on="0"/>
        <pt x="305" y="80" on="0"/>
        <pt x="316" y="80" on="1"/>
        <pt x="335" y="80" on="0"/>
        <pt x="380" y="98" on="0"/>
        <pt x="404" y="117" on="1"/>
        <pt x="406" y="117" on="1"/>
        <pt x="449" y="51" on="1"/>
      </contour>
      <contour>
        <pt x="337" y="567" on="1"/>
        <pt x="337" y="596" on="0"/>
        <pt x="315" y="636" on="0"/>
        <pt x="297" y="636" on="1"/>
        <pt x="279" y="636" on="0"/>
        <pt x="253" y="591" on="0"/>
        <pt x="253" y="552" on="1"/>
        <pt x="253" y="375" on="1"/>
        <pt x="297" y="423" on="0"/>
        <pt x="337" y="521" on="0"/>
      </contour>
    </TTGlyph>
    <TTGlyph name="agrave" xMin="28" yMin="-14" xMax="446" yMax="746">
      <component glyphName="a" x="0" y="0" flags="0x204"/>
      <component glyphName="grave" x="132" y="0" flags="0x4"/>
    </TTGlyph>
    <TTGlyph name="amacron" xMin="28" yMin="-14" xMax="446" yMax="712">
      <component glyphName="a" x="0" y="0" flags="0x204"/>
      <component glyphName="macron" x="132" y="0" flags="0x4"/>
    </TTGlyph>
    <TTGlyph name="ampersand" xMin="12" yMin="-14" xMax="596" yMax="714">
      <contour>
        <pt x="426" y="235" on="1"/>
        <pt x="437" y="258" on="0"/>
        <pt x="451" y="320" on="0"/>
        <pt x="451" y="343" on="1"/>
        <pt x="575" y="343" on="1"/>
        <pt x="575" y="285" on="0"/>
        <pt x="534" y="178" on="0"/>
        <pt x="502" y="132" on="1"/>
        <pt x="596" y="0" on="1"/>
        <pt x="443" y="0" on="1"/>
        <pt x="403" y="55" on="1"/>
        <pt x="376" y="23" on="0"/>
        <pt x="285" y="-14" on="0"/>
        <pt x="231" y="-14" on="1"/>
        <pt x="163" y="-14" on="0"/>
        <pt x="78" y="28" on="0"/>
        <pt x="30" y="90" on="0"/>
        <pt x="12" y="162" on="0"/>
        <pt x="12" y="192" on="1"/>
        <pt x="12" y="255" on="0"/>
        <pt x="89" y="356" on="0"/>
        <pt x="156" y="398" on="1"/>
        <pt x="131" y="435" on="1"/>
        <pt x="116" y="457" on="0"/>
        <pt x="97" y="491" on="0"/>
        <pt x="87" y="521" on="0"/>
        <pt x="83" y="549" on="0"/>
        <pt x="83" y="564" on="1"/>
        <pt x="83" y="598" on="0"/>
        <pt x="110" y="654" on="0"/>
        <pt x="158" y="693" on="0"/>
        <pt x="225" y="714" on="0"/>
        <pt x="265" y="714" on="1"/>
        <pt x="311" y="714" on="0"/>
        <pt x="378" y="691" on="0"/>
        <pt x="422" y="650" on="0"/>
        <pt x="443" y="596" on="0"/>
        <pt x="443" y="565" on="1"/>
        <pt x="443" y="511" on="0"/>
        <pt x="382" y="425" on="0"/>
        <pt x="319" y="380" on="1"/>
      </contour>
      <contour>
        <pt x="223" y="313" on="1"/>
        <pt x="181" y="281" on="0"/>
        <pt x="150" y="225" on="0"/>
        <pt x="150" y="192" on="1"/>
        <pt x="150" y="175" on="0"/>
        <pt x="163" y="142" on="0"/>
        <pt x="188" y="115" on="0"/>
        <pt x="226" y="98" on="0"/>
        <pt x="250" y="98" on="1"/>
        <pt x="307" y="98" on="0"/>
        <pt x="343" y="143" on="1"/>
      </contour>
      <contour>
        <pt x="201" y="568" on="1"/>
        <pt x="201" y="538" on="0"/>
        <pt x="237" y="490" on="1"/>
        <pt x="254" y="466" on="1"/>
        <pt x="280" y="488" on="1"/>
        <pt x="304" y="508" on="0"/>
        <pt x="325" y="547" on="0"/>
        <pt x="325" y="566" on="1"/>
        <pt x="325" y="595" on="0"/>
        <pt x="290" y="626" on="0"/>
        <pt x="262" y="626" on="1"/>
        <pt x="236" y="626" on="0"/>
        <pt x="201" y="596" on="0"/>
      </contour>
    </TTGlyph>
    <TTGlyph name="aogonek" xMin="28" yMin="-217" xMax="446" yMax="552">
      <contour>
        <pt x="409" y="-182" on="1"/>
        <pt x="383" y="-202" on="0"/>
        <pt x="338" y="-217" on="0"/>
        <pt x="306" y="-217" on="1"/>
        <pt x="280" y="-217" on="0"/>
        <pt x="246" y="-202" on="0"/>
        <pt x="227" y="-180" on="0"/>
        <pt x="220" y="-152" on="0"/>
        <pt x="220" y="-138" on="1"/>
        <pt x="220" y="-101" on="0"/>
        <pt x="275" y="-31" on="0"/>
        <pt x="313" y="0" on="1"/>
        <pt x="307" y="13" on="0"/>
        <pt x="300" y="42" on="0"/>
        <pt x="297" y="56" on="1"/>
        <pt x="295" y="56" on="1"/>
        <pt x="271" y="14" on="0"/>
        <pt x="208" y="-14" on="0"/>
        <pt x="158" y="-14" on="1"/>
        <pt x="122" y="-14" on="0"/>
        <pt x="72" y="14" on="0"/>
        <pt x="42" y="58" on="0"/>
        <pt x="28" y="113" on="0"/>
        <pt x="28" y="140" on="1"/>
        <pt x="28" y="178" on="0"/>
        <pt x="44" y="233" on="0"/>
        <pt x="77" y="272" on="0"/>
        <pt x="128" y="298" on="0"/>
        <pt x="164" y="308" on="1"/>
        <pt x="242" y="329" on="1"/>
        <pt x="273" y="337" on="0"/>
        <pt x="297" y="365" on="0"/>
        <pt x="297" y="392" on="1"/>
        <pt x="297" y="423" on="0"/>
        <pt x="268" y="458" on="0"/>
        <pt x="233" y="458" on="1"/>
        <pt x="201" y="458" on="0"/>
        <pt x="169" y="420" on="0"/>
        <pt x="169" y="388" on="1"/>
        <pt x="169" y="373" on="1"/>
        <pt x="45" y="373" on="1"/>
        <pt x="45" y="386" on="1"/>
        <pt x="45" y="432" on="0"/>
        <pt x="75" y="496" on="0"/>
        <pt x="126" y="535" on="0"/>
        <pt x="195" y="552" on="0"/>
        <pt x="234" y="552" on="1"/>
        <pt x="295" y="552" on="0"/>
        <pt x="372" y="528" on="0"/>
        <pt x="414" y="484" on="0"/>
        <pt x="429" y="423" on="0"/>
        <pt x="429" y="387" on="1"/>
        <pt x="429" y="104" on="1"/>
        <pt x="429" y="66" on="0"/>
        <pt x="436" y="24" on="0"/>
        <pt x="446" y="0" on="1"/>
        <pt x="380" y="0" on="1"/>
        <pt x="382" y="1" on="1"/>
        <pt x="381" y="1" on="1"/>
        <pt x="354" y="-24" on="0"/>
        <pt x="341" y="-39" on="1"/>
        <pt x="300" y="-89" on="0"/>
        <pt x="300" y="-122" on="1"/>
        <pt x="300" y="-153" on="0"/>
        <pt x="325" y="-153" on="1"/>
        <pt x="338" y="-153" on="0"/>
        <pt x="362" y="-146" on="0"/>
        <pt x="382" y="-133" on="1"/>
      </contour>
      <contour>
        <pt x="297" y="269" on="1"/>
        <pt x="283" y="258" on="0"/>
        <pt x="251" y="245" on="0"/>
        <pt x="238" y="242" on="1"/>
        <pt x="196" y="233" on="0"/>
        <pt x="160" y="191" on="0"/>
        <pt x="160" y="155" on="1"/>
        <pt x="160" y="124" on="0"/>
        <pt x="184" y="80" on="0"/>
        <pt x="212" y="80" on="1"/>
        <pt x="226" y="80" on="0"/>
        <pt x="256" y="89" on="0"/>
        <pt x="281" y="109" on="0"/>
        <pt x="297" y="140" on="0"/>
        <pt x="297" y="163" on="1"/>
      </contour>
    </TTGlyph>
    <TTGlyph name="approxequal" xMin="25" yMin="68" xMax="567" yMax="457">
      <contour>
        <pt x="567" y="457" on="1"/>
        <pt x="564" y="422" on="0"/>
        <pt x="544" y="358" on="0"/>
        <pt x="507" y="310" on="0"/>
        <pt x="451" y="281" on="0"/>
        <pt x="411" y="281" on="1"/>
        <pt x="383" y="281" on="0"/>
        <pt x="316" y="302" on="0"/>
        <pt x="249" y="326" on="0"/>
        <pt x="187" y="347" on="0"/>
        <pt x="164" y="347" on="1"/>
        <pt x="136" y="347" on="0"/>
        <pt x="106" y="306" on="0"/>
        <pt x="102" y="281" on="1"/>
        <pt x="27" y="281" on="1"/>
        <pt x="30" y="314" on="0"/>
        <pt x="49" y="377" on="0"/>
        <pt x="85" y="426" on="0"/>
        <pt x="140" y="456" on="0"/>
        <pt x="178" y="456" on="1"/>
        <pt x="208" y="456" on="0"/>
        <pt x="273" y="436" on="0"/>
        <pt x="339" y="413" on="0"/>
        <pt x="403" y="393" on="0"/>
        <pt x="431" y="393" on="1"/>
        <pt x="460" y="393" on="0"/>
        <pt x="488" y="431" on="0"/>
        <pt x="493" y="457" on="1"/>
        <pt x="567" y="457" on="1"/>
      </contour>
      <contour>
        <pt x="565" y="244" on="1"/>
        <pt x="562" y="210" on="0"/>
        <pt x="543" y="146" on="0"/>
        <pt x="507" y="97" on="0"/>
        <pt x="453" y="68" on="0"/>
        <pt x="414" y="68" on="1"/>
        <pt x="385" y="68" on="0"/>
        <pt x="315" y="89" on="0"/>
        <pt x="246" y="114" on="0"/>
        <pt x="183" y="135" on="0"/>
        <pt x="162" y="135" on="1"/>
        <pt x="135" y="135" on="0"/>
        <pt x="104" y="92" on="0"/>
        <pt x="100" y="68" on="1"/>
        <pt x="25" y="68" on="1"/>
        <pt x="28" y="101" on="0"/>
        <pt x="47" y="165" on="0"/>
        <pt x="84" y="214" on="0"/>
        <pt x="138" y="245" on="0"/>
        <pt x="176" y="245" on="1"/>
        <pt x="207" y="245" on="0"/>
        <pt x="271" y="225" on="0"/>
        <pt x="335" y="201" on="0"/>
        <pt x="399" y="181" on="0"/>
        <pt x="430" y="181" on="1"/>
        <pt x="458" y="181" on="0"/>
        <pt x="486" y="218" on="0"/>
        <pt x="491" y="244" on="1"/>
        <pt x="565" y="244" on="1"/>
      </contour>
    </TTGlyph>
    <TTGlyph name="aring" xMin="28" yMin="-14" xMax="446" yMax="800">
      <component glyphName="a" x="0" y="0" flags="0x204"/>
      <component glyphName="ring" x="126" y="0" flags="0x4"/>
    </TTGlyph>
    <TTGlyph name="asciicircum" xMin="56" yMin="309" xMax="544" yMax="694">
      <contour>
        <pt x="56" y="309" on="1"/>
        <pt x="244" y="694" on="1"/>
        <pt x="356" y="694" on="1"/>
        <pt x="544" y="309" on="1"/>
        <pt x="420" y="309" on="1"/>
        <pt x="300" y="556" on="1"/>
        <pt x="180" y="309" on="1"/>
      </contour>
    </TTGlyph>
    <TTGlyph name="asciitilde" xMin="69" yMin="157" xMax="531" yMax="349">
      <contour>
        <pt x="531" y="243" on="1"/>
        <pt x="511" y="205" on="0"/>
        <pt x="453" y="157" on="0"/>
        <pt x="408" y="157" on="1"/>
        <pt x="374" y="157" on="0"/>
        <pt x="319" y="176" on="0"/>
        <pt x="290" y="191" on="1"/>
        <pt x="269" y="202" on="0"/>
        <pt x="240" y="215" on="0"/>
        <pt x="219" y="223" on="0"/>
        <pt x="203" y="225" on="0"/>
        <pt x="195" y="225" on="1"/>
        <pt x="180" y="225" on="0"/>
        <pt x="152" y="211" on="0"/>
        <pt x="127" y="190" on="0"/>
        <pt x="109" y="166" on="0"/>
        <pt x="105" y="157" on="1"/>
        <pt x="69" y="263" on="1"/>
        <pt x="89" y="301" on="0"/>
        <pt x="147" y="349" on="0"/>
        <pt x="192" y="349" on="1"/>
        <pt x="245" y="349" on="0"/>
        <pt x="301" y="320" on="1"/>
        <pt x="342" y="298" on="0"/>
        <pt x="384" y="281" on="0"/>
        <pt x="405" y="281" on="1"/>
        <pt x="420" y="281" on="0"/>
        <pt x="448" y="295" on="0"/>
        <pt x="473" y="316" on="0"/>
        <pt x="491" y="340" on="0"/>
        <pt x="495" y="349" on="1"/>
      </contour>
    </TTGlyph>
    <TTGlyph name="asterisk" xMin="7" yMin="356" xMax="383" yMax="714">
      <contour>
        <pt x="236" y="714" on="1"/>
        <pt x="236" y="586" on="1"/>
        <pt x="358" y="626" on="1"/>
        <pt x="383" y="548" on="1"/>
        <pt x="261" y="508" on="1"/>
        <pt x="337" y="404" on="1"/>
        <pt x="270" y="356" on="1"/>
        <pt x="195" y="460" on="1"/>
        <pt x="120" y="356" on="1"/>
        <pt x="53" y="404" on="1"/>
        <pt x="129" y="508" on="1"/>
        <pt x="7" y="548" on="1"/>
        <pt x="32" y="626" on="1"/>
        <pt x="154" y="586" on="1"/>
        <pt x="154" y="714" on="1"/>
      </contour>
    </TTGlyph>
    <TTGlyph name="at" xMin="29" yMin="-14" xMax="771" yMax="728">
      <contour>
        <pt x="535" y="541" on="1"/>
        <pt x="623" y="541" on="1"/>
        <pt x="565" y="291" on="1"/>
        <pt x="559" y="262" on="0"/>
        <pt x="559" y="250" on="1"/>
        <pt x="559" y="230" on="0"/>
        <pt x="579" y="230" on="1"/>
        <pt x="594" y="230" on="0"/>
        <pt x="630" y="255" on="0"/>
        <pt x="661" y="300" on="0"/>
        <pt x="683" y="365" on="0"/>
        <pt x="683" y="404" on="1"/>
        <pt x="683" y="454" on="0"/>
        <pt x="639" y="538" on="0"/>
        <pt x="565" y="600" on="0"/>
        <pt x="469" y="634" on="0"/>
        <pt x="417" y="634" on="1"/>
        <pt x="358" y="634" on="0"/>
        <pt x="257" y="588" on="0"/>
        <pt x="183" y="510" on="0"/>
        <pt x="141" y="410" on="0"/>
        <pt x="141" y="356" on="1"/>
        <pt x="141" y="299" on="0"/>
        <pt x="187" y="198" on="0"/>
        <pt x="264" y="123" on="0"/>
        <pt x="367" y="80" on="0"/>
        <pt x="424" y="80" on="1"/>
        <pt x="493" y="80" on="0"/>
        <pt x="599" y="119" on="0"/>
        <pt x="641" y="144" on="1"/>
        <pt x="730" y="144" on="1"/>
        <pt x="676" y="69" on="0"/>
        <pt x="514" y="-14" on="0"/>
        <pt x="400" y="-14" on="1"/>
        <pt x="323" y="-14" on="0"/>
        <pt x="188" y="44" on="0"/>
        <pt x="87" y="145" on="0"/>
        <pt x="29" y="280" on="0"/>
        <pt x="29" y="357" on="1"/>
        <pt x="29" y="434" on="0"/>
        <pt x="87" y="569" on="0"/>
        <pt x="188" y="670" on="0"/>
        <pt x="323" y="728" on="0"/>
        <pt x="400" y="728" on="1"/>
        <pt x="475" y="728" on="0"/>
        <pt x="610" y="685" on="0"/>
        <pt x="711" y="605" on="0"/>
        <pt x="771" y="494" on="0"/>
        <pt x="771" y="425" on="1"/>
        <pt x="771" y="372" on="0"/>
        <pt x="743" y="289" on="0"/>
        <pt x="698" y="225" on="0"/>
        <pt x="642" y="180" on="0"/>
        <pt x="586" y="152" on="0"/>
        <pt x="536" y="139" on="0"/>
        <pt x="520" y="139" on="1"/>
        <pt x="460" y="139" on="0"/>
        <pt x="455" y="192" on="1"/>
        <pt x="453" y="192" on="1"/>
        <pt x="433" y="171" on="0"/>
        <pt x="373" y="139" on="0"/>
        <pt x="333" y="139" on="1"/>
        <pt x="306" y="139" on="0"/>
        <pt x="254" y="162" on="0"/>
        <pt x="213" y="206" on="0"/>
        <pt x="187" y="269" on="0"/>
        <pt x="187" y="309" on="1"/>
        <pt x="187" y="355" on="0"/>
        <pt x="217" y="443" on="0"/>
        <pt x="273" y="512" on="0"/>
        <pt x="352" y="555" on="0"/>
        <pt x="401" y="555" on="1"/>
        <pt x="439" y="555" on="0"/>
        <pt x="500" y="523" on="0"/>
        <pt x="522" y="488" on="1"/>
      </contour>
      <contour>
        <pt x="299" y="326" on="1"/>
        <pt x="299" y="293" on="0"/>
        <pt x="338" y="245" on="0"/>
        <pt x="370" y="245" on="1"/>
        <pt x="395" y="245" on="0"/>
        <pt x="438" y="268" on="0"/>
        <pt x="469" y="305" on="0"/>
        <pt x="486" y="350" on="0"/>
        <pt x="486" y="373" on="1"/>
        <pt x="486" y="405" on="0"/>
        <pt x="442" y="449" on="0"/>
        <pt x="411" y="449" on="1"/>
        <pt x="387" y="449" on="0"/>
        <pt x="346" y="426" on="0"/>
        <pt x="316" y="390" on="0"/>
        <pt x="299" y="347" on="0"/>
      </contour>
    </TTGlyph>
    <TTGlyph name="atilde" xMin="28" yMin="-14" xMax="446" yMax="737">
      <component glyphName="a" x="0" y="0" flags="0x204"/>
      <component glyphName="tilde" x="131" y="0" flags="0x4"/>
    </TTGlyph>
    <TTGlyph name="b" xMin="46" yMin="-14" xMax="467" yMax="714">
      <contour>
        <pt x="46" y="714" on="1"/>
        <pt x="184" y="714" on="1"/>
        <pt x="184" y="488" on="1"/>
        <pt x="186" y="488" on="1"/>
        <pt x="208" y="520" on="0"/>
        <pt x="263" y="552" on="0"/>
        <pt x="302" y="552" on="1"/>
        <pt x="387" y="552" on="0"/>
        <pt x="467" y="419" on="0"/>
        <pt x="467" y="269" on="1"/>
        <pt x="467" y="119" on="0"/>
        <pt x="387" y="-14" on="0"/>
        <pt x="302" y="-14" on="1"/>
        <pt x="260" y="-14" on="0"/>
        <pt x="203" y="19" on="0"/>
        <pt x="180" y="57" on="1"/>
        <pt x="178" y="57" on="1"/>
        <pt x="178" y="0" on="1"/>
        <pt x="46" y="0" on="1"/>
      </contour>
      <contour>
        <pt x="184" y="269" on="1"/>
        <pt x="184" y="181" on="0"/>
        <pt x="211" y="92" on="0"/>
        <pt x="257" y="92" on="1"/>
        <pt x="302" y="92" on="0"/>
        <pt x="329" y="181" on="0"/>
        <pt x="329" y="269" on="1"/>
        <pt x="329" y="357" on="0"/>
        <pt x="302" y="446" on="0"/>
        <pt x="257" y="446" on="1"/>
        <pt x="211" y="446" on="0"/>
        <pt x="184" y="357" on="0"/>
      </contour>
    </TTGlyph>
    <TTGlyph name="backslash" xMin="-3" yMin="-14" xMax="335" yMax="728">
      <contour>
        <pt x="-3" y="728" on="1"/>
        <pt x="109" y="728" on="1"/>
        <pt x="335" y="-14" on="1"/>
        <pt x="223" y="-14" on="1"/>
      </contour>
    </TTGlyph>
    <TTGlyph name="bar" xMin="49" yMin="-14" xMax="173" yMax="728">
      <contour>
        <pt x="49" y="728" on="1"/>
        <pt x="173" y="728" on="1"/>
        <pt x="173" y="-14" on="1"/>
        <pt x="49" y="-14" on="1"/>
      </contour>
    </TTGlyph>
    <TTGlyph name="braceleft" xMin="30" yMin="-184" xMax="289" yMax="714">
      <contour>
        <pt x="30" y="306" on="1"/>
        <pt x="55" y="306" on="0"/>
        <pt x="96" y="352" on="0"/>
        <pt x="96" y="387" on="1"/>
        <pt x="96" y="580" on="1"/>
        <pt x="96" y="644" on="0"/>
        <pt x="149" y="714" on="0"/>
        <pt x="200" y="714" on="1"/>
        <pt x="289" y="714" on="1"/>
        <pt x="289" y="614" on="1"/>
        <pt x="259" y="614" on="1"/>
        <pt x="235" y="614" on="0"/>
        <pt x="220" y="571" on="0"/>
        <pt x="220" y="542" on="1"/>
        <pt x="220" y="376" on="1"/>
        <pt x="220" y="331" on="0"/>
        <pt x="180" y="272" on="0"/>
        <pt x="148" y="266" on="1"/>
        <pt x="148" y="264" on="1"/>
        <pt x="180" y="258" on="0"/>
        <pt x="220" y="199" on="0"/>
        <pt x="220" y="154" on="1"/>
        <pt x="220" y="-12" on="1"/>
        <pt x="220" y="-41" on="0"/>
        <pt x="235" y="-84" on="0"/>
        <pt x="259" y="-84" on="1"/>
        <pt x="289" y="-84" on="1"/>
        <pt x="289" y="-184" on="1"/>
        <pt x="200" y="-184" on="1"/>
        <pt x="149" y="-184" on="0"/>
        <pt x="96" y="-114" on="0"/>
        <pt x="96" y="-50" on="1"/>
        <pt x="96" y="143" on="1"/>
        <pt x="96" y="178" on="0"/>
        <pt x="55" y="224" on="0"/>
        <pt x="30" y="224" on="1"/>
      </contour>
    </TTGlyph>
    <TTGlyph name="braceright" xMin="26" yMin="-184" xMax="285" yMax="714">
      <contour>
        <pt x="26" y="-84" on="1"/>
        <pt x="56" y="-84" on="1"/>
        <pt x="80" y="-84" on="0"/>
        <pt x="95" y="-41" on="0"/>
        <pt x="95" y="-12" on="1"/>
        <pt x="95" y="154" on="1"/>
        <pt x="95" y="199" on="0"/>
        <pt x="135" y="258" on="0"/>
        <pt x="167" y="264" on="1"/>
        <pt x="167" y="266" on="1"/>
        <pt x="135" y="272" on="0"/>
        <pt x="95" y="331" on="0"/>
        <pt x="95" y="376" on="1"/>
        <pt x="95" y="542" on="1"/>
        <pt x="95" y="571" on="0"/>
        <pt x="80" y="614" on="0"/>
        <pt x="56" y="614" on="1"/>
        <pt x="26" y="614" on="1"/>
        <pt x="26" y="714" on="1"/>
        <pt x="115" y="714" on="1"/>
        <pt x="166" y="714" on="0"/>
        <pt x="219" y="644" on="0"/>
        <pt x="219" y="580" on="1"/>
        <pt x="219" y="387" on="1"/>
        <pt x="219" y="352" on="0"/>
        <pt x="260" y="306" on="0"/>
        <pt x="285" y="306" on="1"/>
        <pt x="285" y="224" on="1"/>
        <pt x="260" y="224" on="0"/>
        <pt x="219" y="178" on="0"/>
        <pt x="219" y="143" on="1"/>
        <pt x="219" y="-50" on="1"/>
        <pt x="219" y="-114" on="0"/>
        <pt x="166" y="-184" on="0"/>
        <pt x="115" y="-184" on="1"/>
        <pt x="26" y="-184" on="1"/>
      </contour>
    </TTGlyph>
    <TTGlyph name="bracketleft" xMin="80" yMin="-184" xMax="309" yMax="714">
      <contour>
        <pt x="80" y="714" on="1"/>
        <pt x="309" y="714" on="1"/>
        <pt x="309" y="614" on="1"/>
        <pt x="204" y="614" on="1"/>
        <pt x="204" y="-84" on="1"/>
        <pt x="309" y="-84" on="1"/>
        <pt x="309" y="-184" on="1"/>
        <pt x="80" y="-184" on="1"/>
      </contour>
    </TTGlyph>
    <TTGlyph name="bracketright" xMin="6" yMin="-184" xMax="235" yMax="714">
      <contour>
        <pt x="6" y="-84" on="1"/>
        <pt x="111" y="-84" on="1"/>
        <pt x="111" y="614" on="1"/>
        <pt x="6" y="614" on="1"/>
        <pt x="6" y="714" on="1"/>
        <pt x="235" y="714" on="1"/>
        <pt x="235" y="-184" on="1"/>
        <pt x="6" y="-184" on="1"/>
      </contour>
    </TTGlyph>
    <TTGlyph name="breve" xMin="-28" yMin="604" xMax="250" yMax="745">
      <contour>
        <pt x="37" y="745" on="1"/>
        <pt x="40" y="716" on="0"/>
        <pt x="82" y="680" on="0"/>
        <pt x="111" y="680" on="1"/>
        <pt x="140" y="680" on="0"/>
        <pt x="182" y="716" on="0"/>
        <pt x="185" y="745" on="1"/>
        <pt x="250" y="745" on="1"/>
        <pt x="250" y="725" on="0"/>
        <pt x="237" y="676" on="0"/>
        <pt x="205" y="633" on="0"/>
        <pt x="151" y="604" on="0"/>
        <pt x="111" y="604" on="1"/>
        <pt x="70" y="604" on="0"/>
        <pt x="17" y="633" on="0"/>
        <pt x="-15" y="676" on="0"/>
        <pt x="-28" y="725" on="0"/>
        <pt x="-28" y="745" on="1"/>
      </contour>
    </TTGlyph>
    <TTGlyph name="breve.cap" xMin="-28" yMin="758" xMax="250" yMax="899">
      <contour>
        <pt x="37" y="899" on="1"/>
        <pt x="40" y="870" on="0"/>
        <pt x="82" y="834" on="0"/>
        <pt x="111" y="834" on="1"/>
        <pt x="140" y="834" on="0"/>
        <pt x="182" y="870" on="0"/>
        <pt x="185" y="899" on="1"/>
        <pt x="250" y="899" on="1"/>
        <pt x="250" y="879" on="0"/>
        <pt x="237" y="830" on="0"/>
        <pt x="205" y="787" on="0"/>
        <pt x="151" y="758" on="0"/>
        <pt x="111" y="758" on="1"/>
        <pt x="70" y="758" on="0"/>
        <pt x="17" y="787" on="0"/>
        <pt x="-15" y="830" on="0"/>
        <pt x="-28" y="879" on="0"/>
        <pt x="-28" y="899" on="1"/>
      </contour>
    </TTGlyph>
    <TTGlyph name="brokenbar" xMin="49" yMin="-14" xMax="173" yMax="728">
      <contour>
        <pt x="49" y="728" on="1"/>
        <pt x="173" y="728" on="1"/>
        <pt x="173" y="457" on="1"/>
        <pt x="49" y="457" on="1"/>
      </contour>
      <contour>
        <pt x="49" y="257" on="1"/>
        <pt x="173" y="257" on="1"/>
        <pt x="173" y="-14" on="1"/>
        <pt x="49" y="-14" on="1"/>
      </contour>
    </TTGlyph>
    <TTGlyph name="bullet" xMin="72" yMin="179" xMax="428" yMax="535">
      <contour>
        <pt x="72" y="357" on="1"/>
        <pt x="72" y="394" on="0"/>
        <pt x="100" y="459" on="0"/>
        <pt x="148" y="507" on="0"/>
        <pt x="213" y="535" on="0"/>
        <pt x="250" y="535" on="1"/>
        <pt x="287" y="535" on="0"/>
        <pt x="352" y="507" on="0"/>
        <pt x="400" y="459" on="0"/>
        <pt x="428" y="394" on="0"/>
        <pt x="428" y="357" on="1"/>
        <pt x="428" y="320" on="0"/>
        <pt x="400" y="255" on="0"/>
        <pt x="352" y="207" on="0"/>
        <pt x="287" y="179" on="0"/>
        <pt x="250" y="179" on="1"/>
        <pt x="213" y="179" on="0"/>
        <pt x="148" y="207" on="0"/>
        <pt x="100" y="255" on="0"/>
        <pt x="72" y="320" on="0"/>
      </contour>
    </TTGlyph>
    <TTGlyph name="c" xMin="26" yMin="-14" xMax="437" yMax="552">
      <contour>
        <pt x="305" y="344" on="1"/>
        <pt x="305" y="363" on="0"/>
        <pt x="300" y="402" on="0"/>
        <pt x="287" y="433" on="0"/>
        <pt x="262" y="452" on="0"/>
        <pt x="243" y="452" on="1"/>
        <pt x="217" y="452" on="0"/>
        <pt x="186" y="429" on="0"/>
        <pt x="170" y="384" on="0"/>
        <pt x="164" y="314" on="0"/>
        <pt x="164" y="268" on="1"/>
        <pt x="164" y="218" on="0"/>
        <pt x="170" y="147" on="0"/>
        <pt x="186" y="101" on="0"/>
        <pt x="215" y="80" on="0"/>
        <pt x="238" y="80" on="1"/>
        <pt x="273" y="80" on="0"/>
        <pt x="305" y="140" on="0"/>
        <pt x="305" y="206" on="1"/>
        <pt x="437" y="206" on="1"/>
        <pt x="437" y="100" on="0"/>
        <pt x="342" y="-14" on="0"/>
        <pt x="232" y="-14" on="1"/>
        <pt x="180" y="-14" on="0"/>
        <pt x="103" y="14" on="0"/>
        <pt x="52" y="79" on="0"/>
        <pt x="26" y="188" on="0"/>
        <pt x="26" y="269" on="1"/>
        <pt x="26" y="352" on="0"/>
        <pt x="58" y="461" on="0"/>
        <pt x="116" y="526" on="0"/>
        <pt x="196" y="552" on="0"/>
        <pt x="244" y="552" on="1"/>
        <pt x="340" y="552" on="0"/>
        <pt x="437" y="440" on="0"/>
        <pt x="437" y="344" on="1"/>
      </contour>
    </TTGlyph>
    <TTGlyph name="cacute" xMin="26" yMin="-14" xMax="437" yMax="746">
      <component glyphName="c" x="0" y="0" flags="0x204"/>
      <component glyphName="acute" x="145" y="0" flags="0x4"/>
    </TTGlyph>
    <TTGlyph name="caron" xMin="-39" yMin="602" xMax="261" yMax="746">
      <contour>
        <pt x="-39" y="746" on="1"/>
        <pt x="67" y="746" on="1"/>
        <pt x="113" y="661" on="1"/>
        <pt x="161" y="746" on="1"/>
        <pt x="261" y="746" on="1"/>
        <pt x="183" y="602" on="1"/>
        <pt x="39" y="602" on="1"/>
      </contour>
    </TTGlyph>
    <TTGlyph name="caron.alt" xMin="46" yMin="570" xMax="199" yMax="714">
      <contour>
        <pt x="79" y="714" on="1"/>
        <pt x="199" y="714" on="1"/>
        <pt x="136" y="570" on="1"/>
        <pt x="46" y="570" on="1"/>
      </contour>
    </TTGlyph>
    <TTGlyph name="caron.cap" xMin="-39" yMin="756" xMax="261" yMax="900">
      <contour>
        <pt x="-39" y="900" on="1"/>
        <pt x="67" y="900" on="1"/>
        <pt x="113" y="815" on="1"/>
        <pt x="161" y="900" on="1"/>
        <pt x="261" y="900" on="1"/>
        <pt x="183" y="756" on="1"/>
        <pt x="39" y="756" on="1"/>
      </contour>
    </TTGlyph>
    <TTGlyph name="ccaron" xMin="26" yMin="-14" xMax="437" yMax="746">
      <component glyphName="c" x="0" y="0" flags="0x204"/>
      <component glyphName="caron" x="132" y="0" flags="0x4"/>
    </TTGlyph>
    <TTGlyph name="ccedilla" xMin="26" yMin="-217" xMax="437" yMax="552">
      <contour>
        <pt x="305" y="344" on="1"/>
        <pt x="305" y="363" on="0"/>
        <pt x="300" y="402" on="0"/>
        <pt x="287" y="433" on="0"/>
        <pt x="262" y="452" on="0"/>
        <pt x="243" y="452" on="1"/>
        <pt x="217" y="452" on="0"/>
        <pt x="186" y="429" on="0"/>
        <pt x="170" y="384" on="0"/>
        <pt x="164" y="314" on="0"/>
        <pt x="164" y="268" on="1"/>
        <pt x="164" y="218" on="0"/>
        <pt x="170" y="147" on="0"/>
        <pt x="186" y="101" on="0"/>
        <pt x="215" y="80" on="0"/>
        <pt x="238" y="80" on="1"/>
        <pt x="273" y="80" on="0"/>
        <pt x="305" y="140" on="0"/>
        <pt x="305" y="206" on="1"/>
        <pt x="437" y="206" on="1"/>
        <pt x="437" y="100" on="0"/>
        <pt x="389" y="43" on="1"/>
        <pt x="349" y="-5" on="0"/>
        <pt x="261" y="-13" on="1"/>
        <pt x="232" y="-58" on="1"/>
        <pt x="241" y="-55" on="0"/>
        <pt x="256" y="-53" on="0"/>
        <pt x="265" y="-53" on="1"/>
        <pt x="281" y="-53" on="0"/>
        <pt x="312" y="-62" on="0"/>
        <pt x="336" y="-80" on="0"/>
        <pt x="350" y="-107" on="0"/>
        <pt x="349" y="-125" on="1"/>
        <pt x="349" y="-170" on="0"/>
        <pt x="284" y="-217" on="0"/>
        <pt x="223" y="-217" on="1"/>
        <pt x="190" y="-217" on="0"/>
        <pt x="135" y="-205" on="0"/>
        <pt x="123" y="-198" on="1"/>
        <pt x="142" y="-152" on="1"/>
        <pt x="153" y="-158" on="0"/>
        <pt x="192" y="-167" on="0"/>
        <pt x="211" y="-167" on="1"/>
        <pt x="232" y="-167" on="0"/>
        <pt x="261" y="-149" on="0"/>
        <pt x="261" y="-134" on="1"/>
        <pt x="261" y="-119" on="0"/>
        <pt x="237" y="-103" on="0"/>
        <pt x="217" y="-102" on="1"/>
        <pt x="206" y="-102" on="0"/>
        <pt x="191" y="-105" on="0"/>
        <pt x="183" y="-108" on="1"/>
        <pt x="161" y="-88" on="1"/>
        <pt x="209" y="-13" on="1"/>
        <pt x="190" y="-12" on="0"/>
        <pt x="156" y="-5" on="0"/>
        <pt x="141" y="0" on="1"/>
        <pt x="84" y="21" on="0"/>
        <pt x="26" y="147" on="0"/>
        <pt x="26" y="269" on="1"/>
        <pt x="26" y="352" on="0"/>
        <pt x="58" y="461" on="0"/>
        <pt x="116" y="526" on="0"/>
        <pt x="196" y="552" on="0"/>
        <pt x="244" y="552" on="1"/>
        <pt x="340" y="552" on="0"/>
        <pt x="437" y="440" on="0"/>
        <pt x="437" y="344" on="1"/>
      </contour>
    </TTGlyph>
    <TTGlyph name="ccircumflex" xMin="26" yMin="-14" xMax="437" yMax="746">
      <component glyphName="c" x="0" y="0" flags="0x204"/>
      <component glyphName="circumflex" x="131" y="0" flags="0x4"/>
    </TTGlyph>
    <TTGlyph name="cdotaccent" xMin="26" yMin="-14" xMax="437" yMax="733">
      <component glyphName="c" x="0" y="0" flags="0x204"/>
      <component glyphName="dotaccent" x="129" y="0" flags="0x4"/>
    </TTGlyph>
    <TTGlyph name="cedilla" xMin="0" yMin="-217" xMax="227" yMax="0">
      <contour>
        <pt x="147" y="0" on="1"/>
        <pt x="109" y="-58" on="1"/>
        <pt x="118" y="-55" on="0"/>
        <pt x="133" y="-53" on="0"/>
        <pt x="142" y="-53" on="1"/>
        <pt x="158" y="-53" on="0"/>
        <pt x="189" y="-62" on="0"/>
        <pt x="213" y="-80" on="0"/>
        <pt x="227" y="-107" on="0"/>
        <pt x="226" y="-125" on="1"/>
        <pt x="226" y="-170" on="0"/>
        <pt x="161" y="-217" on="0"/>
        <pt x="100" y="-217" on="1"/>
        <pt x="67" y="-217" on="0"/>
        <pt x="12" y="-205" on="0"/>
        <pt x="0" y="-198" on="1"/>
        <pt x="19" y="-152" on="1"/>
        <pt x="30" y="-158" on="0"/>
        <pt x="69" y="-167" on="0"/>
        <pt x="88" y="-167" on="1"/>
        <pt x="109" y="-167" on="0"/>
        <pt x="138" y="-149" on="0"/>
        <pt x="138" y="-134" on="1"/>
        <pt x="138" y="-119" on="0"/>
        <pt x="114" y="-103" on="0"/>
        <pt x="94" y="-102" on="1"/>
        <pt x="83" y="-102" on="0"/>
        <pt x="68" y="-105" on="0"/>
        <pt x="60" y="-108" on="1"/>
        <pt x="38" y="-88" on="1"/>
        <pt x="95" y="0" on="1"/>
      </contour>
    </TTGlyph>
    <TTGlyph name="cent" xMin="33" yMin="-102" xMax="447" yMax="628">
      <contour>
        <pt x="222" y="-14" on="1"/>
        <pt x="182" y="-12" on="0"/>
        <pt x="113" y="13" on="0"/>
        <pt x="62" y="75" on="0"/>
        <pt x="33" y="182" on="0"/>
        <pt x="33" y="265" on="1"/>
        <pt x="33" y="322" on="0"/>
        <pt x="47" y="422" on="0"/>
        <pt x="88" y="499" on="0"/>
        <pt x="162" y="547" on="0"/>
        <pt x="222" y="552" on="1"/>
        <pt x="222" y="628" on="1"/>
        <pt x="274" y="628" on="1"/>
        <pt x="274" y="552" on="1"/>
        <pt x="306" y="550" on="0"/>
        <pt x="368" y="531" on="0"/>
        <pt x="417" y="486" on="0"/>
        <pt x="447" y="409" on="0"/>
        <pt x="447" y="348" on="1"/>
        <pt x="315" y="348" on="1"/>
        <pt x="315" y="363" on="0"/>
        <pt x="312" y="396" on="0"/>
        <pt x="304" y="424" on="0"/>
        <pt x="287" y="447" on="0"/>
        <pt x="274" y="452" on="1"/>
        <pt x="274" y="86" on="1"/>
        <pt x="289" y="95" on="0"/>
        <pt x="305" y="124" on="0"/>
        <pt x="313" y="158" on="0"/>
        <pt x="315" y="194" on="0"/>
        <pt x="315" y="209" on="1"/>
        <pt x="447" y="209" on="1"/>
        <pt x="447" y="109" on="0"/>
        <pt x="367" y="-3" on="0"/>
        <pt x="274" y="-14" on="1"/>
        <pt x="274" y="-102" on="1"/>
        <pt x="222" y="-102" on="1"/>
      </contour>
      <contour>
        <pt x="222" y="452" on="1"/>
        <pt x="189" y="440" on="0"/>
        <pt x="171" y="349" on="0"/>
        <pt x="171" y="271" on="1"/>
        <pt x="171" y="241" on="0"/>
        <pt x="173" y="180" on="0"/>
        <pt x="182" y="129" on="0"/>
        <pt x="203" y="92" on="0"/>
        <pt x="222" y="86" on="1"/>
      </contour>
    </TTGlyph>
    <TTGlyph name="circumflex" xMin="-39" yMin="602" xMax="261" yMax="746">
      <contour>
        <pt x="39" y="746" on="1"/>
        <pt x="183" y="746" on="1"/>
        <pt x="261" y="602" on="1"/>
        <pt x="155" y="602" on="1"/>
        <pt x="109" y="687" on="1"/>
        <pt x="61" y="602" on="1"/>
        <pt x="-39" y="602" on="1"/>
      </contour>
    </TTGlyph>
    <TTGlyph name="circumflex.cap" xMin="-39" yMin="756" xMax="261" yMax="900">
      <contour>
        <pt x="39" y="900" on="1"/>
        <pt x="183" y="900" on="1"/>
        <pt x="261" y="756" on="1"/>
        <pt x="155" y="756" on="1"/>
        <pt x="109" y="841" on="1"/>
        <pt x="61" y="756" on="1"/>
        <pt x="-39" y="756" on="1"/>
      </contour>
    </TTGlyph>
    <TTGlyph name="colon" xMin="54" yMin="0" xMax="186" yMax="521">
      <contour>
        <pt x="54" y="521" on="1"/>
        <pt x="186" y="521" on="1"/>
        <pt x="186" y="365" on="1"/>
        <pt x="54" y="365" on="1"/>
      </contour>
      <contour>
        <pt x="54" y="156" on="1"/>
        <pt x="186" y="156" on="1"/>
        <pt x="186" y="0" on="1"/>
        <pt x="54" y="0" on="1"/>
      </contour>
    </TTGlyph>
    <TTGlyph name="comma" xMin="54" yMin="-165" xMax="186" yMax="156">
      <contour>
        <pt x="186" y="156" on="1"/>
        <pt x="186" y="26" on="1"/>
        <pt x="186" y="-14" on="0"/>
        <pt x="175" y="-81" on="0"/>
        <pt x="145" y="-130" on="0"/>
        <pt x="94" y="-161" on="0"/>
        <pt x="54" y="-165" on="1"/>
        <pt x="54" y="-95" on="1"/>
        <pt x="80" y="-90" on="0"/>
        <pt x="106" y="-44" on="0"/>
        <pt x="106" y="-16" on="1"/>
        <pt x="106" y="0" on="1"/>
        <pt x="54" y="0" on="1"/>
        <pt x="54" y="156" on="1"/>
      </contour>
    </TTGlyph>
    <TTGlyph name="commaaccent" xMin="66" yMin="-253" xMax="178" yMax="-50">
      <contour>
        <pt x="178" y="-50" on="1"/>
        <pt x="178" y="-147" on="1"/>
        <pt x="178" y="-181" on="0"/>
        <pt x="161" y="-221" on="0"/>
        <pt x="133" y="-243" on="0"/>
        <pt x="98" y="-251" on="0"/>
        <pt x="81" y="-253" on="1"/>
        <pt x="81" y="-217" on="1"/>
        <pt x="98" y="-212" on="0"/>
        <pt x="116" y="-191" on="0"/>
        <pt x="117" y="-168" on="1"/>
        <pt x="66" y="-168" on="1"/>
        <pt x="66" y="-50" on="1"/>
      </contour>
    </TTGlyph>
    <TTGlyph name="commaaccent.alt" xMin="63" yMin="596" xMax="175" yMax="799">
      <contour>
        <pt x="63" y="596" on="1"/>
        <pt x="63" y="693" on="1"/>
        <pt x="63" y="727" on="0"/>
        <pt x="80" y="767" on="0"/>
        <pt x="108" y="789" on="0"/>
        <pt x="143" y="797" on="0"/>
        <pt x="160" y="799" on="1"/>
        <pt x="160" y="763" on="1"/>
        <pt x="143" y="758" on="0"/>
        <pt x="125" y="737" on="0"/>
        <pt x="124" y="714" on="1"/>
        <pt x="175" y="714" on="1"/>
        <pt x="175" y="596" on="1"/>
      </contour>
    </TTGlyph>
    <TTGlyph name="copyright" xMin="29" yMin="-14" xMax="771" yMax="728">
      <contour>
        <pt x="29" y="357" on="1"/>
        <pt x="29" y="434" on="0"/>
        <pt x="87" y="569" on="0"/>
        <pt x="188" y="670" on="0"/>
        <pt x="323" y="728" on="0"/>
        <pt x="400" y="728" on="1"/>
        <pt x="477" y="728" on="0"/>
        <pt x="612" y="670" on="0"/>
        <pt x="713" y="569" on="0"/>
        <pt x="771" y="434" on="0"/>
        <pt x="771" y="357" on="1"/>
        <pt x="771" y="280" on="0"/>
        <pt x="713" y="145" on="0"/>
        <pt x="612" y="44" on="0"/>
        <pt x="477" y="-14" on="0"/>
        <pt x="400" y="-14" on="1"/>
        <pt x="323" y="-14" on="0"/>
        <pt x="188" y="44" on="0"/>
        <pt x="87" y="145" on="0"/>
        <pt x="29" y="280" on="0"/>
      </contour>
      <contour>
        <pt x="141" y="357" on="1"/>
        <pt x="141" y="303" on="0"/>
        <pt x="180" y="206" on="0"/>
        <pt x="249" y="134" on="0"/>
        <pt x="344" y="92" on="0"/>
        <pt x="400" y="92" on="1"/>
        <pt x="456" y="92" on="0"/>
        <pt x="551" y="134" on="0"/>
        <pt x="620" y="206" on="0"/>
        <pt x="659" y="303" on="0"/>
        <pt x="659" y="357" on="1"/>
        <pt x="659" y="411" on="0"/>
        <pt x="620" y="508" on="0"/>
        <pt x="551" y="580" on="0"/>
        <pt x="456" y="622" on="0"/>
        <pt x="400" y="622" on="1"/>
        <pt x="344" y="622" on="0"/>
        <pt x="249" y="580" on="0"/>
        <pt x="180" y="508" on="0"/>
        <pt x="141" y="411" on="0"/>
      </contour>
      <contour>
        <pt x="595" y="298" on="1"/>
        <pt x="589" y="260" on="0"/>
        <pt x="555" y="202" on="0"/>
        <pt x="507" y="163" on="0"/>
        <pt x="447" y="142" on="0"/>
        <pt x="415" y="142" on="1"/>
        <pt x="367" y="142" on="0"/>
        <pt x="291" y="176" on="0"/>
        <pt x="237" y="235" on="0"/>
        <pt x="208" y="315" on="0"/>
        <pt x="208" y="360" on="1"/>
        <pt x="208" y="406" on="0"/>
        <pt x="236" y="486" on="0"/>
        <pt x="288" y="544" on="0"/>
        <pt x="364" y="578" on="0"/>
        <pt x="412" y="578" on="1"/>
        <pt x="445" y="578" on="0"/>
        <pt x="506" y="558" on="0"/>
        <pt x="554" y="520" on="0"/>
        <pt x="586" y="462" on="0"/>
        <pt x="591" y="425" on="1"/>
        <pt x="495" y="425" on="1"/>
        <pt x="487" y="454" on="0"/>
        <pt x="445" y="492" on="0"/>
        <pt x="407" y="492" on="1"/>
        <pt x="355" y="492" on="0"/>
        <pt x="302" y="417" on="0"/>
        <pt x="302" y="360" on="1"/>
        <pt x="302" y="333" on="0"/>
        <pt x="316" y="285" on="0"/>
        <pt x="343" y="249" on="0"/>
        <pt x="382" y="228" on="0"/>
        <pt x="406" y="228" on="1"/>
        <pt x="443" y="228" on="0"/>
        <pt x="490" y="266" on="0"/>
        <pt x="495" y="298" on="1"/>
      </contour>
    </TTGlyph>
    <TTGlyph name="currency" xMin="0" yMin="107" xMax="480" yMax="587">
      <contour>
        <pt x="117" y="347" on="1"/>
        <pt x="117" y="287" on="0"/>
        <pt x="183" y="218" on="0"/>
        <pt x="240" y="218" on="1"/>
        <pt x="297" y="218" on="0"/>
        <pt x="363" y="287" on="0"/>
        <pt x="363" y="347" on="1"/>
        <pt x="363" y="407" on="0"/>
        <pt x="297" y="476" on="0"/>
        <pt x="240" y="476" on="1"/>
        <pt x="183" y="476" on="0"/>
        <pt x="117" y="407" on="0"/>
      </contour>
      <contour>
        <pt x="0" y="169" on="1"/>
        <pt x="50" y="219" on="1"/>
        <pt x="32" y="246" on="0"/>
        <pt x="11" y="311" on="0"/>
        <pt x="11" y="347" on="1"/>
        <pt x="11" y="382" on="0"/>
        <pt x="31" y="447" on="0"/>
        <pt x="50" y="475" on="1"/>
        <pt x="0" y="525" on="1"/>
        <pt x="61" y="587" on="1"/>
        <pt x="112" y="537" on="1"/>
        <pt x="140" y="556" on="0"/>
        <pt x="205" y="576" on="0"/>
        <pt x="240" y="576" on="1"/>
        <pt x="276" y="576" on="0"/>
        <pt x="341" y="555" on="0"/>
        <pt x="368" y="537" on="1"/>
        <pt x="419" y="587" on="1"/>
        <pt x="480" y="525" on="1"/>
        <pt x="430" y="475" on="1"/>
        <pt x="449" y="447" on="0"/>
        <pt x="469" y="382" on="0"/>
        <pt x="469" y="347" on="1"/>
        <pt x="469" y="312" on="0"/>
        <pt x="449" y="247" on="0"/>
        <pt x="430" y="219" on="1"/>
        <pt x="480" y="169" on="1"/>
        <pt x="419" y="107" on="1"/>
        <pt x="368" y="158" on="1"/>
        <pt x="341" y="139" on="0"/>
        <pt x="276" y="118" on="0"/>
        <pt x="240" y="118" on="1"/>
        <pt x="168" y="118" on="0"/>
        <pt x="112" y="158" on="1"/>
        <pt x="61" y="107" on="1"/>
      </contour>
    </TTGlyph>
    <TTGlyph name="d" xMin="33" yMin="-14" xMax="454" yMax="714">
      <contour>
        <pt x="322" y="57" on="1"/>
        <pt x="320" y="57" on="1"/>
        <pt x="297" y="19" on="0"/>
        <pt x="240" y="-14" on="0"/>
        <pt x="198" y="-14" on="1"/>
        <pt x="113" y="-14" on="0"/>
        <pt x="33" y="119" on="0"/>
        <pt x="33" y="269" on="1"/>
        <pt x="33" y="419" on="0"/>
        <pt x="113" y="552" on="0"/>
        <pt x="198" y="552" on="1"/>
        <pt x="237" y="552" on="0"/>
        <pt x="292" y="520" on="0"/>
        <pt x="314" y="488" on="1"/>
        <pt x="316" y="488" on="1"/>
        <pt x="316" y="714" on="1"/>
        <pt x="454" y="714" on="1"/>
        <pt x="454" y="0" on="1"/>
        <pt x="322" y="0" on="1"/>
      </contour>
      <contour>
        <pt x="171" y="269" on="1"/>
        <pt x="171" y="181" on="0"/>
        <pt x="198" y="92" on="0"/>
        <pt x="243" y="92" on="1"/>
        <pt x="289" y="92" on="0"/>
        <pt x="316" y="181" on="0"/>
        <pt x="316" y="269" on="1"/>
        <pt x="316" y="357" on="0"/>
        <pt x="289" y="446" on="0"/>
        <pt x="243" y="446" on="1"/>
        <pt x="198" y="446" on="0"/>
        <pt x="171" y="357" on="0"/>
      </contour>
    </TTGlyph>
    <TTGlyph name="dagger" xMin="3" yMin="-138" xMax="477" yMax="714">
      <contour>
        <pt x="171" y="714" on="1"/>
        <pt x="309" y="714" on="1"/>
        <pt x="309" y="516" on="1"/>
        <pt x="477" y="516" on="1"/>
        <pt x="477" y="404" on="1"/>
        <pt x="309" y="404" on="1"/>
        <pt x="309" y="-138" on="1"/>
        <pt x="171" y="-138" on="1"/>
        <pt x="171" y="404" on="1"/>
        <pt x="3" y="404" on="1"/>
        <pt x="3" y="516" on="1"/>
        <pt x="171" y="516" on="1"/>
      </contour>
    </TTGlyph>
    <TTGlyph name="daggerdbl" xMin="3" yMin="-138" xMax="477" yMax="714">
      <contour>
        <pt x="171" y="52" on="1"/>
        <pt x="3" y="52" on="1"/>
        <pt x="3" y="164" on="1"/>
        <pt x="171" y="164" on="1"/>
        <pt x="171" y="412" on="1"/>
        <pt x="3" y="412" on="1"/>
        <pt x="3" y="524" on="1"/>
        <pt x="171" y="524" on="1"/>
        <pt x="171" y="714" on="1"/>
        <pt x="309" y="714" on="1"/>
        <pt x="309" y="524" on="1"/>
        <pt x="477" y="524" on="1"/>
        <pt x="477" y="412" on="1"/>
        <pt x="309" y="412" on="1"/>
        <pt x="309" y="164" on="1"/>
        <pt x="477" y="164" on="1"/>
        <pt x="477" y="52" on="1"/>
        <pt x="309" y="52" on="1"/>
        <pt x="309" y="-138" on="1"/>
        <pt x="171" y="-138" on="1"/>
      </contour>
    </TTGlyph>
    <TTGlyph name="dcaron" xMin="33" yMin="-14" xMax="645" yMax="714">
      <component glyphName="d" x="0" y="0" flags="0x4"/>
      <component glyphName="caron.alt" x="446" y="0" flags="0x4"/>
    </TTGlyph>
    <TTGlyph name="dcroat" xMin="33" yMin="-14" xMax="540" yMax="714">
      <contour>
        <pt x="322" y="57" on="1"/>
        <pt x="320" y="57" on="1"/>
        <pt x="297" y="19" on="0"/>
        <pt x="240" y="-14" on="0"/>
        <pt x="198" y="-14" on="1"/>
        <pt x="113" y="-14" on="0"/>
        <pt x="33" y="119" on="0"/>
        <pt x="33" y="269" on="1"/>
        <pt x="33" y="419" on="0"/>
        <pt x="113" y="552" on="0"/>
        <pt x="198" y="552" on="1"/>
        <pt x="237" y="552" on="0"/>
        <pt x="292" y="520" on="0"/>
        <pt x="314" y="488" on="1"/>
        <pt x="316" y="488" on="1"/>
        <pt x="316" y="586" on="1"/>
        <pt x="206" y="586" on="1"/>
        <pt x="206" y="647" on="1"/>
        <pt x="316" y="647" on="1"/>
        <pt x="316" y="714" on="1"/>
        <pt x="454" y="714" on="1"/>
        <pt x="454" y="647" on="1"/>
        <pt x="540" y="647" on="1"/>
        <pt x="540" y="586" on="1"/>
        <pt x="454" y="586" on="1"/>
        <pt x="454" y="0" on="1"/>
        <pt x="322" y="0" on="1"/>
      </contour>
      <contour>
        <pt x="171" y="269" on="1"/>
        <pt x="171" y="181" on="0"/>
        <pt x="198" y="92" on="0"/>
        <pt x="243" y="92" on="1"/>
        <pt x="289" y="92" on="0"/>
        <pt x="316" y="181" on="0"/>
        <pt x="316" y="269" on="1"/>
        <pt x="316" y="357" on="0"/>
        <pt x="289" y="446" on="0"/>
        <pt x="243" y="446" on="1"/>
        <pt x="198" y="446" on="0"/>
        <pt x="171" y="357" on="0"/>
      </contour>
    </TTGlyph>
    <TTGlyph name="degree" xMin="52" yMin="412" xMax="348" yMax="708">
      <contour>
        <pt x="128" y="560" on="1"/>
        <pt x="128" y="530" on="0"/>
        <pt x="170" y="488" on="0"/>
        <pt x="200" y="488" on="1"/>
        <pt x="230" y="488" on="0"/>
        <pt x="272" y="530" on="0"/>
        <pt x="272" y="560" on="1"/>
        <pt x="272" y="590" on="0"/>
        <pt x="230" y="632" on="0"/>
        <pt x="200" y="632" on="1"/>
        <pt x="170" y="632" on="0"/>
        <pt x="128" y="590" on="0"/>
      </contour>
      <contour>
        <pt x="52" y="560" on="1"/>
        <pt x="52" y="591" on="0"/>
        <pt x="75" y="645" on="0"/>
        <pt x="115" y="685" on="0"/>
        <pt x="169" y="708" on="0"/>
        <pt x="200" y="708" on="1"/>
        <pt x="231" y="708" on="0"/>
        <pt x="285" y="685" on="0"/>
        <pt x="325" y="645" on="0"/>
        <pt x="348" y="591" on="0"/>
        <pt x="348" y="560" on="1"/>
        <pt x="348" y="529" on="0"/>
        <pt x="325" y="475" on="0"/>
        <pt x="285" y="435" on="0"/>
        <pt x="231" y="412" on="0"/>
        <pt x="200" y="412" on="1"/>
        <pt x="169" y="412" on="0"/>
        <pt x="115" y="435" on="0"/>
        <pt x="75" y="475" on="0"/>
        <pt x="52" y="529" on="0"/>
      </contour>
    </TTGlyph>
    <TTGlyph name="dieresis" xMin="-31" yMin="615" xMax="253" yMax="733">
      <contour>
        <pt x="141" y="733" on="1"/>
        <pt x="253" y="733" on="1"/>
        <pt x="253" y="615" on="1"/>
        <pt x="141" y="615" on="1"/>
      </contour>
      <contour>
        <pt x="-31" y="733" on="1"/>
        <pt x="81" y="733" on="1"/>
        <pt x="81" y="615" on="1"/>
        <pt x="-31" y="615" on="1"/>
      </contour>
    </TTGlyph>
    <TTGlyph name="dieresis.cap" xMin="-31" yMin="771" xMax="253" yMax="889">
      <contour>
        <pt x="141" y="889" on="1"/>
        <pt x="253" y="889" on="1"/>
        <pt x="253" y="771" on="1"/>
        <pt x="141" y="771" on="1"/>
      </contour>
      <contour>
        <pt x="-31" y="889" on="1"/>
        <pt x="81" y="889" on="1"/>
        <pt x="81" y="771" on="1"/>
        <pt x="-31" y="771" on="1"/>
      </contour>
    </TTGlyph>
    <TTGlyph name="divide" xMin="47" yMin="-56" xMax="553" yMax="562">
      <contour>
        <pt x="203" y="41" on="1"/>
        <pt x="203" y="83" on="0"/>
        <pt x="258" y="138" on="0"/>
        <pt x="300" y="138" on="1"/>
        <pt x="342" y="138" on="0"/>
        <pt x="397" y="83" on="0"/>
        <pt x="397" y="41" on="1"/>
        <pt x="397" y="-1" on="0"/>
        <pt x="342" y="-56" on="0"/>
        <pt x="300" y="-56" on="1"/>
        <pt x="258" y="-56" on="0"/>
        <pt x="203" y="-1" on="0"/>
      </contour>
      <contour>
        <pt x="203" y="465" on="1"/>
        <pt x="203" y="507" on="0"/>
        <pt x="258" y="562" on="0"/>
        <pt x="300" y="562" on="1"/>
        <pt x="342" y="562" on="0"/>
        <pt x="397" y="507" on="0"/>
        <pt x="397" y="465" on="1"/>
        <pt x="397" y="423" on="0"/>
        <pt x="342" y="368" on="0"/>
        <pt x="300" y="368" on="1"/>
        <pt x="258" y="368" on="0"/>
        <pt x="203" y="423" on="0"/>
      </contour>
      <contour>
        <pt x="47" y="315" on="1"/>
        <pt x="553" y="315" on="1"/>
        <pt x="553" y="191" on="1"/>
        <pt x="47" y="191" on="1"/>
      </contour>
    </TTGlyph>
    <TTGlyph name="dollar" xMin="9" yMin="-101" xMax="471" yMax="777">
      <contour>
        <pt x="205" y="-14" on="1"/>
        <pt x="143" y="-9" on="0"/>
        <pt x="66" y="27" on="0"/>
        <pt x="24" y="82" on="0"/>
        <pt x="9" y="152" on="0"/>
        <pt x="9" y="191" on="1"/>
        <pt x="9" y="212" on="1"/>
        <pt x="147" y="212" on="1"/>
        <pt x="147" y="191" on="0"/>
        <pt x="150" y="152" on="0"/>
        <pt x="162" y="120" on="0"/>
        <pt x="185" y="97" on="0"/>
        <pt x="205" y="92" on="1"/>
        <pt x="205" y="294" on="1"/>
        <pt x="155" y="312" on="1"/>
        <pt x="82" y="338" on="0"/>
        <pt x="18" y="435" on="0"/>
        <pt x="18" y="504" on="1"/>
        <pt x="18" y="597" on="0"/>
        <pt x="115" y="698" on="0"/>
        <pt x="205" y="708" on="1"/>
        <pt x="205" y="777" on="1"/>
        <pt x="269" y="777" on="1"/>
        <pt x="269" y="708" on="1"/>
        <pt x="324" y="703" on="0"/>
        <pt x="396" y="668" on="0"/>
        <pt x="438" y="616" on="0"/>
        <pt x="454" y="552" on="0"/>
        <pt x="454" y="519" on="1"/>
        <pt x="454" y="505" on="1"/>
        <pt x="316" y="505" on="1"/>
        <pt x="315" y="543" on="0"/>
        <pt x="295" y="594" on="0"/>
        <pt x="269" y="602" on="1"/>
        <pt x="269" y="413" on="1"/>
        <pt x="348" y="381" on="1"/>
        <pt x="376" y="369" on="0"/>
        <pt x="421" y="341" on="0"/>
        <pt x="453" y="300" on="0"/>
        <pt x="471" y="242" on="0"/>
        <pt x="471" y="200" on="1"/>
        <pt x="471" y="92" on="0"/>
        <pt x="368" y="-7" on="0"/>
        <pt x="269" y="-14" on="1"/>
        <pt x="269" y="-101" on="1"/>
        <pt x="205" y="-101" on="1"/>
      </contour>
      <contour>
        <pt x="205" y="602" on="1"/>
        <pt x="156" y="588" on="0"/>
        <pt x="156" y="526" on="1"/>
        <pt x="156" y="470" on="0"/>
        <pt x="205" y="442" on="1"/>
      </contour>
      <contour>
        <pt x="269" y="92" on="1"/>
        <pt x="300" y="99" on="0"/>
        <pt x="327" y="144" on="0"/>
        <pt x="327" y="172" on="1"/>
        <pt x="327" y="210" on="0"/>
        <pt x="298" y="254" on="0"/>
        <pt x="269" y="269" on="1"/>
      </contour>
    </TTGlyph>
    <TTGlyph name="dotaccent" xMin="55" yMin="615" xMax="167" yMax="733">
      <contour>
        <pt x="167" y="733" on="1"/>
        <pt x="167" y="615" on="1"/>
        <pt x="55" y="615" on="1"/>
        <pt x="55" y="733" on="1"/>
      </contour>
    </TTGlyph>
    <TTGlyph name="dotaccent.cap" xMin="55" yMin="711" xMax="167" yMax="829">
      <contour>
        <pt x="167" y="829" on="1"/>
        <pt x="167" y="711" on="1"/>
        <pt x="55" y="711" on="1"/>
        <pt x="55" y="829" on="1"/>
      </contour>
    </TTGlyph>
    <TTGlyph name="dotlessi" xMin="51" yMin="0" xMax="189" yMax="538">
      <contour>
        <pt x="51" y="538" on="1"/>
        <pt x="189" y="538" on="1"/>
        <pt x="189" y="0" on="1"/>
        <pt x="51" y="0" on="1"/>
      </contour>
    </TTGlyph>
    <TTGlyph name="dotlessj" xMin="-25" yMin="-176" xMax="189" yMax="538">
      <contour>
        <pt x="51" y="538" on="1"/>
        <pt x="189" y="538" on="1"/>
        <pt x="189" y="-37" on="1"/>
        <pt x="189" y="-71" on="0"/>
        <pt x="174" y="-123" on="0"/>
        <pt x="138" y="-158" on="0"/>
        <pt x="77" y="-176" on="0"/>
        <pt x="31" y="-176" on="1"/>
        <pt x="19" y="-176" on="0"/>
        <pt x="-10" y="-175" on="0"/>
        <pt x="-25" y="-174" on="1"/>
        <pt x="-25" y="-74" on="1"/>
        <pt x="-19" y="-76" on="0"/>
        <pt x="-14" y="-76" on="1"/>
        <pt x="-3" y="-76" on="1"/>
        <pt x="15" y="-76" on="0"/>
        <pt x="37" y="-66" on="0"/>
        <pt x="48" y="-45" on="0"/>
        <pt x="51" y="-13" on="0"/>
        <pt x="51" y="10" on="1"/>
      </contour>
    </TTGlyph>
    <TTGlyph name="e" xMin="26" yMin="-14" xMax="437" yMax="552">
      <contour>
        <pt x="164" y="248" on="1"/>
        <pt x="164" y="205" on="1"/>
        <pt x="164" y="181" on="0"/>
        <pt x="171" y="136" on="0"/>
        <pt x="187" y="101" on="0"/>
        <pt x="213" y="80" on="0"/>
        <pt x="232" y="80" on="1"/>
        <pt x="267" y="80" on="0"/>
        <pt x="299" y="130" on="0"/>
        <pt x="305" y="181" on="1"/>
        <pt x="429" y="181" on="1"/>
        <pt x="425" y="87" on="0"/>
        <pt x="333" y="-14" on="0"/>
        <pt x="234" y="-14" on="1"/>
        <pt x="159" y="-14" on="0"/>
        <pt x="75" y="38" on="0"/>
        <pt x="35" y="121" on="0"/>
        <pt x="26" y="224" on="0"/>
        <pt x="26" y="274" on="1"/>
        <pt x="26" y="328" on="0"/>
        <pt x="41" y="428" on="0"/>
        <pt x="86" y="506" on="0"/>
        <pt x="170" y="552" on="0"/>
        <pt x="240" y="552" on="1"/>
        <pt x="300" y="552" on="0"/>
        <pt x="377" y="513" on="0"/>
        <pt x="421" y="442" on="0"/>
        <pt x="437" y="341" on="0"/>
        <pt x="437" y="279" on="1"/>
        <pt x="437" y="248" on="1"/>
      </contour>
      <contour>
        <pt x="305" y="330" on="1"/>
        <pt x="304" y="361" on="0"/>
        <pt x="298" y="408" on="0"/>
        <pt x="283" y="441" on="0"/>
        <pt x="256" y="458" on="0"/>
        <pt x="235" y="458" on="1"/>
        <pt x="214" y="458" on="0"/>
        <pt x="187" y="439" on="0"/>
        <pt x="171" y="408" on="0"/>
        <pt x="164" y="370" on="0"/>
        <pt x="164" y="351" on="1"/>
        <pt x="164" y="330" on="1"/>
      </contour>
    </TTGlyph>
    <TTGlyph name="eacute" xMin="26" yMin="-14" xMax="437" yMax="746">
      <component glyphName="e" x="0" y="0" flags="0x204"/>
      <component glyphName="acute" x="144" y="0" flags="0x4"/>
    </TTGlyph>
    <TTGlyph name="ebreve" xMin="26" yMin="-14" xMax="437" yMax="745">
      <component glyphName="e" x="0" y="0" flags="0x204"/>
      <component glyphName="breve" x="126" y="0" flags="0x4"/>
    </TTGlyph>
    <TTGlyph name="ecaron" xMin="26" yMin="-14" xMax="437" yMax="746">
      <component glyphName="e" x="0" y="0" flags="0x204"/>
      <component glyphName="caron" x="125" y="0" flags="0x4"/>
    </TTGlyph>
    <TTGlyph name="ecircumflex" xMin="26" yMin="-14" xMax="437" yMax="746">
      <component glyphName="e" x="0" y="0" flags="0x204"/>
      <component glyphName="circumflex" x="129" y="0" flags="0x4"/>
    </TTGlyph>
    <TTGlyph name="edieresis" xMin="26" yMin="-14" xMax="437" yMax="733">
      <component glyphName="e" x="0" y="0" flags="0x204"/>
      <component glyphName="dieresis" x="129" y="0" flags="0x4"/>
    </TTGlyph>
    <TTGlyph name="edotaccent" xMin="26" yMin="-14" xMax="437" yMax="733">
      <component glyphName="e" x="0" y="0" flags="0x204"/>
      <component glyphName="dotaccent" x="127" y="0" flags="0x4"/>
    </TTGlyph>
    <TTGlyph name="egrave" xMin="26" yMin="-14" xMax="437" yMax="746">
      <component glyphName="e" x="0" y="0" flags="0x204"/>
      <component glyphName="grave" x="126" y="0" flags="0x4"/>
    </TTGlyph>
    <TTGlyph name="eight" xMin="14" yMin="-14" xMax="466" yMax="708">
      <contour>
        <pt x="158" y="202" on="1"/>
        <pt x="158" y="176" on="0"/>
        <pt x="165" y="132" on="0"/>
        <pt x="184" y="99" on="0"/>
        <pt x="216" y="80" on="0"/>
        <pt x="240" y="80" on="1"/>
        <pt x="264" y="80" on="0"/>
        <pt x="296" y="99" on="0"/>
        <pt x="315" y="132" on="0"/>
        <pt x="322" y="176" on="0"/>
        <pt x="322" y="202" on="1"/>
        <pt x="322" y="227" on="0"/>
        <pt x="315" y="272" on="0"/>
        <pt x="296" y="305" on="0"/>
        <pt x="264" y="324" on="0"/>
        <pt x="240" y="324" on="1"/>
        <pt x="216" y="324" on="0"/>
        <pt x="184" y="305" on="0"/>
        <pt x="165" y="272" on="0"/>
        <pt x="158" y="227" on="0"/>
      </contour>
      <contour>
        <pt x="170" y="517" on="1"/>
        <pt x="170" y="466" on="0"/>
        <pt x="208" y="418" on="0"/>
        <pt x="240" y="418" on="1"/>
        <pt x="272" y="418" on="0"/>
        <pt x="310" y="466" on="0"/>
        <pt x="310" y="517" on="1"/>
        <pt x="310" y="614" on="0"/>
        <pt x="240" y="614" on="1"/>
        <pt x="170" y="614" on="0"/>
      </contour>
      <contour>
        <pt x="14" y="200" on="1"/>
        <pt x="14" y="267" on="0"/>
        <pt x="74" y="363" on="0"/>
        <pt x="134" y="375" on="1"/>
        <pt x="134" y="377" on="1"/>
        <pt x="105" y="384" on="0"/>
        <pt x="66" y="414" on="0"/>
        <pt x="42" y="452" on="0"/>
        <pt x="32" y="494" on="0"/>
        <pt x="32" y="513" on="1"/>
        <pt x="32" y="617" on="0"/>
        <pt x="143" y="708" on="0"/>
        <pt x="240" y="708" on="1"/>
        <pt x="337" y="708" on="0"/>
        <pt x="448" y="617" on="0"/>
        <pt x="448" y="513" on="1"/>
        <pt x="448" y="494" on="0"/>
        <pt x="437" y="452" on="0"/>
        <pt x="413" y="414" on="0"/>
        <pt x="374" y="384" on="0"/>
        <pt x="346" y="377" on="1"/>
        <pt x="346" y="375" on="1"/>
        <pt x="406" y="363" on="0"/>
        <pt x="466" y="267" on="0"/>
        <pt x="466" y="200" on="1"/>
        <pt x="466" y="170" on="0"/>
        <pt x="451" y="95" on="0"/>
        <pt x="403" y="30" on="0"/>
        <pt x="314" y="-14" on="0"/>
        <pt x="240" y="-14" on="1"/>
        <pt x="166" y="-14" on="0"/>
        <pt x="77" y="30" on="0"/>
        <pt x="29" y="95" on="0"/>
        <pt x="14" y="170" on="0"/>
      </contour>
    </TTGlyph>
    <TTGlyph name="ellipsis" xMin="101" yMin="0" xMax="899" yMax="156">
      <contour>
        <pt x="899" y="156" on="1"/>
        <pt x="899" y="0" on="1"/>
        <pt x="767" y="0" on="1"/>
        <pt x="767" y="156" on="1"/>
      </contour>
      <contour>
        <pt x="566" y="156" on="1"/>
        <pt x="566" y="0" on="1"/>
        <pt x="434" y="0" on="1"/>
        <pt x="434" y="156" on="1"/>
      </contour>
      <contour>
        <pt x="233" y="156" on="1"/>
        <pt x="233" y="0" on="1"/>
        <pt x="101" y="0" on="1"/>
        <pt x="101" y="156" on="1"/>
      </contour>
    </TTGlyph>
    <TTGlyph name="emacron" xMin="26" yMin="-14" xMax="437" yMax="712">
      <component glyphName="e" x="0" y="0" flags="0x204"/>
      <component glyphName="macron" x="126" y="0" flags="0x4"/>
    </TTGlyph>
    <TTGlyph name="emdash" xMin="0" yMin="233" xMax="1000" yMax="345">
      <contour>
        <pt x="0" y="345" on="1"/>
        <pt x="1000" y="345" on="1"/>
        <pt x="1000" y="233" on="1"/>
        <pt x="0" y="233" on="1"/>
      </contour>
    </TTGlyph>
    <TTGlyph name="endash" xMin="0" yMin="233" xMax="500" yMax="345">
      <contour>
        <pt x="0" y="345" on="1"/>
        <pt x="500" y="345" on="1"/>
        <pt x="500" y="233" on="1"/>
        <pt x="0" y="233" on="1"/>
      </contour>
    </TTGlyph>
    <TTGlyph name="eogonek" xMin="26" yMin="-217" xMax="437" yMax="552">
      <contour>
        <pt x="331" y="-182" on="1"/>
        <pt x="303" y="-202" on="0"/>
        <pt x="252" y="-217" on="0"/>
        <pt x="217" y="-217" on="1"/>
        <pt x="188" y="-217" on="0"/>
        <pt x="150" y="-202" on="0"/>
        <pt x="129" y="-180" on="0"/>
        <pt x="121" y="-152" on="0"/>
        <pt x="121" y="-138" on="1"/>
        <pt x="121" y="-101" on="0"/>
        <pt x="154" y="-63" on="1"/>
        <pt x="166" y="-49" on="0"/>
        <pt x="197" y="-24" on="0"/>
        <pt x="216" y="-13" on="1"/>
        <pt x="156" y="-12" on="0"/>
        <pt x="117" y="12" on="1"/>
        <pt x="85" y="32" on="0"/>
        <pt x="49" y="90" on="0"/>
        <pt x="31" y="159" on="0"/>
        <pt x="26" y="235" on="0"/>
        <pt x="26" y="274" on="1"/>
        <pt x="26" y="328" on="0"/>
        <pt x="41" y="428" on="0"/>
        <pt x="86" y="506" on="0"/>
        <pt x="170" y="552" on="0"/>
        <pt x="240" y="552" on="1"/>
        <pt x="300" y="552" on="0"/>
        <pt x="377" y="513" on="0"/>
        <pt x="421" y="442" on="0"/>
        <pt x="437" y="341" on="0"/>
        <pt x="437" y="279" on="1"/>
        <pt x="437" y="248" on="1"/>
        <pt x="164" y="248" on="1"/>
        <pt x="164" y="205" on="1"/>
        <pt x="164" y="181" on="0"/>
        <pt x="171" y="136" on="0"/>
        <pt x="187" y="101" on="0"/>
        <pt x="213" y="80" on="0"/>
        <pt x="232" y="80" on="1"/>
        <pt x="267" y="80" on="0"/>
        <pt x="299" y="130" on="0"/>
        <pt x="305" y="181" on="1"/>
        <pt x="429" y="181" on="1"/>
        <pt x="424" y="86" on="0"/>
        <pt x="379" y="36" on="1"/>
        <pt x="351" y="5" on="0"/>
        <pt x="301" y="-7" on="1"/>
        <pt x="288" y="-17" on="0"/>
        <pt x="268" y="-33" on="0"/>
        <pt x="260" y="-40" on="1"/>
        <pt x="231" y="-67" on="0"/>
        <pt x="210" y="-104" on="0"/>
        <pt x="210" y="-122" on="1"/>
        <pt x="210" y="-153" on="0"/>
        <pt x="238" y="-153" on="1"/>
        <pt x="252" y="-153" on="0"/>
        <pt x="279" y="-146" on="0"/>
        <pt x="301" y="-133" on="1"/>
      </contour>
      <contour>
        <pt x="305" y="330" on="1"/>
        <pt x="304" y="361" on="0"/>
        <pt x="298" y="408" on="0"/>
        <pt x="283" y="441" on="0"/>
        <pt x="256" y="458" on="0"/>
        <pt x="235" y="458" on="1"/>
        <pt x="214" y="458" on="0"/>
        <pt x="187" y="439" on="0"/>
        <pt x="171" y="408" on="0"/>
        <pt x="164" y="370" on="0"/>
        <pt x="164" y="351" on="1"/>
        <pt x="164" y="330" on="1"/>
      </contour>
    </TTGlyph>
    <TTGlyph name="equal" xMin="47" yMin="82" xMax="553" yMax="424">
      <contour>
        <pt x="47" y="206" on="1"/>
        <pt x="553" y="206" on="1"/>
        <pt x="553" y="82" on="1"/>
        <pt x="47" y="82" on="1"/>
      </contour>
      <contour>
        <pt x="47" y="424" on="1"/>
        <pt x="553" y="424" on="1"/>
        <pt x="553" y="300" on="1"/>
        <pt x="47" y="300" on="1"/>
      </contour>
    </TTGlyph>
    <TTGlyph name="estimated" xMin="44" yMin="-17" xMax="561" yMax="535">
      <contour>
        <pt x="157" y="259" on="1"/>
        <pt x="157" y="78" on="1"/>
        <pt x="216" y="19" on="0"/>
        <pt x="302" y="19" on="1"/>
        <pt x="365" y="19" on="0"/>
        <pt x="457" y="76" on="0"/>
        <pt x="495" y="139" on="1"/>
        <pt x="530" y="118" on="1"/>
        <pt x="507" y="82" on="0"/>
        <pt x="460" y="31" on="0"/>
        <pt x="405" y="-2" on="0"/>
        <pt x="341" y="-17" on="0"/>
        <pt x="302" y="-17" on="1"/>
        <pt x="243" y="-17" on="0"/>
        <pt x="148" y="26" on="0"/>
        <pt x="80" y="101" on="0"/>
        <pt x="44" y="201" on="0"/>
        <pt x="44" y="259" on="1"/>
        <pt x="44" y="317" on="0"/>
        <pt x="80" y="418" on="0"/>
        <pt x="148" y="492" on="0"/>
        <pt x="243" y="535" on="0"/>
        <pt x="302" y="535" on="1"/>
        <pt x="360" y="535" on="0"/>
        <pt x="455" y="494" on="0"/>
        <pt x="523" y="421" on="0"/>
        <pt x="561" y="320" on="0"/>
        <pt x="561" y="259" on="1"/>
      </contour>
      <contour>
        <pt x="448" y="295" on="1"/>
        <pt x="448" y="440" on="1"/>
        <pt x="385" y="500" on="0"/>
        <pt x="301" y="500" on="1"/>
        <pt x="217" y="500" on="0"/>
        <pt x="157" y="440" on="1"/>
        <pt x="157" y="295" on="1"/>
      </contour>
    </TTGlyph>
    <TTGlyph name="eth" xMin="28" yMin="-15" xMax="452" yMax="795">
      <contour>
        <pt x="66" y="625" on="1"/>
        <pt x="142" y="670" on="1"/>
        <pt x="125" y="687" on="0"/>
        <pt x="92" y="719" on="0"/>
        <pt x="76" y="734" on="1"/>
        <pt x="180" y="795" on="1"/>
        <pt x="198" y="779" on="0"/>
        <pt x="231" y="748" on="0"/>
        <pt x="247" y="732" on="1"/>
        <pt x="322" y="777" on="1"/>
        <pt x="365" y="735" on="1"/>
        <pt x="288" y="690" on="1"/>
        <pt x="328" y="646" on="0"/>
        <pt x="389" y="555" on="0"/>
        <pt x="431" y="454" on="0"/>
        <pt x="452" y="338" on="0"/>
        <pt x="452" y="269" on="1"/>
        <pt x="452" y="200" on="0"/>
        <pt x="430" y="94" on="0"/>
        <pt x="380" y="23" on="0"/>
        <pt x="299" y="-14" on="0"/>
        <pt x="240" y="-14" on="1"/>
        <pt x="178" y="-15" on="0"/>
        <pt x="96" y="20" on="0"/>
        <pt x="48" y="92" on="0"/>
        <pt x="28" y="198" on="0"/>
        <pt x="28" y="269" on="1"/>
        <pt x="28" y="329" on="0"/>
        <pt x="48" y="426" on="0"/>
        <pt x="90" y="495" on="0"/>
        <pt x="156" y="532" on="0"/>
        <pt x="202" y="532" on="1"/>
        <pt x="219" y="532" on="0"/>
        <pt x="255" y="520" on="0"/>
        <pt x="272" y="506" on="1"/>
        <pt x="274" y="508" on="1"/>
        <pt x="256" y="537" on="0"/>
        <pt x="208" y="598" on="0"/>
        <pt x="182" y="628" on="1"/>
        <pt x="105" y="583" on="1"/>
      </contour>
      <contour>
        <pt x="166" y="262" on="1"/>
        <pt x="166" y="222" on="0"/>
        <pt x="170" y="155" on="0"/>
        <pt x="185" y="107" on="0"/>
        <pt x="214" y="80" on="0"/>
        <pt x="240" y="80" on="1"/>
        <pt x="282" y="80" on="0"/>
        <pt x="314" y="165" on="0"/>
        <pt x="314" y="262" on="1"/>
        <pt x="314" y="355" on="0"/>
        <pt x="282" y="438" on="0"/>
        <pt x="240" y="438" on="1"/>
        <pt x="214" y="438" on="0"/>
        <pt x="185" y="411" on="0"/>
        <pt x="170" y="364" on="0"/>
        <pt x="166" y="299" on="0"/>
      </contour>
    </TTGlyph>
    <TTGlyph name="exclam" xMin="79" yMin="0" xMax="217" yMax="714">
      <contour>
        <pt x="217" y="132" on="1"/>
        <pt x="217" y="0" on="1"/>
        <pt x="79" y="0" on="1"/>
        <pt x="79" y="132" on="1"/>
      </contour>
      <contour>
        <pt x="98" y="199" on="1"/>
        <pt x="79" y="482" on="1"/>
        <pt x="79" y="714" on="1"/>
        <pt x="217" y="714" on="1"/>
        <pt x="217" y="482" on="1"/>
        <pt x="198" y="199" on="1"/>
      </contour>
    </TTGlyph>
    <TTGlyph name="exclamdown" xMin="79" yMin="-176" xMax="217" yMax="538">
      <contour>
        <pt x="79" y="538" on="1"/>
        <pt x="217" y="538" on="1"/>
        <pt x="217" y="406" on="1"/>
        <pt x="79" y="406" on="1"/>
      </contour>
      <contour>
        <pt x="79" y="56" on="1"/>
        <pt x="98" y="339" on="1"/>
        <pt x="198" y="339" on="1"/>
        <pt x="217" y="56" on="1"/>
        <pt x="217" y="-176" on="1"/>
        <pt x="79" y="-176" on="1"/>
      </contour>
    </TTGlyph>
    <TTGlyph name="f" xMin="6" yMin="0" xMax="294" yMax="728">
      <contour>
        <pt x="76" y="444" on="1"/>
        <pt x="6" y="444" on="1"/>
        <pt x="6" y="538" on="1"/>
        <pt x="76" y="538" on="1"/>
        <pt x="76" y="599" on="1"/>
        <pt x="76" y="635" on="0"/>
        <pt x="96" y="685" on="0"/>
        <pt x="133" y="715" on="0"/>
        <pt x="187" y="728" on="0"/>
        <pt x="220" y="728" on="1"/>
        <pt x="256" y="728" on="0"/>
        <pt x="294" y="725" on="1"/>
        <pt x="294" y="627" on="1"/>
        <pt x="289" y="628" on="0"/>
        <pt x="280" y="628" on="1"/>
        <pt x="267" y="628" on="1"/>
        <pt x="238" y="628" on="0"/>
        <pt x="214" y="608" on="0"/>
        <pt x="214" y="585" on="1"/>
        <pt x="214" y="538" on="1"/>
        <pt x="294" y="538" on="1"/>
        <pt x="294" y="444" on="1"/>
        <pt x="214" y="444" on="1"/>
        <pt x="214" y="0" on="1"/>
        <pt x="76" y="0" on="1"/>
      </contour>
    </TTGlyph>
    <TTGlyph name="fi" xMin="6" yMin="0" xMax="487" yMax="728">
      <component glyphName="f" x="0" y="0" flags="0x4"/>
      <component glyphName="i" x="298" y="0" flags="0x4"/>
    </TTGlyph>
    <TTGlyph name="five" xMin="18" yMin="-14" xMax="454" yMax="694">
      <contour>
        <pt x="425" y="582" on="1"/>
        <pt x="164" y="582" on="1"/>
        <pt x="149" y="421" on="1"/>
        <pt x="151" y="421" on="1"/>
        <pt x="171" y="449" on="0"/>
        <pt x="235" y="474" on="0"/>
        <pt x="281" y="474" on="1"/>
        <pt x="332" y="474" on="0"/>
        <pt x="399" y="435" on="0"/>
        <pt x="438" y="371" on="0"/>
        <pt x="454" y="290" on="0"/>
        <pt x="454" y="248" on="1"/>
        <pt x="454" y="189" on="0"/>
        <pt x="434" y="93" on="0"/>
        <pt x="383" y="24" on="0"/>
        <pt x="295" y="-14" on="0"/>
        <pt x="227" y="-14" on="1"/>
        <pt x="159" y="-14" on="0"/>
        <pt x="77" y="25" on="0"/>
        <pt x="33" y="84" on="0"/>
        <pt x="18" y="153" on="0"/>
        <pt x="18" y="183" on="1"/>
        <pt x="18" y="202" on="1"/>
        <pt x="156" y="202" on="1"/>
        <pt x="156" y="184" on="0"/>
        <pt x="160" y="144" on="0"/>
        <pt x="175" y="109" on="0"/>
        <pt x="203" y="86" on="0"/>
        <pt x="226" y="86" on="1"/>
        <pt x="271" y="86" on="0"/>
        <pt x="310" y="155" on="0"/>
        <pt x="310" y="224" on="1"/>
        <pt x="310" y="268" on="0"/>
        <pt x="302" y="326" on="0"/>
        <pt x="283" y="360" on="0"/>
        <pt x="251" y="374" on="0"/>
        <pt x="227" y="374" on="1"/>
        <pt x="196" y="374" on="0"/>
        <pt x="163" y="339" on="0"/>
        <pt x="159" y="309" on="1"/>
        <pt x="30" y="309" on="1"/>
        <pt x="56" y="694" on="1"/>
        <pt x="425" y="694" on="1"/>
      </contour>
    </TTGlyph>
    <TTGlyph name="fl" xMin="6" yMin="0" xMax="487" yMax="728">
      <component glyphName="f" x="0" y="0" flags="0x4"/>
      <component glyphName="l" x="298" y="0" flags="0x4"/>
    </TTGlyph>
    <TTGlyph name="florin" xMin="-35" yMin="-176" xMax="475" yMax="714">
      <contour>
        <pt x="80" y="428" on="1"/>
        <pt x="185" y="428" on="1"/>
        <pt x="202" y="517" on="1"/>
        <pt x="212" y="570" on="0"/>
        <pt x="242" y="645" on="0"/>
        <pt x="288" y="692" on="0"/>
        <pt x="354" y="714" on="0"/>
        <pt x="400" y="714" on="1"/>
        <pt x="418" y="714" on="0"/>
        <pt x="458" y="713" on="0"/>
        <pt x="475" y="711" on="1"/>
        <pt x="456" y="617" on="1"/>
        <pt x="448" y="619" on="0"/>
        <pt x="435" y="620" on="0"/>
        <pt x="428" y="620" on="1"/>
        <pt x="404" y="620" on="0"/>
        <pt x="373" y="609" on="0"/>
        <pt x="353" y="582" on="0"/>
        <pt x="339" y="536" on="0"/>
        <pt x="332" y="501" on="1"/>
        <pt x="317" y="428" on="1"/>
        <pt x="427" y="428" on="1"/>
        <pt x="412" y="346" on="1"/>
        <pt x="301" y="346" on="1"/>
        <pt x="236" y="4" on="1"/>
        <pt x="228" y="-38" on="0"/>
        <pt x="203" y="-105" on="0"/>
        <pt x="158" y="-152" on="0"/>
        <pt x="89" y="-176" on="0"/>
        <pt x="37" y="-176" on="1"/>
        <pt x="14" y="-176" on="0"/>
        <pt x="-24" y="-173" on="0"/>
        <pt x="-35" y="-169" on="1"/>
        <pt x="-15" y="-78" on="1"/>
        <pt x="0" y="-82" on="0"/>
        <pt x="20" y="-82" on="1"/>
        <pt x="42" y="-82" on="0"/>
        <pt x="70" y="-71" on="0"/>
        <pt x="89" y="-48" on="0"/>
        <pt x="100" y="-11" on="0"/>
        <pt x="105" y="16" on="1"/>
        <pt x="169" y="346" on="1"/>
        <pt x="64" y="346" on="1"/>
      </contour>
    </TTGlyph>
    <TTGlyph name="four" xMin="14" yMin="0" xMax="466" yMax="708">
      <contour>
        <pt x="14" y="265" on="1"/>
        <pt x="249" y="708" on="1"/>
        <pt x="398" y="708" on="1"/>
        <pt x="398" y="259" on="1"/>
        <pt x="466" y="259" on="1"/>
        <pt x="466" y="147" on="1"/>
        <pt x="398" y="147" on="1"/>
        <pt x="398" y="0" on="1"/>
        <pt x="266" y="0" on="1"/>
        <pt x="266" y="147" on="1"/>
        <pt x="14" y="147" on="1"/>
      </contour>
      <contour>
        <pt x="266" y="528" on="1"/>
        <pt x="264" y="528" on="1"/>
        <pt x="126" y="259" on="1"/>
        <pt x="266" y="259" on="1"/>
      </contour>
    </TTGlyph>
    <TTGlyph name="fraction" xMin="-164" yMin="-31" xMax="331" yMax="725">
      <contour>
        <pt x="242" y="725" on="1"/>
        <pt x="331" y="725" on="1"/>
        <pt x="-75" y="-31" on="1"/>
        <pt x="-164" y="-31" on="1"/>
      </contour>
    </TTGlyph>
    <TTGlyph name="g" xMin="35" yMin="-184" xMax="449" yMax="552">
      <contour>
        <pt x="173" y="252" on="1"/>
        <pt x="173" y="224" on="0"/>
        <pt x="178" y="174" on="0"/>
        <pt x="193" y="135" on="0"/>
        <pt x="220" y="112" on="0"/>
        <pt x="242" y="112" on="1"/>
        <pt x="264" y="112" on="0"/>
        <pt x="293" y="135" on="0"/>
        <pt x="310" y="175" on="0"/>
        <pt x="317" y="232" on="0"/>
        <pt x="317" y="266" on="1"/>
        <pt x="317" y="364" on="0"/>
        <pt x="286" y="446" on="0"/>
        <pt x="245" y="446" on="1"/>
        <pt x="222" y="446" on="0"/>
        <pt x="194" y="426" on="0"/>
        <pt x="178" y="381" on="0"/>
        <pt x="173" y="306" on="0"/>
      </contour>
      <contour>
        <pt x="449" y="538" on="1"/>
        <pt x="449" y="27" on="1"/>
        <pt x="449" y="-81" on="0"/>
        <pt x="346" y="-184" on="0"/>
        <pt x="225" y="-184" on="1"/>
        <pt x="137" y="-184" on="0"/>
        <pt x="42" y="-109" on="0"/>
        <pt x="42" y="-40" on="1"/>
        <pt x="174" y="-40" on="1"/>
        <pt x="174" y="-66" on="0"/>
        <pt x="195" y="-81" on="1"/>
        <pt x="205" y="-88" on="0"/>
        <pt x="228" y="-96" on="0"/>
        <pt x="241" y="-96" on="1"/>
        <pt x="283" y="-96" on="0"/>
        <pt x="317" y="-41" on="0"/>
        <pt x="317" y="1" on="1"/>
        <pt x="317" y="72" on="1"/>
        <pt x="315" y="72" on="1"/>
        <pt x="294" y="42" on="0"/>
        <pt x="233" y="6" on="0"/>
        <pt x="200" y="6" on="1"/>
        <pt x="118" y="6" on="0"/>
        <pt x="35" y="131" on="0"/>
        <pt x="35" y="278" on="1"/>
        <pt x="35" y="325" on="0"/>
        <pt x="46" y="423" on="0"/>
        <pt x="81" y="502" on="0"/>
        <pt x="148" y="552" on="0"/>
        <pt x="204" y="552" on="1"/>
        <pt x="233" y="552" on="0"/>
        <pt x="295" y="520" on="0"/>
        <pt x="315" y="478" on="1"/>
        <pt x="317" y="478" on="1"/>
        <pt x="317" y="538" on="1"/>
      </contour>
    </TTGlyph>
    <TTGlyph name="gbreve" xMin="35" yMin="-184" xMax="449" yMax="745">
      <component glyphName="g" x="0" y="0" flags="0x204"/>
      <component glyphName="breve" x="142" y="0" flags="0x4"/>
    </TTGlyph>
    <TTGlyph name="gcircumflex" xMin="35" yMin="-184" xMax="449" yMax="746">
      <component glyphName="g" x="0" y="0" flags="0x204"/>
      <component glyphName="circumflex" x="149" y="0" flags="0x4"/>
    </TTGlyph>
    <TTGlyph name="gcommaaccent" xMin="35" yMin="-184" xMax="449" yMax="799">
      <component glyphName="g" x="0" y="0" flags="0x204"/>
      <component glyphName="commaaccent.alt" x="139" y="0" flags="0x4"/>
    </TTGlyph>
    <TTGlyph name="gdotaccent" xMin="35" yMin="-184" xMax="449" yMax="733">
      <component glyphName="g" x="0" y="0" flags="0x204"/>
      <component glyphName="dotaccent" x="143" y="0" flags="0x4"/>
    </TTGlyph>
    <TTGlyph name="germandbls" xMin="41" yMin="-6" xMax="472" yMax="728">
      <contour>
        <pt x="41" y="0" on="1"/>
        <pt x="41" y="527" on="1"/>
        <pt x="41" y="633" on="0"/>
        <pt x="144" y="728" on="0"/>
        <pt x="253" y="728" on="1"/>
        <pt x="349" y="728" on="0"/>
        <pt x="450" y="642" on="0"/>
        <pt x="450" y="557" on="1"/>
        <pt x="450" y="529" on="0"/>
        <pt x="442" y="485" on="0"/>
        <pt x="422" y="449" on="0"/>
        <pt x="387" y="421" on="0"/>
        <pt x="361" y="410" on="1"/>
        <pt x="361" y="408" on="1"/>
        <pt x="421" y="398" on="0"/>
        <pt x="472" y="297" on="0"/>
        <pt x="472" y="216" on="1"/>
        <pt x="472" y="179" on="0"/>
        <pt x="459" y="101" on="0"/>
        <pt x="420" y="36" on="0"/>
        <pt x="350" y="-6" on="0"/>
        <pt x="293" y="-6" on="1"/>
        <pt x="276" y="-6" on="0"/>
        <pt x="238" y="-4" on="0"/>
        <pt x="227" y="-2" on="1"/>
        <pt x="227" y="92" on="1"/>
        <pt x="236" y="88" on="0"/>
        <pt x="248" y="88" on="1"/>
        <pt x="275" y="88" on="0"/>
        <pt x="309" y="108" on="0"/>
        <pt x="328" y="146" on="0"/>
        <pt x="334" y="200" on="0"/>
        <pt x="334" y="234" on="1"/>
        <pt x="334" y="289" on="0"/>
        <pt x="300" y="355" on="0"/>
        <pt x="254" y="355" on="1"/>
        <pt x="229" y="355" on="1"/>
        <pt x="229" y="449" on="1"/>
        <pt x="246" y="449" on="1"/>
        <pt x="282" y="449" on="0"/>
        <pt x="312" y="502" on="0"/>
        <pt x="312" y="544" on="1"/>
        <pt x="312" y="562" on="0"/>
        <pt x="306" y="594" on="0"/>
        <pt x="291" y="619" on="0"/>
        <pt x="265" y="634" on="0"/>
        <pt x="246" y="634" on="1"/>
        <pt x="205" y="634" on="0"/>
        <pt x="179" y="572" on="0"/>
        <pt x="179" y="524" on="1"/>
        <pt x="179" y="0" on="1"/>
      </contour>
    </TTGlyph>
    <TTGlyph name="grave" xMin="-16" yMin="602" xMax="176" yMax="746">
      <contour>
        <pt x="82" y="602" on="1"/>
        <pt x="-16" y="746" on="1"/>
        <pt x="122" y="746" on="1"/>
        <pt x="176" y="602" on="1"/>
      </contour>
    </TTGlyph>
    <TTGlyph name="grave.cap" xMin="-16" yMin="756" xMax="176" yMax="900">
      <contour>
        <pt x="82" y="756" on="1"/>
        <pt x="-16" y="900" on="1"/>
        <pt x="122" y="900" on="1"/>
        <pt x="176" y="756" on="1"/>
      </contour>
    </TTGlyph>
    <TTGlyph name="greater" xMin="47" yMin="-8" xMax="553" yMax="514">
      <contour>
        <pt x="47" y="116" on="1"/>
        <pt x="385" y="253" on="1"/>
        <pt x="47" y="390" on="1"/>
        <pt x="47" y="514" on="1"/>
        <pt x="553" y="306" on="1"/>
        <pt x="553" y="200" on="1"/>
        <pt x="47" y="-8" on="1"/>
      </contour>
    </TTGlyph>
    <TTGlyph name="greaterequal" xMin="34" yMin="-38" xMax="559" yMax="563">
      <contour>
        <pt x="34" y="106" on="1"/>
        <pt x="34" y="224" on="1"/>
        <pt x="404" y="333" on="1"/>
        <pt x="34" y="445" on="1"/>
        <pt x="34" y="563" on="1"/>
        <pt x="559" y="389" on="1"/>
        <pt x="559" y="276" on="1"/>
      </contour>
      <contour>
        <pt x="34" y="-38" on="1"/>
        <pt x="34" y="75" on="1"/>
        <pt x="559" y="75" on="1"/>
        <pt x="559" y="-38" on="1"/>
      </contour>
    </TTGlyph>
    <TTGlyph name="guillemotleft" xMin="52" yMin="88" xMax="374" yMax="490">
      <contour>
        <pt x="52" y="370" on="1"/>
        <pt x="201" y="490" on="1"/>
        <pt x="201" y="358" on="1"/>
        <pt x="122" y="289" on="1"/>
        <pt x="201" y="220" on="1"/>
        <pt x="201" y="88" on="1"/>
        <pt x="52" y="208" on="1"/>
      </contour>
      <contour>
        <pt x="225" y="370" on="1"/>
        <pt x="374" y="490" on="1"/>
        <pt x="374" y="358" on="1"/>
        <pt x="295" y="289" on="1"/>
        <pt x="374" y="220" on="1"/>
        <pt x="374" y="88" on="1"/>
        <pt x="225" y="208" on="1"/>
      </contour>
    </TTGlyph>
    <TTGlyph name="guillemotright" xMin="52" yMin="88" xMax="374" yMax="490">
      <contour>
        <pt x="225" y="220" on="1"/>
        <pt x="304" y="289" on="1"/>
        <pt x="225" y="358" on="1"/>
        <pt x="225" y="490" on="1"/>
        <pt x="374" y="370" on="1"/>
        <pt x="374" y="208" on="1"/>
        <pt x="225" y="88" on="1"/>
      </contour>
      <contour>
        <pt x="52" y="220" on="1"/>
        <pt x="131" y="289" on="1"/>
        <pt x="52" y="358" on="1"/>
        <pt x="52" y="490" on="1"/>
        <pt x="201" y="370" on="1"/>
        <pt x="201" y="208" on="1"/>
        <pt x="52" y="88" on="1"/>
      </contour>
    </TTGlyph>
    <TTGlyph name="guilsinglleft" xMin="46" yMin="88" xMax="195" yMax="490">
      <contour>
        <pt x="46" y="370" on="1"/>
        <pt x="195" y="490" on="1"/>
        <pt x="195" y="358" on="1"/>
        <pt x="116" y="289" on="1"/>
        <pt x="195" y="220" on="1"/>
        <pt x="195" y="88" on="1"/>
        <pt x="46" y="208" on="1"/>
      </contour>
    </TTGlyph>
    <TTGlyph name="guilsinglright" xMin="46" yMin="88" xMax="195" yMax="490">
      <contour>
        <pt x="46" y="220" on="1"/>
        <pt x="125" y="289" on="1"/>
        <pt x="46" y="358" on="1"/>
        <pt x="46" y="490" on="1"/>
        <pt x="195" y="370" on="1"/>
        <pt x="195" y="208" on="1"/>
        <pt x="46" y="88" on="1"/>
      </contour>
    </TTGlyph>
    <TTGlyph name="h" xMin="46" yMin="0" xMax="454" yMax="714">
      <contour>
        <pt x="46" y="714" on="1"/>
        <pt x="184" y="714" on="1"/>
        <pt x="184" y="483" on="1"/>
        <pt x="186" y="483" on="1"/>
        <pt x="226" y="552" on="0"/>
        <pt x="317" y="552" on="1"/>
        <pt x="383" y="552" on="0"/>
        <pt x="454" y="480" on="0"/>
        <pt x="454" y="399" on="1"/>
        <pt x="454" y="0" on="1"/>
        <pt x="316" y="0" on="1"/>
        <pt x="316" y="371" on="1"/>
        <pt x="316" y="413" on="0"/>
        <pt x="288" y="446" on="0"/>
        <pt x="257" y="446" on="1"/>
        <pt x="184" y="446" on="0"/>
        <pt x="184" y="357" on="1"/>
        <pt x="184" y="0" on="1"/>
        <pt x="46" y="0" on="1"/>
      </contour>
    </TTGlyph>
    <TTGlyph name="hbar" xMin="0" yMin="0" xMax="494" yMax="714">
      <contour>
        <pt x="86" y="714" on="1"/>
        <pt x="224" y="714" on="1"/>
        <pt x="224" y="647" on="1"/>
        <pt x="335" y="647" on="1"/>
        <pt x="335" y="586" on="1"/>
        <pt x="224" y="586" on="1"/>
        <pt x="224" y="483" on="1"/>
        <pt x="226" y="483" on="1"/>
        <pt x="266" y="552" on="0"/>
        <pt x="357" y="552" on="1"/>
        <pt x="423" y="552" on="0"/>
        <pt x="494" y="480" on="0"/>
        <pt x="494" y="399" on="1"/>
        <pt x="494" y="0" on="1"/>
        <pt x="356" y="0" on="1"/>
        <pt x="356" y="371" on="1"/>
        <pt x="356" y="413" on="0"/>
        <pt x="328" y="446" on="0"/>
        <pt x="297" y="446" on="1"/>
        <pt x="224" y="446" on="0"/>
        <pt x="224" y="357" on="1"/>
        <pt x="224" y="0" on="1"/>
        <pt x="86" y="0" on="1"/>
        <pt x="86" y="586" on="1"/>
        <pt x="0" y="586" on="1"/>
        <pt x="0" y="647" on="1"/>
        <pt x="86" y="647" on="1"/>
      </contour>
    </TTGlyph>
    <TTGlyph name="hcircumflex" xMin="46" yMin="0" xMax="454" yMax="900">
      <component glyphName="h" x="0" y="0" flags="0x204"/>
      <component glyphName="circumflex" x="139" y="154" flags="0x4"/>
    </TTGlyph>
    <TTGlyph name="hungarumlaut" xMin="-37" yMin="602" xMax="321" yMax="746">
      <contour>
        <pt x="183" y="746" on="1"/>
        <pt x="321" y="746" on="1"/>
        <pt x="223" y="602" on="1"/>
        <pt x="129" y="602" on="1"/>
      </contour>
      <contour>
        <pt x="17" y="746" on="1"/>
        <pt x="155" y="746" on="1"/>
        <pt x="57" y="602" on="1"/>
        <pt x="-37" y="602" on="1"/>
      </contour>
    </TTGlyph>
    <TTGlyph name="hungarumlaut.cap" xMin="-37" yMin="756" xMax="321" yMax="900">
      <contour>
        <pt x="183" y="900" on="1"/>
        <pt x="321" y="900" on="1"/>
        <pt x="223" y="756" on="1"/>
        <pt x="129" y="756" on="1"/>
      </contour>
      <contour>
        <pt x="17" y="900" on="1"/>
        <pt x="155" y="900" on="1"/>
        <pt x="57" y="756" on="1"/>
        <pt x="-37" y="756" on="1"/>
      </contour>
    </TTGlyph>
    <TTGlyph name="hyphen" xMin="44" yMin="230" xMax="326" yMax="348">
      <contour>
        <pt x="326" y="348" on="1"/>
        <pt x="326" y="230" on="1"/>
        <pt x="44" y="230" on="1"/>
        <pt x="44" y="348" on="1"/>
      </contour>
    </TTGlyph>
    <TTGlyph name="i" xMin="51" yMin="0" xMax="189" yMax="722">
      <contour>
        <pt x="51" y="722" on="1"/>
        <pt x="189" y="722" on="1"/>
        <pt x="189" y="604" on="1"/>
        <pt x="51" y="604" on="1"/>
      </contour>
      <contour>
        <pt x="51" y="538" on="1"/>
        <pt x="189" y="538" on="1"/>
        <pt x="189" y="0" on="1"/>
        <pt x="51" y="0" on="1"/>
      </contour>
    </TTGlyph>
    <TTGlyph name="iacute" xMin="51" yMin="0" xMax="243" yMax="746">
      <component glyphName="dotlessi" x="0" y="0" flags="0x204"/>
      <component glyphName="acute" x="5" y="0" flags="0x4"/>
    </TTGlyph>
    <TTGlyph name="icircumflex" xMin="-29" yMin="0" xMax="271" yMax="746">
      <component glyphName="dotlessi" x="0" y="0" flags="0x204"/>
      <component glyphName="circumflex" x="10" y="0" flags="0x4"/>
    </TTGlyph>
    <TTGlyph name="idieresis" xMin="-22" yMin="0" xMax="262" yMax="733">
      <component glyphName="dotlessi" x="0" y="0" flags="0x204"/>
      <component glyphName="dieresis" x="9" y="0" flags="0x4"/>
    </TTGlyph>
    <TTGlyph name="igrave" xMin="-4" yMin="0" xMax="189" yMax="746">
      <component glyphName="dotlessi" x="0" y="0" flags="0x204"/>
      <component glyphName="grave" x="12" y="0" flags="0x4"/>
    </TTGlyph>
    <TTGlyph name="ij" xMin="51" yMin="-176" xMax="429" yMax="722">
      <component glyphName="i" x="0" y="0" flags="0x4"/>
      <component glyphName="j" x="240" y="0" flags="0x4"/>
    </TTGlyph>
    <TTGlyph name="imacron" xMin="-27" yMin="0" xMax="267" yMax="712">
      <component glyphName="dotlessi" x="0" y="0" flags="0x204"/>
      <component glyphName="macron" x="9" y="0" flags="0x4"/>
    </TTGlyph>
    <TTGlyph name="infinity" xMin="45" yMin="78" xMax="778" yMax="447">
      <contour>
        <pt x="778" y="265" on="1"/>
        <pt x="778" y="226" on="0"/>
        <pt x="754" y="158" on="0"/>
        <pt x="710" y="107" on="0"/>
        <pt x="645" y="78" on="0"/>
        <pt x="605" y="78" on="1"/>
        <pt x="574" y="78" on="0"/>
        <pt x="520" y="97" on="0"/>
        <pt x="473" y="128" on="0"/>
        <pt x="431" y="169" on="0"/>
        <pt x="412" y="191" on="1"/>
        <pt x="391" y="169" on="0"/>
        <pt x="350" y="128" on="0"/>
        <pt x="305" y="97" on="0"/>
        <pt x="253" y="79" on="0"/>
        <pt x="220" y="79" on="1"/>
        <pt x="179" y="79" on="0"/>
        <pt x="115" y="107" on="0"/>
        <pt x="69" y="157" on="0"/>
        <pt x="45" y="224" on="0"/>
        <pt x="45" y="263" on="1"/>
        <pt x="45" y="302" on="0"/>
        <pt x="68" y="368" on="0"/>
        <pt x="112" y="418" on="0"/>
        <pt x="176" y="446" on="0"/>
        <pt x="216" y="446" on="1"/>
        <pt x="249" y="446" on="0"/>
        <pt x="304" y="427" on="0"/>
        <pt x="351" y="394" on="0"/>
        <pt x="392" y="351" on="0"/>
        <pt x="412" y="327" on="1"/>
        <pt x="431" y="350" on="0"/>
        <pt x="472" y="394" on="0"/>
        <pt x="519" y="427" on="0"/>
        <pt x="574" y="447" on="0"/>
        <pt x="606" y="447" on="1"/>
        <pt x="646" y="447" on="0"/>
        <pt x="710" y="419" on="0"/>
        <pt x="754" y="370" on="0"/>
        <pt x="778" y="304" on="0"/>
      </contour>
      <contour>
        <pt x="684" y="262" on="1"/>
        <pt x="684" y="297" on="0"/>
        <pt x="641" y="347" on="0"/>
        <pt x="604" y="347" on="1"/>
        <pt x="584" y="347" on="0"/>
        <pt x="547" y="330" on="0"/>
        <pt x="514" y="304" on="0"/>
        <pt x="484" y="273" on="0"/>
        <pt x="472" y="260" on="1"/>
        <pt x="485" y="245" on="0"/>
        <pt x="515" y="216" on="0"/>
        <pt x="549" y="193" on="0"/>
        <pt x="586" y="179" on="0"/>
        <pt x="607" y="179" on="1"/>
        <pt x="644" y="179" on="0"/>
        <pt x="684" y="227" on="0"/>
      </contour>
      <contour>
        <pt x="352" y="260" on="1"/>
        <pt x="340" y="273" on="0"/>
        <pt x="308" y="304" on="0"/>
        <pt x="273" y="329" on="0"/>
        <pt x="235" y="346" on="0"/>
        <pt x="216" y="346" on="1"/>
        <pt x="181" y="346" on="0"/>
        <pt x="140" y="294" on="0"/>
        <pt x="140" y="261" on="1"/>
        <pt x="140" y="225" on="0"/>
        <pt x="182" y="180" on="0"/>
        <pt x="219" y="180" on="1"/>
        <pt x="238" y="180" on="0"/>
        <pt x="276" y="195" on="0"/>
        <pt x="310" y="218" on="0"/>
        <pt x="340" y="246" on="0"/>
      </contour>
    </TTGlyph>
    <TTGlyph name="integral" xMin="88" yMin="-214" xMax="493" yMax="785">
      <contour>
        <pt x="493" y="708" on="1"/>
        <pt x="493" y="685" on="0"/>
        <pt x="462" y="653" on="0"/>
        <pt x="439" y="653" on="1"/>
        <pt x="415" y="653" on="0"/>
        <pt x="393" y="677" on="0"/>
        <pt x="383" y="705" on="0"/>
        <pt x="374" y="729" on="0"/>
        <pt x="364" y="729" on="1"/>
        <pt x="353" y="729" on="0"/>
        <pt x="346" y="710" on="0"/>
        <pt x="346" y="701" on="1"/>
        <pt x="346" y="665" on="0"/>
        <pt x="350" y="592" on="0"/>
        <pt x="350" y="556" on="1"/>
        <pt x="351" y="86" on="1"/>
        <pt x="351" y="43" on="0"/>
        <pt x="351" y="-61" on="0"/>
        <pt x="326" y="-152" on="0"/>
        <pt x="263" y="-214" on="0"/>
        <pt x="201" y="-214" on="1"/>
        <pt x="184" y="-214" on="0"/>
        <pt x="144" y="-205" on="0"/>
        <pt x="110" y="-186" on="0"/>
        <pt x="88" y="-156" on="0"/>
        <pt x="88" y="-135" on="1"/>
        <pt x="88" y="-112" on="0"/>
        <pt x="119" y="-82" on="0"/>
        <pt x="142" y="-82" on="1"/>
        <pt x="166" y="-82" on="0"/>
        <pt x="187" y="-106" on="0"/>
        <pt x="198" y="-134" on="0"/>
        <pt x="205" y="-158" on="0"/>
        <pt x="216" y="-158" on="1"/>
        <pt x="229" y="-158" on="0"/>
        <pt x="234" y="-134" on="0"/>
        <pt x="234" y="-125" on="1"/>
        <pt x="234" y="-97" on="0"/>
        <pt x="230" y="-42" on="0"/>
        <pt x="230" y="-13" on="1"/>
        <pt x="229" y="516" on="1"/>
        <pt x="229" y="541" on="0"/>
        <pt x="229" y="602" on="0"/>
        <pt x="236" y="662" on="0"/>
        <pt x="254" y="718" on="0"/>
        <pt x="272" y="738" on="1"/>
        <pt x="315" y="785" on="0"/>
        <pt x="382" y="785" on="1"/>
        <pt x="399" y="785" on="0"/>
        <pt x="438" y="776" on="0"/>
        <pt x="471" y="758" on="0"/>
        <pt x="493" y="729" on="0"/>
      </contour>
    </TTGlyph>
    <TTGlyph name="iogonek" xMin="-2" yMin="-217" xMax="208" yMax="722">
      <contour>
        <pt x="208" y="-182" on="1"/>
        <pt x="180" y="-202" on="0"/>
        <pt x="129" y="-217" on="0"/>
        <pt x="94" y="-217" on="1"/>
        <pt x="65" y="-217" on="0"/>
        <pt x="27" y="-202" on="0"/>
        <pt x="6" y="-180" on="0"/>
        <pt x="-2" y="-152" on="0"/>
        <pt x="-2" y="-138" on="1"/>
        <pt x="-2" y="-101" on="0"/>
        <pt x="64" y="-26" on="0"/>
        <pt x="121" y="0" on="1"/>
        <pt x="51" y="0" on="1"/>
        <pt x="51" y="538" on="1"/>
        <pt x="189" y="538" on="1"/>
        <pt x="189" y="0" on="1"/>
        <pt x="188" y="0" on="1"/>
        <pt x="157" y="-23" on="0"/>
        <pt x="118" y="-58" on="0"/>
        <pt x="95" y="-86" on="0"/>
        <pt x="87" y="-110" on="0"/>
        <pt x="87" y="-122" on="1"/>
        <pt x="87" y="-153" on="0"/>
        <pt x="115" y="-153" on="1"/>
        <pt x="129" y="-153" on="0"/>
        <pt x="156" y="-146" on="0"/>
        <pt x="178" y="-133" on="1"/>
      </contour>
      <contour>
        <pt x="51" y="722" on="1"/>
        <pt x="189" y="722" on="1"/>
        <pt x="189" y="604" on="1"/>
        <pt x="51" y="604" on="1"/>
      </contour>
    </TTGlyph>
    <TTGlyph name="itilde" xMin="-37" yMin="0" xMax="277" yMax="737">
      <component glyphName="dotlessi" x="0" y="0" flags="0x204"/>
      <component glyphName="tilde" x="9" y="0" flags="0x4"/>
    </TTGlyph>
    <TTGlyph name="j" xMin="-25" yMin="-176" xMax="189" yMax="722">
      <contour>
        <pt x="51" y="722" on="1"/>
        <pt x="189" y="722" on="1"/>
        <pt x="189" y="604" on="1"/>
        <pt x="51" y="604" on="1"/>
      </contour>
      <contour>
        <pt x="51" y="538" on="1"/>
        <pt x="189" y="538" on="1"/>
        <pt x="189" y="-37" on="1"/>
        <pt x="189" y="-71" on="0"/>
        <pt x="174" y="-123" on="0"/>
        <pt x="138" y="-158" on="0"/>
        <pt x="77" y="-176" on="0"/>
        <pt x="31" y="-176" on="1"/>
        <pt x="19" y="-176" on="0"/>
        <pt x="-10" y="-175" on="0"/>
        <pt x="-25" y="-174" on="1"/>
        <pt x="-25" y="-74" on="1"/>
        <pt x="-19" y="-76" on="0"/>
        <pt x="-14" y="-76" on="1"/>
        <pt x="-3" y="-76" on="1"/>
        <pt x="15" y="-76" on="0"/>
        <pt x="37" y="-66" on="0"/>
        <pt x="48" y="-45" on="0"/>
        <pt x="51" y="-13" on="0"/>
        <pt x="51" y="10" on="1"/>
      </contour>
    </TTGlyph>
    <TTGlyph name="jcircumflex" xMin="-33" yMin="-176" xMax="267" yMax="746">
      <component glyphName="dotlessj" x="0" y="0" flags="0x204"/>
      <component glyphName="circumflex" x="6" y="0" flags="0x4"/>
    </TTGlyph>
    <TTGlyph name="k" xMin="51" yMin="0" xMax="505" yMax="714">
      <contour>
        <pt x="189" y="714" on="1"/>
        <pt x="189" y="337" on="1"/>
        <pt x="191" y="337" on="1"/>
        <pt x="330" y="538" on="1"/>
        <pt x="482" y="538" on="1"/>
        <pt x="327" y="326" on="1"/>
        <pt x="505" y="0" on="1"/>
        <pt x="353" y="0" on="1"/>
        <pt x="238" y="221" on="1"/>
        <pt x="189" y="157" on="1"/>
        <pt x="189" y="0" on="1"/>
        <pt x="51" y="0" on="1"/>
        <pt x="51" y="714" on="1"/>
      </contour>
    </TTGlyph>
    <TTGlyph name="kcommaaccent" xMin="51" yMin="-253" xMax="505" yMax="714">
      <component glyphName="k" x="0" y="0" flags="0x204"/>
      <component glyphName="commaaccent" x="148" y="0" flags="0x4"/>
    </TTGlyph>
    <TTGlyph name="l" xMin="51" yMin="0" xMax="189" yMax="714">
      <contour>
        <pt x="51" y="714" on="1"/>
        <pt x="189" y="714" on="1"/>
        <pt x="189" y="0" on="1"/>
        <pt x="51" y="0" on="1"/>
      </contour>
    </TTGlyph>
    <TTGlyph name="lacute" xMin="51" yMin="0" xMax="244" yMax="900">
      <component glyphName="l" x="0" y="0" flags="0x204"/>
      <component glyphName="acute" x="6" y="154" flags="0x4"/>
    </TTGlyph>
    <TTGlyph name="lcaron" xMin="51" yMin="0" xMax="380" yMax="714">
      <component glyphName="l" x="0" y="0" flags="0x4"/>
      <component glyphName="caron.alt" x="181" y="0" flags="0x4"/>
    </TTGlyph>
    <TTGlyph name="lcommaaccent" xMin="51" yMin="-253" xMax="189" yMax="714">
      <component glyphName="l" x="0" y="0" flags="0x204"/>
      <component glyphName="commaaccent" x="1" y="0" flags="0x4"/>
    </TTGlyph>
    <TTGlyph name="ldot" xMin="51" yMin="0" xMax="357" yMax="714">
      <component glyphName="l" x="0" y="0" flags="0x4"/>
      <component glyphName="dotaccent" x="190" y="-194" flags="0x4"/>
    </TTGlyph>
    <TTGlyph name="less" xMin="47" yMin="-8" xMax="553" yMax="514">
      <contour>
        <pt x="47" y="306" on="1"/>
        <pt x="553" y="514" on="1"/>
        <pt x="553" y="390" on="1"/>
        <pt x="215" y="253" on="1"/>
        <pt x="553" y="116" on="1"/>
        <pt x="553" y="-8" on="1"/>
        <pt x="47" y="200" on="1"/>
      </contour>
    </TTGlyph>
    <TTGlyph name="lessequal" xMin="34" yMin="-38" xMax="559" yMax="563">
      <contour>
        <pt x="34" y="276" on="1"/>
        <pt x="34" y="389" on="1"/>
        <pt x="559" y="563" on="1"/>
        <pt x="559" y="445" on="1"/>
        <pt x="189" y="333" on="1"/>
        <pt x="559" y="224" on="1"/>
        <pt x="559" y="106" on="1"/>
      </contour>
      <contour>
        <pt x="34" y="-38" on="1"/>
        <pt x="34" y="75" on="1"/>
        <pt x="559" y="75" on="1"/>
        <pt x="559" y="-38" on="1"/>
      </contour>
    </TTGlyph>
    <TTGlyph name="logicalnot" xMin="47" yMin="98" xMax="553" yMax="424">
      <contour>
        <pt x="429" y="300" on="1"/>
        <pt x="47" y="300" on="1"/>
        <pt x="47" y="424" on="1"/>
        <pt x="553" y="424" on="1"/>
        <pt x="553" y="98" on="1"/>
        <pt x="429" y="98" on="1"/>
      </contour>
    </TTGlyph>
    <TTGlyph name="lozenge" xMin="65" yMin="-35" xMax="528" yMax="747">
      <contour>
        <pt x="348" y="-35" on="1"/>
        <pt x="243" y="-35" on="1"/>
        <pt x="65" y="356" on="1"/>
        <pt x="244" y="747" on="1"/>
        <pt x="348" y="747" on="1"/>
        <pt x="528" y="356" on="1"/>
      </contour>
      <contour>
        <pt x="296" y="635" on="1"/>
        <pt x="180" y="356" on="1"/>
        <pt x="296" y="76" on="1"/>
        <pt x="413" y="356" on="1"/>
      </contour>
    </TTGlyph>
    <TTGlyph name="lslash" xMin="-12" yMin="0" xMax="252" yMax="714">
      <contour>
        <pt x="51" y="282" on="1"/>
        <pt x="-12" y="240" on="1"/>
        <pt x="-12" y="328" on="1"/>
        <pt x="51" y="370" on="1"/>
        <pt x="51" y="714" on="1"/>
        <pt x="189" y="714" on="1"/>
        <pt x="189" y="461" on="1"/>
        <pt x="252" y="502" on="1"/>
        <pt x="252" y="414" on="1"/>
        <pt x="189" y="373" on="1"/>
        <pt x="189" y="0" on="1"/>
        <pt x="51" y="0" on="1"/>
      </contour>
    </TTGlyph>
    <TTGlyph name="m" xMin="46" yMin="0" xMax="712" yMax="552">
      <contour>
        <pt x="46" y="538" on="1"/>
        <pt x="178" y="538" on="1"/>
        <pt x="178" y="483" on="1"/>
        <pt x="180" y="483" on="1"/>
        <pt x="206" y="520" on="0"/>
        <pt x="271" y="552" on="0"/>
        <pt x="316" y="552" on="1"/>
        <pt x="364" y="552" on="0"/>
        <pt x="429" y="508" on="0"/>
        <pt x="440" y="466" on="1"/>
        <pt x="442" y="466" on="1"/>
        <pt x="458" y="509" on="0"/>
        <pt x="529" y="552" on="0"/>
        <pt x="578" y="552" on="1"/>
        <pt x="647" y="552" on="0"/>
        <pt x="712" y="469" on="0"/>
        <pt x="712" y="391" on="1"/>
        <pt x="712" y="0" on="1"/>
        <pt x="574" y="0" on="1"/>
        <pt x="574" y="376" on="1"/>
        <pt x="574" y="410" on="0"/>
        <pt x="549" y="446" on="0"/>
        <pt x="520" y="446" on="1"/>
        <pt x="487" y="446" on="0"/>
        <pt x="448" y="402" on="0"/>
        <pt x="448" y="354" on="1"/>
        <pt x="448" y="0" on="1"/>
        <pt x="310" y="0" on="1"/>
        <pt x="310" y="376" on="1"/>
        <pt x="310" y="410" on="0"/>
        <pt x="285" y="446" on="0"/>
        <pt x="256" y="446" on="1"/>
        <pt x="223" y="446" on="0"/>
        <pt x="184" y="402" on="0"/>
        <pt x="184" y="354" on="1"/>
        <pt x="184" y="0" on="1"/>
        <pt x="46" y="0" on="1"/>
      </contour>
    </TTGlyph>
    <TTGlyph name="macron" xMin="-36" yMin="636" xMax="258" yMax="712">
      <contour>
        <pt x="258" y="712" on="1"/>
        <pt x="258" y="636" on="1"/>
        <pt x="-36" y="636" on="1"/>
        <pt x="-36" y="712" on="1"/>
      </contour>
    </TTGlyph>
    <TTGlyph name="macron.cap" xMin="-36" yMin="790" xMax="258" yMax="866">
      <contour>
        <pt x="258" y="866" on="1"/>
        <pt x="258" y="790" on="1"/>
        <pt x="-36" y="790" on="1"/>
        <pt x="-36" y="866" on="1"/>
      </contour>
    </TTGlyph>
    <TTGlyph name="minus" xMin="47" yMin="191" xMax="553" yMax="315">
      <contour>
        <pt x="47" y="315" on="1"/>
        <pt x="553" y="315" on="1"/>
        <pt x="553" y="191" on="1"/>
        <pt x="47" y="191" on="1"/>
      </contour>
    </TTGlyph>
    <TTGlyph name="mu" xMin="46" yMin="-176" xMax="454" yMax="538">
      <contour>
        <pt x="316" y="538" on="1"/>
        <pt x="454" y="538" on="1"/>
        <pt x="454" y="0" on="1"/>
        <pt x="322" y="0" on="1"/>
        <pt x="322" y="63" on="1"/>
        <pt x="320" y="63" on="1"/>
        <pt x="298" y="23" on="0"/>
        <pt x="239" y="-14" on="0"/>
        <pt x="214" y="-14" on="1"/>
        <pt x="203" y="-14" on="0"/>
        <pt x="189" y="-9" on="0"/>
        <pt x="184" y="-6" on="1"/>
        <pt x="184" y="-176" on="1"/>
        <pt x="46" y="-176" on="1"/>
        <pt x="46" y="538" on="1"/>
        <pt x="184" y="538" on="1"/>
        <pt x="184" y="167" on="1"/>
        <pt x="184" y="125" on="0"/>
        <pt x="212" y="92" on="0"/>
        <pt x="243" y="92" on="1"/>
        <pt x="316" y="92" on="0"/>
        <pt x="316" y="181" on="1"/>
      </contour>
    </TTGlyph>
    <TTGlyph name="multiply" xMin="59" yMin="12" xMax="541" yMax="494">
      <contour>
        <pt x="215" y="253" on="1"/>
        <pt x="59" y="408" on="1"/>
        <pt x="145" y="494" on="1"/>
        <pt x="300" y="338" on="1"/>
        <pt x="455" y="494" on="1"/>
        <pt x="541" y="408" on="1"/>
        <pt x="385" y="253" on="1"/>
        <pt x="541" y="98" on="1"/>
        <pt x="455" y="12" on="1"/>
        <pt x="300" y="168" on="1"/>
        <pt x="145" y="12" on="1"/>
        <pt x="59" y="98" on="1"/>
      </contour>
    </TTGlyph>
    <TTGlyph name="n" xMin="46" yMin="0" xMax="454" yMax="552">
      <contour>
        <pt x="46" y="538" on="1"/>
        <pt x="178" y="538" on="1"/>
        <pt x="178" y="475" on="1"/>
        <pt x="180" y="475" on="1"/>
        <pt x="202" y="515" on="0"/>
        <pt x="272" y="552" on="0"/>
        <pt x="317" y="552" on="1"/>
        <pt x="383" y="552" on="0"/>
        <pt x="454" y="480" on="0"/>
        <pt x="454" y="399" on="1"/>
        <pt x="454" y="0" on="1"/>
        <pt x="316" y="0" on="1"/>
        <pt x="316" y="371" on="1"/>
        <pt x="316" y="413" on="0"/>
        <pt x="288" y="446" on="0"/>
        <pt x="257" y="446" on="1"/>
        <pt x="184" y="446" on="0"/>
        <pt x="184" y="357" on="1"/>
        <pt x="184" y="0" on="1"/>
        <pt x="46" y="0" on="1"/>
      </contour>
    </TTGlyph>
    <TTGlyph name="nacute" xMin="46" yMin="0" xMax="454" yMax="746">
      <component glyphName="n" x="0" y="0" flags="0x204"/>
      <component glyphName="acute" x="149" y="0" flags="0x4"/>
    </TTGlyph>
    <TTGlyph name="napostrophe" xMin="31" yMin="0" xMax="484" yMax="832">
      <component glyphName="n" x="30" y="0" flags="0x4"/>
      <component glyphName="commaaccent" x="-35" y="882" flags="0x4"/>
    </TTGlyph>
    <TTGlyph name="ncaron" xMin="46" yMin="0" xMax="454" yMax="746">
      <component glyphName="n" x="0" y="0" flags="0x204"/>
      <component glyphName="caron" x="137" y="0" flags="0x4"/>
    </TTGlyph>
    <TTGlyph name="ncommaaccent" xMin="46" yMin="-253" xMax="454" yMax="552">
      <component glyphName="n" x="0" y="0" flags="0x204"/>
      <component glyphName="commaaccent" x="130" y="0" flags="0x4"/>
    </TTGlyph>
    <TTGlyph name="nine" xMin="14" yMin="-14" xMax="466" yMax="708">
      <contour>
        <pt x="158" y="474" on="1"/>
        <pt x="158" y="402" on="0"/>
        <pt x="194" y="340" on="0"/>
        <pt x="236" y="340" on="1"/>
        <pt x="279" y="340" on="0"/>
        <pt x="315" y="402" on="0"/>
        <pt x="315" y="474" on="1"/>
        <pt x="315" y="504" on="0"/>
        <pt x="309" y="556" on="0"/>
        <pt x="292" y="593" on="0"/>
        <pt x="261" y="614" on="0"/>
        <pt x="236" y="614" on="1"/>
        <pt x="210" y="614" on="0"/>
        <pt x="179" y="593" on="0"/>
        <pt x="163" y="555" on="0"/>
        <pt x="158" y="504" on="0"/>
      </contour>
      <contour>
        <pt x="169" y="165" on="1"/>
        <pt x="169" y="125" on="0"/>
        <pt x="198" y="80" on="0"/>
        <pt x="234" y="80" on="1"/>
        <pt x="262" y="80" on="0"/>
        <pt x="297" y="107" on="0"/>
        <pt x="316" y="155" on="0"/>
        <pt x="322" y="221" on="0"/>
        <pt x="322" y="260" on="1"/>
        <pt x="322" y="294" on="1"/>
        <pt x="320" y="294" on="1"/>
        <pt x="302" y="267" on="0"/>
        <pt x="235" y="234" on="0"/>
        <pt x="187" y="234" on="1"/>
        <pt x="140" y="234" on="0"/>
        <pt x="74" y="267" on="0"/>
        <pt x="33" y="326" on="0"/>
        <pt x="14" y="407" on="0"/>
        <pt x="14" y="455" on="1"/>
        <pt x="14" y="578" on="0"/>
        <pt x="123" y="708" on="0"/>
        <pt x="243" y="708" on="1"/>
        <pt x="317" y="708" on="0"/>
        <pt x="405" y="653" on="0"/>
        <pt x="452" y="562" on="0"/>
        <pt x="466" y="442" on="0"/>
        <pt x="466" y="377" on="1"/>
        <pt x="466" y="302" on="0"/>
        <pt x="457" y="161" on="0"/>
        <pt x="412" y="52" on="0"/>
        <pt x="315" y="-14" on="0"/>
        <pt x="228" y="-14" on="1"/>
        <pt x="190" y="-14" on="0"/>
        <pt x="119" y="4" on="0"/>
        <pt x="65" y="45" on="0"/>
        <pt x="32" y="114" on="0"/>
        <pt x="31" y="165" on="1"/>
      </contour>
    </TTGlyph>
    <TTGlyph name="notequal" xMin="34" yMin="-61" xMax="559" yMax="585">
      <contour>
        <pt x="273" y="94" on="1"/>
        <pt x="195" y="-61" on="1"/>
        <pt x="97" y="-11" on="1"/>
        <pt x="149" y="94" on="1"/>
        <pt x="34" y="94" on="1"/>
        <pt x="34" y="207" on="1"/>
        <pt x="207" y="207" on="1"/>
        <pt x="263" y="319" on="1"/>
        <pt x="34" y="319" on="1"/>
        <pt x="34" y="432" on="1"/>
        <pt x="320" y="432" on="1"/>
        <pt x="398" y="585" on="1"/>
        <pt x="497" y="536" on="1"/>
        <pt x="444" y="432" on="1"/>
        <pt x="559" y="432" on="1"/>
        <pt x="559" y="319" on="1"/>
        <pt x="387" y="319" on="1"/>
        <pt x="331" y="207" on="1"/>
        <pt x="559" y="207" on="1"/>
        <pt x="559" y="94" on="1"/>
      </contour>
    </TTGlyph>
    <TTGlyph name="ntilde" xMin="46" yMin="0" xMax="454" yMax="737">
      <component glyphName="n" x="0" y="0" flags="0x204"/>
      <component glyphName="tilde" x="132" y="0" flags="0x4"/>
    </TTGlyph>
    <TTGlyph name="numbersign" xMin="0" yMin="0" xMax="480" yMax="694">
      <contour>
        <pt x="184" y="286" on="1"/>
        <pt x="281" y="286" on="1"/>
        <pt x="297" y="408" on="1"/>
        <pt x="199" y="408" on="1"/>
      </contour>
      <contour>
        <pt x="0" y="286" on="1"/>
        <pt x="87" y="286" on="1"/>
        <pt x="103" y="408" on="1"/>
        <pt x="30" y="408" on="1"/>
        <pt x="30" y="520" on="1"/>
        <pt x="116" y="520" on="1"/>
        <pt x="138" y="694" on="1"/>
        <pt x="234" y="694" on="1"/>
        <pt x="213" y="520" on="1"/>
        <pt x="310" y="520" on="1"/>
        <pt x="332" y="694" on="1"/>
        <pt x="429" y="694" on="1"/>
        <pt x="407" y="520" on="1"/>
        <pt x="480" y="520" on="1"/>
        <pt x="480" y="408" on="1"/>
        <pt x="394" y="408" on="1"/>
        <pt x="378" y="286" on="1"/>
        <pt x="451" y="286" on="1"/>
        <pt x="451" y="174" on="1"/>
        <pt x="365" y="174" on="1"/>
        <pt x="343" y="0" on="1"/>
        <pt x="246" y="0" on="1"/>
        <pt x="268" y="174" on="1"/>
        <pt x="170" y="174" on="1"/>
        <pt x="149" y="0" on="1"/>
        <pt x="52" y="0" on="1"/>
        <pt x="74" y="174" on="1"/>
        <pt x="0" y="174" on="1"/>
      </contour>
    </TTGlyph>
    <TTGlyph name="o" xMin="28" yMin="-15" xMax="452" yMax="553">
      <contour>
        <pt x="28" y="269" on="1"/>
        <pt x="28" y="338" on="0"/>
        <pt x="50" y="444" on="0"/>
        <pt x="100" y="515" on="0"/>
        <pt x="181" y="552" on="0"/>
        <pt x="240" y="552" on="1"/>
        <pt x="302" y="553" on="0"/>
        <pt x="384" y="518" on="0"/>
        <pt x="432" y="446" on="0"/>
        <pt x="452" y="339" on="0"/>
        <pt x="452" y="269" on="1"/>
        <pt x="452" y="200" on="0"/>
        <pt x="430" y="94" on="0"/>
        <pt x="380" y="23" on="0"/>
        <pt x="299" y="-14" on="0"/>
        <pt x="240" y="-14" on="1"/>
        <pt x="178" y="-15" on="0"/>
        <pt x="96" y="20" on="0"/>
        <pt x="48" y="92" on="0"/>
        <pt x="28" y="198" on="0"/>
      </contour>
      <contour>
        <pt x="166" y="269" on="1"/>
        <pt x="166" y="228" on="0"/>
        <pt x="170" y="158" on="0"/>
        <pt x="185" y="108" on="0"/>
        <pt x="214" y="80" on="0"/>
        <pt x="240" y="80" on="1"/>
        <pt x="282" y="80" on="0"/>
        <pt x="314" y="168" on="0"/>
        <pt x="314" y="269" on="1"/>
        <pt x="314" y="370" on="0"/>
        <pt x="282" y="458" on="0"/>
        <pt x="240" y="458" on="1"/>
        <pt x="214" y="458" on="0"/>
        <pt x="185" y="430" on="0"/>
        <pt x="170" y="380" on="0"/>
        <pt x="166" y="310" on="0"/>
      </contour>
    </TTGlyph>
    <TTGlyph name="oacute" xMin="28" yMin="-15" xMax="452" yMax="746">
      <component glyphName="o" x="0" y="0" flags="0x204"/>
      <component glyphName="acute" x="145" y="0" flags="0x4"/>
    </TTGlyph>
    <TTGlyph name="obreve" xMin="28" yMin="-15" xMax="452" yMax="745">
      <component glyphName="o" x="0" y="0" flags="0x204"/>
      <component glyphName="breve" x="129" y="0" flags="0x4"/>
    </TTGlyph>
    <TTGlyph name="ocircumflex" xMin="28" yMin="-15" xMax="452" yMax="746">
      <component glyphName="o" x="0" y="0" flags="0x204"/>
      <component glyphName="circumflex" x="129" y="0" flags="0x4"/>
    </TTGlyph>
    <TTGlyph name="odieresis" xMin="28" yMin="-15" xMax="452" yMax="733">
      <component glyphName="o" x="0" y="0" flags="0x204"/>
      <component glyphName="dieresis" x="129" y="0" flags="0x4"/>
    </TTGlyph>
    <TTGlyph name="oe" xMin="29" yMin="-14" xMax="712" yMax="552">
      <contour>
        <pt x="580" y="330" on="1"/>
        <pt x="579" y="361" on="0"/>
        <pt x="573" y="408" on="0"/>
        <pt x="558" y="441" on="0"/>
        <pt x="531" y="458" on="0"/>
        <pt x="510" y="458" on="1"/>
        <pt x="489" y="458" on="0"/>
        <pt x="462" y="439" on="0"/>
        <pt x="446" y="408" on="0"/>
        <pt x="439" y="370" on="0"/>
        <pt x="439" y="351" on="1"/>
        <pt x="439" y="330" on="1"/>
      </contour>
      <contour>
        <pt x="243" y="80" on="1"/>
        <pt x="284" y="80" on="0"/>
        <pt x="315" y="168" on="0"/>
        <pt x="315" y="269" on="1"/>
        <pt x="315" y="370" on="0"/>
        <pt x="283" y="458" on="0"/>
        <pt x="241" y="458" on="1"/>
        <pt x="215" y="458" on="0"/>
        <pt x="186" y="430" on="0"/>
        <pt x="171" y="380" on="0"/>
        <pt x="167" y="310" on="0"/>
        <pt x="167" y="269" on="1"/>
        <pt x="167" y="228" on="0"/>
        <pt x="171" y="158" on="0"/>
        <pt x="186" y="108" on="0"/>
        <pt x="217" y="80" on="0"/>
      </contour>
      <contour>
        <pt x="439" y="248" on="1"/>
        <pt x="439" y="205" on="1"/>
        <pt x="439" y="181" on="0"/>
        <pt x="446" y="136" on="0"/>
        <pt x="462" y="101" on="0"/>
        <pt x="488" y="80" on="0"/>
        <pt x="507" y="80" on="1"/>
        <pt x="542" y="80" on="0"/>
        <pt x="574" y="130" on="0"/>
        <pt x="580" y="181" on="1"/>
        <pt x="704" y="181" on="1"/>
        <pt x="700" y="87" on="0"/>
        <pt x="610" y="-14" on="0"/>
        <pt x="517" y="-14" on="1"/>
        <pt x="454" y="-14" on="0"/>
        <pt x="388" y="35" on="0"/>
        <pt x="377" y="65" on="1"/>
        <pt x="363" y="27" on="0"/>
        <pt x="281" y="-14" on="0"/>
        <pt x="229" y="-14" on="1"/>
        <pt x="171" y="-14" on="0"/>
        <pt x="94" y="22" on="0"/>
        <pt x="48" y="93" on="0"/>
        <pt x="29" y="199" on="0"/>
        <pt x="29" y="269" on="1"/>
        <pt x="29" y="338" on="0"/>
        <pt x="51" y="444" on="0"/>
        <pt x="101" y="515" on="0"/>
        <pt x="182" y="552" on="0"/>
        <pt x="241" y="552" on="1"/>
        <pt x="298" y="552" on="0"/>
        <pt x="364" y="515" on="0"/>
        <pt x="384" y="477" on="1"/>
        <pt x="404" y="514" on="0"/>
        <pt x="475" y="552" on="0"/>
        <pt x="515" y="552" on="1"/>
        <pt x="575" y="552" on="0"/>
        <pt x="652" y="513" on="0"/>
        <pt x="696" y="442" on="0"/>
        <pt x="712" y="341" on="0"/>
        <pt x="712" y="279" on="1"/>
        <pt x="712" y="248" on="1"/>
      </contour>
    </TTGlyph>
    <TTGlyph name="ogonek" xMin="24" yMin="-217" xMax="234" yMax="0">
      <contour>
        <pt x="234" y="-182" on="1"/>
        <pt x="206" y="-202" on="0"/>
        <pt x="155" y="-217" on="0"/>
        <pt x="120" y="-217" on="1"/>
        <pt x="91" y="-217" on="0"/>
        <pt x="53" y="-202" on="0"/>
        <pt x="32" y="-180" on="0"/>
        <pt x="24" y="-152" on="0"/>
        <pt x="24" y="-138" on="1"/>
        <pt x="24" y="-101" on="0"/>
        <pt x="90" y="-26" on="0"/>
        <pt x="147" y="0" on="1"/>
        <pt x="214" y="0" on="1"/>
        <pt x="183" y="-23" on="0"/>
        <pt x="144" y="-58" on="0"/>
        <pt x="121" y="-86" on="0"/>
        <pt x="113" y="-110" on="0"/>
        <pt x="113" y="-122" on="1"/>
        <pt x="113" y="-153" on="0"/>
        <pt x="141" y="-153" on="1"/>
        <pt x="155" y="-153" on="0"/>
        <pt x="182" y="-146" on="0"/>
        <pt x="204" y="-133" on="1"/>
      </contour>
    </TTGlyph>
    <TTGlyph name="ograve" xMin="28" yMin="-15" xMax="452" yMax="746">
      <component glyphName="o" x="0" y="0" flags="0x204"/>
      <component glyphName="grave" x="123" y="0" flags="0x4"/>
    </TTGlyph>
    <TTGlyph name="ohungarumlaut" xMin="28" yMin="-15" xMax="464" yMax="746">
      <component glyphName="o" x="0" y="0" flags="0x204"/>
      <component glyphName="hungarumlaut" x="143" y="0" flags="0x4"/>
    </TTGlyph>
    <TTGlyph name="omacron" xMin="28" yMin="-15" xMax="452" yMax="712">
      <component glyphName="o" x="0" y="0" flags="0x204"/>
      <component glyphName="macron" x="128" y="0" flags="0x4"/>
    </TTGlyph>
    <TTGlyph name="one" xMin="41" yMin="0" xMax="326" yMax="708">
      <contour>
        <pt x="182" y="0" on="1"/>
        <pt x="182" y="500" on="1"/>
        <pt x="41" y="500" on="1"/>
        <pt x="41" y="594" on="1"/>
        <pt x="54" y="594" on="1"/>
        <pt x="126" y="594" on="0"/>
        <pt x="209" y="648" on="0"/>
        <pt x="220" y="708" on="1"/>
        <pt x="326" y="708" on="1"/>
        <pt x="326" y="0" on="1"/>
      </contour>
    </TTGlyph>
    <TTGlyph name="onehalf" xMin="0" yMin="-31" xMax="721" yMax="725">
      <contour>
        <pt x="409" y="0" on="1"/>
        <pt x="409" y="57" on="0"/>
        <pt x="453" y="148" on="0"/>
        <pt x="510" y="188" on="1"/>
        <pt x="560" y="224" on="1"/>
        <pt x="589" y="245" on="0"/>
        <pt x="609" y="282" on="0"/>
        <pt x="609" y="305" on="1"/>
        <pt x="609" y="325" on="0"/>
        <pt x="586" y="352" on="0"/>
        <pt x="566" y="352" on="1"/>
        <pt x="550" y="352" on="0"/>
        <pt x="530" y="338" on="0"/>
        <pt x="519" y="317" on="0"/>
        <pt x="515" y="291" on="0"/>
        <pt x="515" y="279" on="1"/>
        <pt x="409" y="279" on="1"/>
        <pt x="409" y="304" on="1"/>
        <pt x="409" y="363" on="0"/>
        <pt x="483" y="428" on="0"/>
        <pt x="569" y="428" on="1"/>
        <pt x="650" y="428" on="0"/>
        <pt x="721" y="369" on="0"/>
        <pt x="721" y="320" on="1"/>
        <pt x="721" y="279" on="0"/>
        <pt x="694" y="220" on="0"/>
        <pt x="655" y="190" on="1"/>
        <pt x="598" y="146" on="1"/>
        <pt x="572" y="126" on="0"/>
        <pt x="548" y="94" on="0"/>
        <pt x="545" y="82" on="1"/>
        <pt x="721" y="82" on="1"/>
        <pt x="721" y="0" on="1"/>
      </contour>
      <contour>
        <pt x="91" y="570" on="1"/>
        <pt x="0" y="570" on="1"/>
        <pt x="0" y="640" on="1"/>
        <pt x="8" y="640" on="1"/>
        <pt x="54" y="640" on="0"/>
        <pt x="110" y="673" on="0"/>
        <pt x="117" y="708" on="1"/>
        <pt x="203" y="708" on="1"/>
        <pt x="203" y="280" on="1"/>
        <pt x="91" y="280" on="1"/>
      </contour>
      <contour>
        <pt x="478" y="725" on="1"/>
        <pt x="567" y="725" on="1"/>
        <pt x="161" y="-31" on="1"/>
        <pt x="72" y="-31" on="1"/>
      </contour>
    </TTGlyph>
    <TTGlyph name="onequarter" xMin="0" yMin="-31" xMax="721" yMax="725">
      <contour>
        <pt x="91" y="570" on="1"/>
        <pt x="0" y="570" on="1"/>
        <pt x="0" y="640" on="1"/>
        <pt x="8" y="640" on="1"/>
        <pt x="54" y="640" on="0"/>
        <pt x="110" y="673" on="0"/>
        <pt x="117" y="708" on="1"/>
        <pt x="203" y="708" on="1"/>
        <pt x="203" y="280" on="1"/>
        <pt x="91" y="280" on="1"/>
      </contour>
      <contour>
        <pt x="502" y="725" on="1"/>
        <pt x="591" y="725" on="1"/>
        <pt x="185" y="-31" on="1"/>
        <pt x="96" y="-31" on="1"/>
      </contour>
      <contour>
        <pt x="401" y="168" on="1"/>
        <pt x="553" y="428" on="1"/>
        <pt x="677" y="428" on="1"/>
        <pt x="677" y="159" on="1"/>
        <pt x="721" y="159" on="1"/>
        <pt x="721" y="77" on="1"/>
        <pt x="677" y="77" on="1"/>
        <pt x="677" y="0" on="1"/>
        <pt x="571" y="0" on="1"/>
        <pt x="571" y="77" on="1"/>
        <pt x="401" y="77" on="1"/>
      </contour>
      <contour>
        <pt x="571" y="304" on="1"/>
        <pt x="569" y="304" on="1"/>
        <pt x="483" y="159" on="1"/>
        <pt x="571" y="159" on="1"/>
      </contour>
    </TTGlyph>
    <TTGlyph name="onesuperior" xMin="24" yMin="280" xMax="227" yMax="708">
      <contour>
        <pt x="115" y="570" on="1"/>
        <pt x="24" y="570" on="1"/>
        <pt x="24" y="640" on="1"/>
        <pt x="32" y="640" on="1"/>
        <pt x="78" y="640" on="0"/>
        <pt x="134" y="673" on="0"/>
        <pt x="141" y="708" on="1"/>
        <pt x="227" y="708" on="1"/>
        <pt x="227" y="280" on="1"/>
        <pt x="115" y="280" on="1"/>
      </contour>
    </TTGlyph>
    <TTGlyph name="ordfeminine" xMin="10" yMin="367" xMax="304" yMax="708">
      <contour>
        <pt x="193" y="537" on="1"/>
        <pt x="185" y="531" on="0"/>
        <pt x="166" y="524" on="0"/>
        <pt x="158" y="522" on="1"/>
        <pt x="132" y="517" on="0"/>
        <pt x="110" y="493" on="0"/>
        <pt x="110" y="473" on="1"/>
        <pt x="110" y="456" on="0"/>
        <pt x="125" y="431" on="0"/>
        <pt x="142" y="431" on="1"/>
        <pt x="159" y="431" on="0"/>
        <pt x="193" y="452" on="0"/>
        <pt x="193" y="478" on="1"/>
      </contour>
      <contour>
        <pt x="293" y="437" on="1"/>
        <pt x="293" y="414" on="0"/>
        <pt x="297" y="389" on="0"/>
        <pt x="304" y="374" on="1"/>
        <pt x="204" y="374" on="1"/>
        <pt x="199" y="382" on="0"/>
        <pt x="195" y="401" on="0"/>
        <pt x="193" y="409" on="1"/>
        <pt x="176" y="383" on="0"/>
        <pt x="134" y="367" on="0"/>
        <pt x="99" y="367" on="1"/>
        <pt x="74" y="367" on="0"/>
        <pt x="40" y="384" on="0"/>
        <pt x="19" y="410" on="0"/>
        <pt x="10" y="443" on="0"/>
        <pt x="10" y="459" on="1"/>
        <pt x="10" y="507" on="0"/>
        <pt x="51" y="551" on="0"/>
        <pt x="99" y="561" on="1"/>
        <pt x="157" y="573" on="1"/>
        <pt x="177" y="578" on="0"/>
        <pt x="193" y="594" on="0"/>
        <pt x="193" y="607" on="1"/>
        <pt x="193" y="644" on="0"/>
        <pt x="156" y="644" on="1"/>
        <pt x="136" y="644" on="0"/>
        <pt x="115" y="622" on="0"/>
        <pt x="115" y="605" on="1"/>
        <pt x="115" y="596" on="1"/>
        <pt x="21" y="596" on="1"/>
        <pt x="21" y="609" on="1"/>
        <pt x="21" y="664" on="0"/>
        <pt x="97" y="708" on="0"/>
        <pt x="158" y="708" on="1"/>
        <pt x="201" y="708" on="0"/>
        <pt x="254" y="693" on="0"/>
        <pt x="283" y="667" on="0"/>
        <pt x="293" y="631" on="0"/>
        <pt x="293" y="609" on="1"/>
      </contour>
    </TTGlyph>
</ttFont>
